<svg width="100" height="100" viewBox="0 0 100 100" fill="none" xmlns="http://www.w3.org/2000/svg">
<path d="M100 50.3056C100 22.522 77.6148 0 50 0C22.3852 0 0 22.522 0 50.3056C0 75.4136 18.2815 96.2289 42.1852 100V64.8457H29.4889V50.3056H42.1852V39.2234C42.1852 26.6135 49.6518 19.6527 61.0741 19.6527C66.5481 19.6527 72.2667 20.6365 72.2667 20.6365V33.0154H65.963C59.7556 33.0154 57.8148 36.8907 57.8148 40.8705V50.3056H71.6815L69.4667 64.8457H57.8148V100C81.7185 96.2289 100 75.4136 100 50.3056Z" fill="#4676ED"/>
<path d="M69.2509 64.2162L71.4255 49.6686H57.8109V40.2287C57.8109 36.2469 59.7091 32.3695 65.8109 32.3695H72V19.9843C72 19.9843 66.3855 19 61.0109 19C49.7964 19 42.4655 25.9644 42.4655 38.5808V49.6686H30V64.2162H42.4655V99.3886C44.9673 99.7912 47.5273 100 50.1382 100C52.7491 100 55.3091 99.7912 57.8109 99.3886V64.2162H69.2509Z" fill="white"/>
</svg>
