<?xml version="1.0" ?><!DOCTYPE svg  PUBLIC '-//W3C//DTD SVG 1.1//EN'  'http://www.w3.org/Graphics/SVG/1.1/DTD/svg11.dtd'><svg height="512px" style="enable-background:new 0 0 512 512;" version="1.1" viewBox="0 0 512 512" width="512px" xml:space="preserve" xmlns="http://www.w3.org/2000/svg" xmlns:xlink="http://www.w3.org/1999/xlink"><g id="_x37_0"><g><g><path d="M242.91,205.703c-0.328,0-0.625-0.027-0.895-0.082c-1.325-0.282-2.411-1.049-3.056-2.165     c-1.619-2.792,1.037-4.675,1.904-5.294l2.507-1.774c0.328-0.23,0.649-0.461,0.973-0.688c-3.038,1.507-4.239,1.604-5.391,1.322     c-1.025-0.249-1.868-0.879-2.383-1.774c-0.239-0.409-0.388-0.858-0.449-1.316c-0.246-0.015-0.473-0.052-0.685-0.1     c-1.098-0.267-2.007-0.928-2.565-1.865c-4.178,2.113-6.346,2.596-7.938,2.213c-1.125-0.267-2.053-0.949-2.614-1.922     c-0.928-1.604-0.455-3.647,1.079-4.688l1.747-1.189c-0.227-0.209-0.434-0.452-0.606-0.734c-0.956-1.528-0.598-3.517,0.791-4.624     c-0.3-0.258-0.561-0.57-0.767-0.918c-1.492-2.593,0.37-4.185,2.529-6.028c1.146-0.976,2.787-2.359,4.764-4.008     c3.812-3.184,8.863-7.368,13.96-11.577c-0.597,0.425-1.207,0.861-1.828,1.301c-11.229,7.957-22.787,15.698-22.902,15.773     c-1.595,1.067-3.754,0.667-4.857-0.909c-1.104-1.574-0.746-3.739,0.804-4.876c1.686-1.234,3.496-2.55,5.4-3.921     c-0.853-0.303-1.556-0.882-2.008-1.667c-1.455-2.517-0.439-4.848,3.73-8.508c-0.498-0.303-0.916-0.73-1.213-1.246     c-1.741-3.011-0.446-5.761,10.591-13.957c0.185-0.977,0.779-1.871,1.707-2.405c0.5-0.288,1.04-0.443,1.583-0.47     c1.328-0.661,4.518-2.723,7.038-4.49c0.807-0.567,1.819-0.768,2.781-0.561c0.964,0.212,1.798,0.815,2.298,1.667     c0.082,0.143,0.155,0.279,0.216,0.416c5.931-3.235,6.75-3.029,7.723-2.787c0.925,0.23,1.774,0.864,2.253,1.695     c0.919,1.589,0.876,2.965-0.382,4.669c0.991-0.646,1.979-1.289,2.956-1.929c0.81-0.531,1.811-0.704,2.75-0.479     c0.946,0.228,1.759,0.831,2.244,1.671c0.4,0.691,0.576,1.358,0.564,2.025c0.873-0.143,1.631-0.155,2.243-0.024     c1.377,0.288,2.499,1.08,3.16,2.235c0.873,1.495,0.527,3.399-0.813,4.494c-3.178,2.611-6.688,5.5-10.294,8.46l21.786-12.578     c1.649-0.949,3.76-0.424,4.767,1.192c1.007,1.616,0.552,3.741-1.03,4.803l-4.585,3.072c0.146,0.158,0.278,0.331,0.4,0.518     c0.17,0.282,0.309,0.579,0.394,0.883c1.389-0.54,2.129-0.503,2.936-0.31c1.007,0.243,1.844,0.867,2.359,1.756     c0.218,0.376,0.363,0.776,0.424,1.183c4.396-2.659,4.9-2.535,6.138-2.235c0.939,0.228,1.782,0.855,2.268,1.689     c0.595,1.021,0.734,2.25,0.4,3.454c-0.272,0.988-0.667,2.408-4.615,5.782c0.625,1.865-0.327,3.894-5.942,8.727     c0.945,0.222,1.752,0.825,2.243,1.668c1.364,2.347-0.157,3.954-1.922,5.819c-0.928,0.979-2.244,2.344-3.76,3.917     c-0.952,0.992-2.202,2.28-3.561,3.705c1.092,0.109,2.123,0.728,2.717,1.756c0.977,1.686,0.4,3.848-1.291,4.824l-14.7,8.484     c-1.68,0.977-3.845,0.395-4.827-1.295c-0.889-1.543-0.673-2.935,0.697-4.973C254.187,201.894,246.712,205.703,242.91,205.703z" style="fill:#307360;"/></g><g><path d="M461.406,382.225c-0.31,0-0.589-0.067-0.952-0.17c-0.91-0.23-1.698-0.813-2.171-1.626     c-0.4-0.679-0.564-1.474-0.461-2.256l0.236-1.831l-4.258,2.462c-1.516,0.88-3.462,0.51-4.548-0.886     c-0.722-0.921-0.916-2.116-0.606-3.171c-0.206-0.109-0.406-0.243-0.594-0.389c-0.492-0.261-1.705-0.8-2.463-1.14     c-0.018-0.006-0.042-0.013-0.061-0.019c-0.236,0.085-0.473,0.151-0.728,0.188c-1.286,0.218-3.038-0.219-4.136-2.123     c-0.134-0.218-0.23-0.442-0.315-0.667c-7.812,4.767-8.309,4.821-9.909,4.421c-0.928-0.23-1.753-0.854-2.226-1.686     c-0.795-1.364-1.226-2.11,1.098-5.324c-8.721,5.821-10.534,6.743-12.645,6.24c-1.007-0.23-1.874-0.867-2.383-1.753     c-1.595-2.76-0.085-4.336,7.174-11.935c0.818-0.855,1.655-1.723,2.517-2.614c-7.319,4.524-16.106,10.321-24.039,15.834     c-1.564,1.092-3.711,0.74-4.846-0.782c-1.14-1.521-0.861-3.687,0.619-4.869l2.201-1.765c-0.661-0.353-1.207-0.88-1.583-1.541     c-0.977-1.686-0.4-3.845,1.292-4.827c0.928-0.533,2.007-0.606,2.947-0.267c3.771-1.158,16.435-9.382,26.701-16.829     c1.553-1.121,3.718-0.806,4.882,0.729c0.291,0.382,0.491,0.813,0.606,1.249c5.5-2.59,6.975-2.269,7.72-2.099     c1.177,0.261,2.141,0.965,2.724,1.965c1.346,2.354-0.255,3.99-1.668,5.434c-0.734,0.746-1.777,1.795-3.014,3.045     c-0.219,0.225-0.455,0.461-0.71,0.722c5.264-3.263,7.047-3.797,8.806-3.384c1.061,0.254,1.946,0.903,2.486,1.831     c0.77,1.334,0.582,3.008-0.449,4.148c-0.516,0.558-1.037,1.128-1.553,1.704c1.941-1.043,2.354-0.946,3.354-0.691     c0.928,0.242,1.728,0.837,2.207,1.667c1.226,2.123,0.079,3.572-1.51,5.573c-0.419,0.521-1.128,1.419-1.85,2.354     c0.327,0.146,0.618,0.272,0.892,0.4c11.358-6.738,11.438-6.726,13.014-6.308c0.91,0.237,1.698,0.837,2.165,1.649     c0.934,1.626,0.503,2.899-0.485,4.215c0.837,0.771,1.262,1.91,1.11,3.057l-0.243,1.85c0.17-0.104,0.34-0.206,0.51-0.303     c1.68-1.014,3.845-0.468,4.846,1.213c1.006,1.667,0.461,3.838-1.213,4.845C463.832,381.394,462.455,382.225,461.406,382.225z" style="fill:#307360;"/></g><g><path d="M401.09,460.437c-0.285,0-0.54-0.067-0.855-0.151c-0.928-0.249-1.722-0.861-2.183-1.698     c-0.467-0.85-0.57-1.838-0.285-2.753c0.31-1.02,0.631-2.057,0.939-3.063c-0.193-0.079-0.388-0.177-0.563-0.292     c-1.219-0.776-1.838-2.226-1.57-3.638l0.879-4.591c-0.922-0.304-1.698-0.922-2.189-1.783c-0.57-0.977-1.024-1.771-0.042-3.918     c-6.986,4.615-8.345,5.265-10.219,4.821c-0.952-0.218-1.855-0.885-2.341-1.729c-0.546-0.945-0.612-2.074-0.23-3.05     c-1.959,1.013-3.105,1.219-4.3,0.952c-1.024-0.243-1.929-0.892-2.45-1.802c-1.2-2.067-0.764-3.966,2.184-6.974     c-0.831-1.54-0.74-2.814,1.395-5.567c-0.133,0.091-0.272,0.176-0.4,0.267c-0.818,0.553-1.819,0.746-2.777,0.521     c-0.964-0.212-1.776-0.818-2.268-1.673c-0.315-0.54-0.504-1.067-0.546-1.602c-0.988,0.236-1.449,0.134-1.868,0.03     c-1.019-0.242-1.861-0.867-2.377-1.759c-0.619-1.073-0.619-2.347-0.079-3.39c-0.097-0.019-0.206-0.043-0.31-0.055     c-1.134-0.23-2.122-0.939-2.698-1.935c-0.431-0.752-0.558-1.595-0.412-2.396c-0.558,0.358-1.073,0.697-1.522,1.001     c-8.254,5.421-8.247,5.421-9.885,5.033c-0.94-0.225-1.759-0.831-2.244-1.668c-0.861-1.491-0.994-2.904,0.383-4.966     c-0.74,0.314-1.116,0.229-1.874,0.054c-0.946-0.224-1.765-0.83-2.25-1.674c-1.407-2.425-0.315-3.862,3.687-7.38     c-0.333-0.006-0.618-0.079-0.922-0.151c-0.922-0.243-1.807-0.904-2.286-1.723c-0.728-1.262-1.461-2.535,1.426-5.991l-4.949,2.85     c-1.582,0.916-3.584,0.461-4.627-1c-5.082,1.977-6.701,1.619-7.792,1.37c-1.383-0.31-2.505-1.104-3.166-2.25     c-0.546-0.958-1.08-2.547-0.461-4.676c0.315-1.073,0.837-2.862,4.287-6.355c-0.782-1.558-0.303-3.493,1.165-4.499l3.656-2.505     c-1.479,0.952-2.959,1.916-4.433,2.868c-1.625,1.056-3.79,0.606-4.864-1c-1.073-1.607-0.661-3.778,0.94-4.876     c18.248-12.523,43.791-30.225,60.771-42.323c-11.99,6.847-31.195,18.921-61.888,39.849c-8.429,5.749-8.436,5.749-10.03,5.379     c-0.958-0.212-1.789-0.83-2.274-1.68c-0.843-1.461-0.921-2.662,0.334-4.287l-3.518,2.031c-1.691,0.977-3.851,0.4-4.827-1.292     c-0.546-0.945-0.679-2.073-0.376-3.178c0.321-1.176,0.752-2.777,8.248-8.302c-0.959-3.117,1.746-6.883,14.566-16.076     c-8.011,5.233-16.18,10.667-24.124,16.076c-0.813,0.558-1.819,0.746-2.777,0.527c-0.959-0.224-1.783-0.83-2.269-1.686     c-0.521-0.897-1.03-2.384-0.485-4.336c0.273-0.982,0.85-2.031,1.711-3.142c-0.449-0.267-0.838-0.625-1.146-1.079     c-1.062-1.583-0.686-3.724,0.861-4.84l44.937-32.469c-12.093,7.617-26.204,17.145-39.406,26.581     c-0.818,0.575-1.831,0.781-2.808,0.575c-0.971-0.212-1.808-0.824-2.311-1.686c-0.837-1.449-0.776-2.626,0.188-3.93l-4.863,2.808     c-0.813,0.474-1.776,0.595-2.681,0.358c-0.909-0.249-1.68-0.831-2.146-1.649c-0.249-0.438-0.425-0.874-0.521-1.322     c-4.385,1.892-7.599,2.583-9.83,2.086c-1.577-0.357-2.851-1.262-3.614-2.577c-0.686-1.183-0.837-2.608-0.431-4.003     c0.467-1.589,1.782-3.299,4.063-5.258c-0.055-0.164-0.097-0.327-0.133-0.516l-3.317,1.917c-1.692,0.97-3.851,0.394-4.827-1.292     c-1.207-2.092-0.249-3.809,1.485-5.428c-0.588-0.31-1.079-0.782-1.419-1.364c-1.892-3.274,0.625-4.906,7.356-9.261     c4.045-2.613,9.69-6.143,16.234-10.225c3.96-2.468,8.805-5.5,14.026-8.793l-32.414,18.721c-1.686,0.971-3.856,0.389-4.833-1.304     c-1.213-2.099-0.946-4.312,1.916-7.489c-0.746-0.37-1.358-0.935-1.776-1.649c-0.4-0.691-0.782-1.735-0.667-3.087     c-1.001,0.709-2.002,1.425-2.99,2.128c-0.813,0.589-1.825,0.801-2.802,0.589c-0.977-0.206-1.813-0.825-2.316-1.687     c-0.073-0.133-0.146-0.261-0.212-0.406c-3.36,1.298-5.807,1.734-7.48,1.353c-1.374-0.321-2.496-1.128-3.16-2.286     c-1.562-2.705-0.373-5.537,4.884-10.304c-0.997-0.254-1.828-0.873-2.338-1.758c-0.16-0.285-0.281-0.589-0.363-0.892     c-1.528-0.34-2.769-1.22-3.493-2.469c-0.977-1.691-0.394-3.856,1.295-4.833c1.349-0.776,3.005-0.57,4.111,0.425     c7.975-0.007,49.68-26.432,86.224-52.557c0.807-0.579,1.819-0.792,2.795-0.579c0.977,0.209,1.819,0.825,2.317,1.686     c0.539,0.939,0.679,2.062,0.376,3.153c-0.383,1.419-0.892,3.293-12.057,11.028c0.067,1.289-0.569,2.526-1.691,3.208     c-1.001,0.61-2.008,1.225-3.014,1.841c-0.861,0.531-1.856,1.149-2.899,1.795c-2.777,1.725-5.445,3.378-8.005,4.958     c-23.221,14.521-45.428,29.409-55.798,37.851c0.86-0.442,1.771-0.915,2.729-1.443c5.209-4.451,14.7-10.024,29.066-17.859     c7.181-4.688,14.118-9.327,19.637-13.017c25.343-16.947,26.641-17.529,29.097-16.956c0.952,0.225,1.874,0.897,2.365,1.744     c0.612,1.058,0.776,2.311,0.479,3.548c1.171,0.415,2.117,1.183,2.705,2.213c0.479,0.825,0.601,1.81,0.34,2.729     c-0.024,0.082-0.043,0.154-0.061,0.221c1.225-0.579,1.631-0.482,2.347-0.309c0.946,0.227,1.753,0.833,2.237,1.67     c1.377,2.386,0.262,4.254-2.577,6.48l4.427-2.559c1.692-0.979,3.857-0.4,4.834,1.292c0.892,1.55,1,3.178-0.479,5.449     c3.724-1.504,4.718-1.268,5.579-1.05c1.08,0.261,1.978,0.922,2.505,1.85c0.964,1.656,0.425,3.772-1.207,4.773     c-0.418,0.261-0.837,0.521-1.261,0.782c0.775,0.285,1.461,0.837,1.892,1.613c0.491,0.909,0.552,1.946,0.236,2.855     c0.825,0.376,1.504,0.977,1.947,1.753c0.685,1.183,0.837,2.607,0.431,3.99c-0.57,1.94-2.408,4.045-5.683,6.567     c0.146,1.328-0.479,2.688-1.692,3.415c-5.736,3.444-11.54,7.017-17.229,10.582c-2.05,1.413-4.142,2.868-6.174,4.275     c-1.061,0.739-2.104,1.468-3.135,2.183l40.285-23.263c0.818-0.467,1.777-0.601,2.687-0.352c0.91,0.243,1.674,0.837,2.147,1.644     c1.649,2.875-1.11,4.736-2.02,5.343c-0.613,0.418-1.522,1.024-2.681,1.789c-0.606,0.4-1.286,0.843-2.025,1.328     c0.976,0.418,1.771,1.109,2.286,2.001c0.897,1.564,0.479,3.566-0.995,4.627l-5.312,3.839c16.707-9.369,18.32-8.969,19.787-8.599     c1.025,0.254,1.881,0.885,2.39,1.782c0.601,1.031,0.74,2.256,0.413,3.457c-0.17,0.582-0.474,1.188-0.922,1.831     c1.255,0.315,2.286,1.067,2.904,2.135c2.008,3.475-1.255,5.664-8.399,10.443c-4.767,3.195-11.552,7.514-18.732,12.086     c-0.109,0.066-0.219,0.134-0.321,0.206c15.033-8.806,26.92-15.543,27.083-15.634c1.656-0.94,3.754-0.4,4.755,1.219     c0.255,0.419,0.406,0.861,0.473,1.311l0.971-0.553c1.661-0.97,3.803-0.418,4.791,1.237c0.794,1.316,0.631,2.936-0.298,4.069     c0.037,0.006,0.073,0.012,0.115,0.019c1.438,0.333,2.614,1.17,3.306,2.364c1.686,2.924-0.734,4.791-4.075,7.381     c-0.395,0.31-0.825,0.631-1.286,0.982c2.577-0.892,3.463-0.68,4.233-0.497c1.104,0.267,2.013,0.939,2.559,1.886     c0.789,1.364,0.57,3.051-0.461,4.166c3.451-1.855,5.513-2.929,5.573-2.965c1.711-0.897,3.809-0.255,4.736,1.425     c0.928,1.686,0.334,3.803-1.328,4.761L358.19,375.65c-9.879,6.471-17.296,11.965-20.564,15.567     c12.584-4.718,50.025-28.303,83.367-51.39c0.807-0.558,1.819-0.758,2.783-0.546c0.958,0.219,1.789,0.831,2.28,1.687     c2.02,3.475-0.618,5.785-12.783,14.154c-4.324,2.977-9.824,6.634-16.404,10.909c0.218,1.316-0.31,2.705-1.479,3.505     c-3.639,2.518-7.338,5.125-10.952,7.715c0.479-0.104,0.818-0.019,1.31,0.108c0.922,0.23,1.722,0.837,2.201,1.662     c0.546,0.946,0.606,2.044,0.249,2.995c5.931-3.068,7.907-3.238,9.29-2.904c1.116,0.261,2.032,0.928,2.584,1.892     c1.54,2.663-0.667,4.428-1.983,5.367c0.716-0.103,1.304-0.061,1.808,0.061c1.121,0.267,2.05,0.946,2.602,1.91     c0.885,1.522,0.497,3.463-0.886,4.549l-6.234,4.863c0.158,0.188,0.297,0.389,0.431,0.612c0.546,0.952,0.606,2.08,0.23,3.045     c0.431-0.273,0.849-0.559,1.273-0.837c0.819-0.528,1.813-0.71,2.76-0.479c0.958,0.225,1.765,0.843,2.249,1.68     c1.098,1.923,0.655,3.068-1.146,4.682l0.012,0.024c-0.055,0.036-0.103,0.079-0.157,0.109c-0.043,0.036-0.079,0.066-0.115,0.109     c0.491,0.315,0.903,0.746,1.207,1.273c0.807,1.4,0.558,3.172-0.601,4.3c-1.334,1.291-2.711,2.644-4.069,3.99     c0.182,0.018,0.376,0.055,0.582,0.103c0.946,0.213,1.771,0.819,2.262,1.656c0.946,1.631,0.776,2.747-0.412,4.057     c0.406,0.297,0.758,0.686,1.007,1.104c0.552,0.958,0.612,2.093,0.212,3.087c4.494-2.771,5.932-3.153,7.514-2.783     c1.031,0.236,1.893,0.873,2.408,1.776c0.739,1.273,0.606,2.875-0.328,4.015c-1.91,2.316-3.978,4.942-5.651,7.175     c0.533,0.77,0.758,1.728,0.576,2.698l-0.874,4.549h0.013c0.977,0.212,1.868,0.86,2.359,1.728c0.509,0.867,0.709,1.201-0.037,3.96     c2.365-1.376,4.888-2.838,6.901-4.015c1.686-0.976,3.852-0.406,4.834,1.274c0.982,1.691,0.412,3.856-1.28,4.833     c0,0-3.632,2.122-7.283,4.239C403.564,459.594,402.103,460.437,401.09,460.437z M308.28,319.537     c-7.265,3.941-13.978,7.786-18.156,10.728c3.894-1.74,9.236-4.803,15.124-8.46C306.207,321.077,307.213,320.325,308.28,319.537z      M341.61,258.557c-31.874,17.547-46.78,27.535-53.748,33.072C302.149,284.084,329.179,266.607,341.61,258.557z" style="fill:#307360;"/></g><g><path d="M444.316,177.858c-0.309,0-0.612-0.04-0.916-0.118c-0.909-0.243-1.674-0.834-2.146-1.646     c-1.291-2.238-0.837-4.211,3.202-8.072c-0.952,0.146-1.51,0.027-1.995-0.079c-1.183-0.267-2.159-0.967-2.741-1.977     c-1.789-3.099-0.315-6.365,7.975-13.43c-0.412-0.233-0.776-0.552-1.073-0.955c-1.158-1.549-0.849-3.745,0.686-4.918     c0.521-0.397,1.049-0.801,1.576-1.204c-0.588,0.085-0.934-0.003-1.291-0.088c-0.94-0.23-1.819-0.885-2.299-1.719     c-0.655-1.134-0.612-2.493,0.019-3.557c-1.371,0.346-1.965,0.206-2.372,0.115c-1.115-0.255-2.031-0.925-2.583-1.886     c-1.661-2.875,0.758-5.012,3.493-7.231c-1.292,0.403-2.237,0.434-3.111,0.236c-1.115-0.261-2.043-0.937-2.607-1.91     c-0.788-1.377-0.564-3.114,0.546-4.245l5.088-5.164c-0.97-0.188-1.855-0.779-2.383-1.701c-1.177-2.038-0.674-4.069,1.752-7.026     c-10.242,5.864-11.516,5.558-12.607,5.291c-0.928-0.227-1.844-0.9-2.323-1.734c-1.006-1.734-0.958-3.32,1.11-5.691     c-0.03-0.045-0.061-0.097-0.085-0.143c-1.067-1.853-1.122-3.15,2.607-7.144c-1.534,0.461-3.238-0.17-4.069-1.616     c-0.182-0.318-0.333-0.627-0.431-0.937c-7.089,4.351-8.223,4.582-9.836,4.188c-0.928-0.23-1.813-0.888-2.299-1.722     c-0.824-1.425-0.552-3.227,0.655-4.351l3.087-2.877c-0.357-0.009-0.619-0.064-0.837-0.109c-1.152-0.249-2.104-0.931-2.675-1.922     c-0.418-0.704-0.563-1.346-0.516-1.935l-0.77,0.446c-1.455,0.84-3.299,0.54-4.415-0.722c-1.116-1.258-1.183-3.126-0.17-4.47     l1.971-2.602c-5.245,3.845-7.938,5.252-10.363,4.773c-1.231-0.249-2.256-0.974-2.875-2.047c-1.183-2.047-1.358-2.35,5.743-10.322     c-8.114,4.749-17.429,10.271-24.549,14.527c-1.674,1.001-3.839,0.455-4.839-1.219c-1.007-1.677-0.461-3.845,1.213-4.846     c43.523-26.013,44.136-25.849,45.949-25.376c0.916,0.233,1.717,0.837,2.195,1.655c0.771,1.331,0.595,3.008-0.448,4.145     c-0.946,1.043-1.965,2.177-3.045,3.363c2.486-1.513,4.13-2.001,5.725-1.686c1.207,0.243,2.208,0.956,2.802,2.004     c0.716,1.231,0.619,2.766-0.236,3.899l-3.093,4.081l9.151-5.282c1.686-0.973,3.856-0.4,4.827,1.292     c0.437,0.761,0.619,1.458,0.546,2.177c0.588-0.416,1.164-0.828,1.734-1.237c1.516-1.088,3.614-0.813,4.791,0.625     c1.188,1.443,1.037,3.557-0.321,4.828l-1.959,1.832c2.268-1.174,2.941-1.122,3.972-0.867c0.935,0.23,1.802,0.873,2.286,1.707     c0.279,0.482,0.461,0.916,0.553,1.322l4.705-2.714c1.577-0.91,3.584-0.473,4.646,1.013c1.056,1.482,0.807,3.523-0.569,4.718     c-1.813,1.567-3.67,3.184-5.488,4.794c0.285-0.191,0.558-0.385,0.836-0.576c0.819-0.558,1.826-0.749,2.784-0.537     c0.964,0.218,1.783,0.828,2.28,1.683c0.236,0.403,0.382,0.788,0.461,1.155c1.521-0.961,3.038-1.923,4.536-2.875     c0.807-0.519,1.801-0.682,2.735-0.452c0.939,0.228,1.74,0.831,2.225,1.667c1.777,3.078-0.236,5.31-7.998,12.253     c1.006,0.045,1.977,0.524,2.632,1.371c1.079,1.395,0.958,3.378-0.279,4.636l-3.444,3.499c11.825-7.972,13.159-8.672,15.337-8.168     c0.952,0.221,1.874,0.897,2.365,1.746c1.285,2.22,0.752,4.442-2.578,7.996c1.353-0.904,2.693-1.807,4.009-2.702     c0.807-0.552,1.813-0.749,2.777-0.525c0.952,0.219,1.777,0.825,2.269,1.68c1.85,3.214-1.268,5.907-5.609,9.63     c-0.2,0.179-0.413,0.357-0.631,0.542c0.382,0.285,0.703,0.643,0.939,1.061c0.716,1.229,0.916,2.344,0.037,3.951     c0.394,0.003,0.667,0.061,0.879,0.103c1.213,0.258,2.214,0.973,2.82,2.013c1.704,2.951-0.929,4.976-3.712,7.12     c-1.892,1.452-4.512,3.375-7.563,5.597c-3.632,2.662-9.624,7.043-15.015,11.268c7.234-4.454,16.07-10.297,24.009-15.858     c0.813-0.57,1.819-0.764,2.789-0.555c0.971,0.215,1.802,0.825,2.299,1.68c1.722,2.99,0.388,4.888-8.963,12.114l8.029-4.636     c1.691-0.977,3.851-0.4,4.827,1.292c0.976,1.692,0.394,3.848-1.292,4.824l-43.3,24.994     C445.542,177.7,444.929,177.858,444.316,177.858z" style="fill:#307360;"/></g><g><path d="M402.382,231.491c-0.353,0-0.661-0.073-1.007-0.158c-0.94-0.227-1.819-0.876-2.299-1.716     c-0.903-1.562-0.484-3.547,0.977-4.612l34.137-24.998c-8.163,5.164-16.022,10.264-21.826,14.033     c-20.182,13.096-20.182,13.096-22.231,12.605c-0.946-0.228-1.783-0.849-2.263-1.689c-0.267-0.464-0.448-0.971-0.533-1.498     l-8.848,5.958c-1.596,1.077-3.754,0.68-4.864-0.895c-1.104-1.573-0.752-3.741,0.801-4.878c0.085-0.067,4.287-3.147,10.855-7.811     L360.222,230.3c-1.686,0.973-3.851,0.394-4.821-1.292c-0.994-1.716-1.485-2.565,3.597-8.102     c-4.264,2.65-8.787,5.519-13.105,8.312c-1.637,1.061-3.82,0.594-4.882-1.04c-1.061-1.638-0.588-3.827,1.05-4.888     c33.505-21.707,35.925-21.122,37.544-20.728c1.013,0.24,1.85,0.864,2.365,1.756c0.807,1.404,0.564,3.181-0.606,4.306     c-1.098,1.061-2.214,2.147-3.323,3.232l97.163-56.099c1.644-0.955,3.754-0.427,4.761,1.188c1.007,1.613,0.552,3.736-1.024,4.803     l-8.545,5.755c2.044,0.5,3.123,1.716,3.669,2.666c0.236,0.403,0.388,0.849,0.448,1.304c1.104,0.321,2.008,1.022,2.565,1.983     c0.903,1.562,0.479,3.551-0.977,4.615l-8.721,6.389c3.057-1.307,4.912-1.622,6.217-1.31c1.128,0.272,2.062,0.958,2.619,1.934     c1.717,2.957-1,4.724-2.795,5.898c-1.11,0.715-2.705,1.734-4.646,2.971c-6.01,3.827-11.377,7.314-16.107,10.458     c0.977,0.325,1.771,0.97,2.286,1.853c0.971,1.686,0.389,3.848-1.304,4.824c-0.928,0.54-2.001,0.603-2.947,0.267     c-3.639,1.14-15.543,8.912-25.167,15.94c-0.807,0.594-1.831,0.815-2.808,0.609c-0.982-0.209-1.825-0.825-2.335-1.692     c-0.818-1.428-1.109-2.893,0-4.955C406.766,229.987,404.001,231.491,402.382,231.491z" style="fill:#307360;"/></g><g><path d="M285.813,206.169c-0.298,0-0.582-0.033-0.861-0.106c-0.934-0.23-1.723-0.831-2.201-1.659     c-1.486-2.568,0.176-4.115,3.184-6.925c0.485-0.449,1.013-0.946,1.589-1.471c-0.2-0.209-0.376-0.443-0.527-0.697     c-0.935-1.616-1.613-2.808,3.729-8.924c-0.14-0.085-0.279-0.182-0.406-0.288c-1.141-0.937-1.583-2.478-1.11-3.872l3.778-11.083     c-0.625-1.607-0.024-3.826,7.138-11.567c-0.327-0.367-0.582-0.81-0.728-1.295c-0.364-1.207-0.066-2.514,0.788-3.438l3.481-3.76     c-0.752-0.313-1.432-0.886-1.832-1.574c-1.613-2.799,0.758-4.949,3.057-7.023c0.236-0.221,0.491-0.448,0.758-0.685     c-3.602,2.301-7.313,4.724-10.818,7.071c-1.613,1.077-3.797,0.655-4.888-0.958c-1.086-1.61-0.674-3.793,0.928-4.894     c0.813-0.558,1.637-1.119,2.456-1.689c-0.098-0.012-0.188-0.03-0.279-0.048c-0.964-0.221-1.776-0.828-2.268-1.677     c-0.17-0.297-0.34-0.646-0.479-1.046c-2.413,1.398-2.947,1.279-3.924,1.061c-0.958-0.215-1.813-0.846-2.311-1.701     c-0.946-1.637-0.431-3.735,1.177-4.748l4.676-2.966c-0.57-0.279-1.08-0.719-1.438-1.298c-1.007-1.616-0.558-3.741,1.019-4.803     l23.591-15.874c-2.639,1.495-5.337,3.029-8.114,4.591c-3.554,2.007-7.011,3.957-9.709,5.506c-1.904,1.213-3.803,2.42-5.694,3.617     c-0.818,0.525-1.801,0.683-2.741,0.455c-0.934-0.23-1.734-0.831-2.214-1.665c-0.479-0.819-0.6-1.819-0.352-2.729     c0.389-1.431,0.485-1.786,7.599-5.874c4.1-2.583,10-6.301,16.95-10.634c-0.795,0.267-1.188,0.176-1.771,0.034     c-0.94-0.228-1.753-0.837-2.238-1.674c-2.177-3.775,2.238-6.941,7.835-10.946c3.651-2.62,8.43-5.804,13.306-9.021     c-1.025-1.58-0.625-3.702,0.928-4.8c23.736-16.756,27.011-16.037,28.418-15.731c1.122,0.249,2.043,0.916,2.607,1.886     c0.249,0.422,0.406,0.837,0.491,1.247c12.063-6.983,16.095-8.214,18.436-7.65c1.122,0.273,2.05,0.958,2.613,1.922     c0.292,0.516,0.583,1.216,0.691,2.092c15.652-8.475,17.611-7.99,19.098-7.629c1.091,0.267,1.988,0.931,2.528,1.871     c0.934,1.61,0.455,3.66-1.085,4.697l-14.87,10.009c4.384-2.44,8.356-4.515,11.91-6.186l6.573-3.799     c1.031-0.597,2.238-0.612,3.257-0.146c3.457-1.058,6.174-1.398,8.12-0.958c2.293,0.519,3.476,1.85,4.069,2.88     c0.491,0.849,0.606,1.865,0.315,2.808c-0.285,0.937-0.952,1.713-1.838,2.141c-0.303,0.143-30,14.469-59.824,30.689     l-26.441,16.734c0.315,0.012,0.546,0.063,0.74,0.106c1.098,0.255,2.001,0.916,2.547,1.862c1.868,3.235-1.328,6.092-5.615,9.603     c0.236,0.236,0.455,0.509,0.631,0.813c1.765,3.075-0.188,5.716-8.278,12.771c0.14,0.17,0.273,0.349,0.376,0.543     c0.782,1.34,0.595,3.029-0.467,4.166l-6.18,6.668c0.279,0.254,0.527,0.552,0.71,0.867c0.813,1.395,0.569,3.16-0.583,4.288     c-5.961,5.852-12.734,12.98-15.154,16.152c0.006,0.418-0.055,0.843-0.194,1.246l-1.54,4.515c7.113-4.097,7.387-4.024,8.545-3.708     c1.23,0.331,2.183,1.295,2.511,2.529c0.315,1.231-0.055,2.538-0.971,3.423c-1.468,1.419-2.989,2.914-4.481,4.406     c0.03,0.009,0.049,0.012,0.079,0.021c0.909,0.243,1.686,0.833,2.158,1.649c1.498,2.599-0.193,4.181-3.565,7.335     c-0.582,0.555-1.237,1.158-1.935,1.801c0.121,0.149,0.236,0.315,0.34,0.485c0.976,1.692,0.388,3.851-1.292,4.824     c-0.315,0.182-0.643,0.309-0.971,0.385c-1.521,0.743-7.07,4.06-11.691,6.916C287.104,205.991,286.455,206.169,285.813,206.169z      M367.784,65.306c-10.151,5.492-27.041,16.183-38.442,23.484c3.039-1.868,6.132-3.75,9.23-5.637     c11.007-6.689,19.951-12.007,27.223-16.222C366.529,66.346,367.189,65.807,367.784,65.306z" style="fill:#307360;"/></g><g><path d="M217.157,200.284c-0.206,0-0.415-0.021-0.63-0.055c-1.037-0.182-2.004-0.849-2.529-1.762     c-0.215-0.373-0.352-0.704-0.422-1.052c-0.921,0.403-1.516,0.418-2.359,0.206c-0.928-0.233-1.731-0.84-2.208-1.67     c-0.664-1.152-0.621-2.578,0.1-3.693l4.345-6.662l-3.587-3.505c-0.516-0.303-0.961-0.737-1.283-1.289     c-0.346-0.597-0.549-0.949-0.479-2.038c0.003-0.091,0.012-0.176,0.018-0.264c0.073-0.789,0.267-1.926,0.619-3.685     c-0.506-0.315-0.94-0.749-1.234-1.258c-0.758-1.313-0.767-2.532,0.167-4.373c-0.255,0.158-0.503,0.312-0.755,0.47     c-0.81,0.503-1.795,0.658-2.723,0.425c-0.928-0.23-1.722-0.831-2.198-1.659c-1.41-2.441-0.24-4.739,3.997-10.397     c-0.437-0.315-0.801-0.719-1.077-1.194c-0.421-0.725-0.555-1.544-0.427-2.32c-0.673,0.146-1.186,0.097-1.75-0.042     c-0.943-0.228-1.831-0.889-2.316-1.722c-0.925-1.607-1.722-2.984,4.566-10.473c-0.852-0.085-1.671-0.479-2.28-1.155     c-1.17-1.295-1.216-3.257-0.103-4.606c1.322-1.607,2.693-3.314,4.021-5.003l-17.341,10.013c-0.815,0.47-1.777,0.597-2.68,0.352     c-0.907-0.243-1.68-0.834-2.147-1.646c-1.31-2.265-0.112-4.13,1.829-5.84c-0.583-0.31-1.074-0.776-1.41-1.358     c-1.104-1.911-0.494-3.284,1.456-5.531c-1.371,0.455-1.929,0.321-2.459,0.197c-0.949-0.221-1.874-0.903-2.359-1.746     c-1.128-1.95-0.773-3.76,1.489-6.483c-3.739,1.641-4.915,1.383-5.588,1.231c-1.161-0.255-2.12-0.943-2.692-1.938     c-0.864-1.492-0.521-3.387,0.803-4.488c0.871-0.719,1.75-1.449,2.632-2.183c-0.367-0.282-0.676-0.637-0.91-1.031     c-0.619-1.073-0.613-2.365-0.064-3.411c-0.916-0.045-1.804-0.449-2.453-1.176c-0.901-1.003-1.128-2.408-0.667-3.614l-8.632,4.988     c-1.644,0.946-3.739,0.431-4.755-1.173c-0.973-1.546-0.609-3.566,0.819-4.673c-0.482-0.203-0.921-0.515-1.286-0.931     c-1.146-1.307-1.167-3.253-0.058-4.588l1.334-1.598l-5.643,3.26c-1.519,0.874-3.451,0.51-4.539-0.864     c-1.089-1.376-1.004-3.338,0.197-4.615l1.413-1.504c-0.333,0.006-0.667-0.034-0.985-0.103c-1.101-0.246-2.01-0.91-2.565-1.868     c-0.977-1.695-0.876-2.774,0.955-4.93c-11.219,6.556-12.023,6.35-13.275,6.034c-0.921-0.237-1.746-0.855-2.222-1.68     c-0.601-1.04-0.792-1.919-0.443-2.917c-17.071,10.179-19.251,9.664-20.355,9.4c-1.058-0.251-1.935-0.897-2.465-1.816     c-0.361-0.628-0.728-1.259-0.688-2.114c-4.797,3.263-5.664,3.518-7.213,3.175c-0.967-0.215-1.847-0.858-2.344-1.716     c-0.977-1.686-0.394-3.848,1.294-4.824c0.349-0.2,0.719-0.333,1.095-0.406c1.435-0.813,5.564-3.705,9.248-6.276     c20.083-14.051,29.24-19.758,33.931-18.712c1.304,0.294,2.377,1.062,3.014,2.174c0.528,0.916,0.604,1.971,0.285,2.902     c2.692-1.726,5.382-3.472,8.02-5.203c0.816-0.531,1.81-0.704,2.756-0.479c0.946,0.225,1.756,0.828,2.244,1.668     c0.934,1.619,0.816,3.138-0.619,5.176c1.35-0.822,2.693-1.641,4.024-2.456c0.813-0.5,1.792-0.646,2.717-0.416     c0.922,0.234,1.713,0.834,2.189,1.662c0.913,1.577,0.761,3.126-0.63,5.282c0.558-0.115,1.055-0.091,1.604,0.03     c0.967,0.215,1.871,0.873,2.365,1.731c0.776,1.346,0.582,3.05-0.488,4.185l-1.295,1.379l2.065-1.192     c1.483-0.858,3.369-0.524,4.466,0.786c1.104,1.307,1.11,3.217,0.012,4.533l-0.421,0.509c6.21-3.493,7.035-3.29,8.084-3.029     c0.937,0.23,1.786,0.864,2.265,1.695c0.688,1.191,0.828,2.38,0.267,3.781c0.537,0.203,1.034,0.545,1.431,1.009     c0.64,0.755,0.913,1.713,0.822,2.644c10.816-6.434,12.077-6.128,13.227-5.849c0.943,0.227,1.843,0.895,2.329,1.728     c0.846,1.474,0.53,3.338-0.755,4.445l-5.74,4.942c0.27,0.243,0.494,0.521,0.679,0.843c0.543,0.937,0.67,1.755,0.458,2.556     c1.825-1.249,3.642-2.511,5.391-3.754c0.813-0.573,1.832-0.776,2.796-0.563c0.973,0.212,1.807,0.821,2.308,1.683     c1.728,2.999-0.179,5.5-6.971,11.51c0.328-0.012,0.652,0.015,0.976,0.091c0.946,0.224,1.762,0.828,2.244,1.674     c0.755,1.298,0.688,2.334,0.03,3.478c10.148-5.889,11.917-5.479,12.954-5.243c1.079,0.249,1.974,0.903,2.514,1.837     c1.422,2.462,0.649,4.664-3.842,8.496c0.127,0.152,0.239,0.315,0.339,0.485c0.731,1.271,1.337,2.326-1.619,7.007     c2.256-1.019,2.944-0.855,3.657-0.688c0.946,0.228,1.853,0.892,2.341,1.734c0.797,1.38,0.57,3.12-0.555,4.251     c-2.071,2.095-4.233,4.327-6.304,6.519c5.525-3.472,6.468-3.708,8.039-3.33c0.94,0.225,1.807,0.871,2.292,1.71     c1.804,3.123-0.601,5.985-9.248,13.569c-0.209,0.185-0.422,0.37-0.634,0.555c0.182,1.322-0.528,2.717-2.253,5.112     c2.956-1.552,3.523-1.407,4.448-1.176c0.928,0.23,1.746,0.846,2.223,1.677c1.313,2.265,0.47,3.323-3.569,8.412     c-0.846,1.067-2.138,2.695-3.299,4.224c0.328,0.691,0.416,1.477,0.255,2.234c-0.498,2.332-1.043,5.016-1.353,6.687l2.429,2.377     c1.334-0.546,2.893-0.228,3.902,0.843c1.128,1.183,1.289,2.987,0.397,4.354l-1.816,2.787c0.324,0.264,0.601,0.588,0.813,0.955     c0.679,1.173,0.628,2.244,0.146,4.627c1.231,1.483,1.049,3.684-0.418,4.939C219.78,199.441,218.585,200.284,217.157,200.284z" style="fill:#307360;"/></g><g><path d="M98.763,458.702c-0.276,0-0.567-0.043-0.892-0.115c-0.946-0.225-1.762-0.843-2.244-1.68     c-0.91-1.571-0.479-3.566,0.995-4.628c2.092-1.51,4.321-3.123,6.619-4.803c-0.685-0.346-1.255-0.873-1.644-1.54     c-0.913-1.589-0.47-3.603,1.022-4.657l5.992-4.228c-0.148-0.03-0.297-0.061-0.455-0.108c-0.913-0.236-1.701-0.837-2.174-1.662     c-0.934-1.613-0.446-3.681,1.119-4.712c1.534-1.007,3.132-2.062,4.778-3.153c-0.242-0.019-0.473-0.049-0.7-0.104     c-1.064-0.242-1.95-0.892-2.483-1.819c-0.464-0.8-0.585-1.521-0.491-2.158c-1.513,0.648-2.047,0.521-2.835,0.327     c-0.943-0.225-1.808-0.867-2.292-1.704c-0.476-0.825-0.594-1.819-0.333-2.735c0.261-0.922,0.879-1.691,1.722-2.141     c1.431-0.77,2.856-1.54,4.288-2.316c-0.148-0.019-0.3-0.049-0.446-0.085c-0.931-0.23-1.725-0.831-2.205-1.661     c-0.609-1.056-0.752-2.317-0.403-3.548c0.297-1.043,1.07-2.189,2.368-3.499c-0.021-0.037-0.045-0.067-0.063-0.104     c-0.482-0.831-0.601-1.825-0.34-2.747c0.27-0.916,0.897-1.692,1.744-2.146c8.505-4.5,17.083-9.146,25.516-13.809     c-8.26,4.323-9.239,4.075-10.349,3.796c-0.918-0.236-1.801-0.892-2.274-1.716c-0.625-1.086-0.773-2.378-0.425-3.646     c0.403-1.455,1.692-3.135,3.954-5.16c-0.255-0.242-0.47-0.521-0.652-0.837c-1.671-2.899,0.789-4.579,3.166-6.191     c1.389-0.946,3.414-2.293,5.961-3.979c5.061-3.348,12.174-8.018,20.343-13.384c8.114-5.325,18.25-11.978,28.648-18.843     c-6.298,3.954-12.335,7.774-17.635,11.129c-39.525,24.997-41.074,25.591-43.633,24.967c-0.937-0.23-1.822-0.892-2.305-1.723     c-0.27-0.467-0.421-0.977-0.46-1.474c-9.882,4.561-17.362,6.52-22.269,5.452c-2.617-0.57-4.658-1.995-5.883-4.124     c-0.515-0.892-1.013-2.347-0.503-4.275c-8.875,4.876-14.091,7.72-14.279,7.829l-0.015-0.036c-1.349,0.686-1.68,0.588-2.592,0.346     c-1.395-0.376-2.42-1.564-2.589-3.002c-0.009-0.061-0.013-0.121-0.016-0.182c-9.736,4.833-15.485,7.635-15.682,7.738     c-1.689,0.818-3.73,0.176-4.639-1.48c-0.91-1.644-0.364-3.711,1.237-4.706c0.091-0.054,1.325-0.813,3.56-2.201     c-1.432-0.733-2.574-1.831-3.381-3.22c-2.141-3.705,1.598-6.756,11.298-13.317c5.709-3.869,13.708-8.957,24.352-15.477     c-0.822-0.655-1.377-1.383-1.744-2.02c-2.292-3.972,2.283-7.684,9.005-12.499c3.933-2.825,9.236-6.324,16.08-10.612     c-0.54-0.37-0.986-0.854-1.313-1.419c-2.089-3.627,1.783-6.61,8.281-11.177c1.895-1.34,4.139-2.862,6.759-4.585     c-0.406-0.303-0.746-0.685-1.004-1.134c-0.946-1.638-0.434-3.729,1.165-4.742l14.309-9.084c-0.673-0.237-1.286-0.686-1.723-1.316     c-1.113-1.595-0.728-3.778,0.861-4.906c0.121-0.085,5.81-4.087,14.609-10.115c-0.955,0.182-1.692,0.182-2.313,0.03     c-1.107-0.272-2.016-0.946-2.568-1.904c-0.946-1.637-0.43-3.727,1.167-4.742l1.81-1.149c-0.188-0.203-0.358-0.431-0.5-0.676     c-1.752-3.035,1.088-4.767,2.965-5.907c1.149-0.701,2.814-1.701,4.882-2.938c6.88-4.127,13.008-7.859,18.472-11.241     l-10.616,6.134c-1.665,0.958-3.784,0.416-4.785-1.219c-0.997-1.638-0.506-3.772,1.104-4.813     c5.816-3.745,11.75-7.662,17.435-11.51l-10.934,6.313c-1.534,0.885-3.484,0.5-4.566-0.904c-1.08-1.401-0.958-3.387,0.288-4.646     c0.537-0.533,1.073-1.079,1.616-1.631c-3.554,1.813-6.522,2.798-8.387,2.432c-1.353-0.261-2.468-1.043-3.129-2.189     c-1.322-2.295-0.313-3.417,3.029-7.138c0.358-0.394,0.819-0.91,1.35-1.498c-16.419,9.934-16.813,9.828-18.606,9.37     c-0.918-0.233-1.746-0.855-2.222-1.68c-1.431-2.459,0.212-3.984,2.286-5.907c0.042-0.033,0.082-0.073,0.125-0.109l-22.071,12.741     c-1.689,0.977-3.848,0.397-4.824-1.292c-0.249-0.431-0.4-0.837-0.479-1.225c-0.215-0.021-0.418-0.076-0.648-0.136     c-0.819-0.207-1.538-0.707-2.022-1.392c-5.691,2.769-7.211,2.432-7.963,2.265c-1.176-0.261-2.144-0.958-2.723-1.965     c-0.731-1.261-0.743-2.271-0.088-3.441c-2.086,0.816-3.581,1-4.813,0.731c-1.261-0.273-2.295-1.019-2.917-2.099     c-0.982-1.698-0.783-3.102,0.788-5.045c-5.701,3.354-11.549,6.813-16.319,9.651c-1.619,0.964-3.712,0.488-4.749-1.085     c-0.958-1.438-0.722-3.333,0.497-4.5c-3.017,1.771-4.087,1.914-5.379,1.619c-1.01-0.23-1.883-0.873-2.398-1.765     c-1.274-2.201-0.619-3.93,3.423-7.923c-0.04-0.009-0.082-0.015-0.122-0.024c-1.094-0.233-2.041-0.916-2.589-1.871     c-0.182-0.315-0.324-0.622-0.424-0.922c-5.667,3.035-6.713,2.781-7.632,2.562c-1.006-0.239-1.847-0.861-2.359-1.746     c-0.907-1.571-0.476-3.578,0.998-4.637c0.349-0.251,0.7-0.503,1.049-0.755c-0.895-0.249-1.662-0.837-2.125-1.644     c-1.28-2.223-0.561-3.074,3.411-7.783c0.251-0.297,0.542-0.643,0.864-1.028c-1.307,0.816-2.62,1.641-3.881,2.438     c-0.81,0.516-1.798,0.676-2.732,0.452c-0.94-0.23-1.737-0.831-2.22-1.665c-0.818-1.425-1.489-2.577,2.896-9.027     c-0.403,0.3-0.8,0.595-1.188,0.886c-1.552,1.167-3.757,0.864-4.933-0.68c-0.779-1.027-0.916-2.344-0.47-3.462     c-0.003,0-0.003,0-0.006,0c-0.919-0.237-1.707-0.834-2.18-1.656c-0.712-1.231-1.376-2.386,1.161-6.007     c-5.282,2.641-6.68,2.329-7.426,2.168c-1.134-0.254-2.071-0.931-2.638-1.907c-0.8-1.392-0.563-3.144,0.573-4.275     c1.089-1.076,2.205-2.195,3.314-3.326c-0.601,0.164-1.237,0.17-1.85,0.003c-0.904-0.242-1.677-0.833-2.144-1.646     c-1.116-1.938-0.497-3.632,1.971-6.686c-5.097,2.535-6.656,2.207-7.398,2.053c-1.222-0.258-2.229-0.971-2.832-2.017     c-1.55-2.665,0.188-4.023,3.344-6.486c1.88-1.467,3.648-2.856,5.309-4.163c-0.452,0.03-0.84-0.027-1.252-0.127     c-0.937-0.228-1.85-0.903-2.335-1.737c-0.785-1.358-0.564-3.026,0.434-4.133c-0.364-0.294-0.673-0.655-0.91-1.064     c-0.097-0.167-0.173-0.333-0.24-0.506c-2.237,0.982-3.544,1.14-4.654,0.879c-1.073-0.258-1.958-0.913-2.501-1.847     c-0.913-1.589-0.464-3.617,1.046-4.664l4.211-2.932c-0.161-0.176-0.309-0.373-0.434-0.582c-0.995-1.656-0.479-3.796,1.155-4.815     l1.804-1.122c-0.267-0.243-0.497-0.528-0.676-0.843c-1.598-2.768,0.967-4.688,1.935-5.409c0.676-0.509,1.683-1.24,2.972-2.156     c2.526-1.801,6.152-4.342,10.513-7.377c2.677-1.862,5.718-3.972,9.118-6.325c-13.451,8.187-23.775,14.285-23.93,14.373     c-1.622,0.958-3.711,0.473-4.745-1.101c-1.034-1.577-0.652-3.681,0.87-4.794c0.085-0.064,3.763-2.744,9.627-6.904     c-0.604-0.343-1.098-0.84-1.45-1.443c-2.041-3.533,0.088-7.022,9.551-13.569c-0.042-0.058-0.079-0.122-0.115-0.185     c-0.604-1.043-0.752-2.298-0.418-3.539c0.779-2.89,4.836-7.071,19.221-16.152c0.294-0.443,0.688-0.825,1.177-1.104     c0.412-0.239,0.852-0.385,1.297-0.442c5.17-3.208,11.522-6.974,19.331-11.447c1.243-0.712,2.128-1.216,2.517-1.449     c0.058-0.04,0.112-0.073,0.17-0.112c1.222-0.815,2.826-0.788,4.021,0.073c0.406,0.291,0.737,0.658,0.982,1.074     c11.477-6.355,12.769-6.034,13.76-5.789c0.928,0.236,1.826,0.9,2.305,1.731c0.9,1.552,0.988,2.993-0.2,4.749     c1.947-1.252,3.881-2.502,5.804-3.754c0.81-0.531,1.801-0.698,2.744-0.473c0.861,0.206,1.607,0.725,2.101,1.446     c3.451-0.94,4.958-0.622,5.986-0.406c2.18,0.461,3.311,1.722,3.875,2.699c0.925,1.601,0.458,3.639-1.067,4.679     c-7.159,4.896-15.067,10.303-23.147,15.843l41.201-23.787c1.668-0.964,3.802-0.416,4.794,1.24     c0.991,1.653,0.476,3.799-1.158,4.818l-73.892,46.065c-0.015,1.101-0.546,2.177-1.516,2.85l-4.491,3.12     c0.176,0.188,0.328,0.394,0.452,0.613c0.376,0.646,0.521,1.364,0.464,2.062c0.164,0.027,0.343,0.067,0.534,0.115     c0.943,0.23,1.768,0.846,2.253,1.683c1.537,2.668,0.646,5.228-6.941,11.055c0.485,1.98-0.967,4.2-7.459,9.891     c0.691,0.294,1.276,0.81,1.662,1.477c1.34,2.326-0.146,3.92-1.865,5.767c-0.9,0.964-2.177,2.308-3.651,3.857     c-0.619,0.651-1.368,1.437-2.192,2.311c0.591-0.155,1.213-0.155,1.81,0.003c0.904,0.242,1.674,0.833,2.144,1.646     c0.876,1.522,1.538,2.665-3.017,8.178c4.048-2.626,8.351-5.525,12.329-8.317c1.528-1.067,3.62-0.767,4.785,0.686     c1.165,1.452,1.003,3.56-0.373,4.818c-2.253,2.062-4.591,4.245-6.856,6.41c7.784-4.47,8.394-4.312,9.567-4.012     c0.918,0.24,1.722,0.846,2.198,1.671c1.656,2.868-0.707,4.9-4.278,7.98c-0.904,0.782-1.974,1.68-3.202,2.696     c0.622,1.24,0.467,2.732-0.409,3.814c-1.355,1.677-2.766,3.457-4.124,5.215c5.688-3.25,6.477-3.057,7.538-2.796     c0.934,0.23,1.786,0.861,2.268,1.695c0.801,1.385,0.895,2.592-0.612,5.121c6.646-3.72,8.235-3.375,9.097-3.187     c1.122,0.246,2.049,0.916,2.61,1.883c0.588,1.025,0.828,2.007,0.439,3.214c0.319-0.009,0.64,0.015,0.961,0.094     c0.94,0.228,1.75,0.831,2.232,1.668c0.391,0.673,0.594,1.304,0.606,1.934c0.203,0.015,0.403,0.042,0.597,0.085     c1.125,0.243,2.056,0.913,2.623,1.892c0.746,1.301,0.892,2.323,0.013,3.787c7.201-4.545,10.485-5.87,12.859-5.33     c1.164,0.267,2.122,0.961,2.698,1.965c0.628,1.085,1.222,2.116-0.154,4.354c4.951-2.668,5.506-2.523,6.413-2.29     c0.916,0.24,1.704,0.843,2.177,1.662c1.074,1.855,0.698,3.614-1.067,5.876c0.913-0.646,1.729-1.228,2.405-1.704     c7.398-5.239,7.693-5.449,9.515-5.048c0.973,0.212,1.828,0.84,2.329,1.701c0.828,1.438,0.546,3.257-0.676,4.376     c-2.85,2.602-5.776,5.303-8.56,7.89c5.767-3.675,12.174-7.969,18.038-12.086c0.813-0.567,1.826-0.767,2.793-0.558     c0.967,0.215,1.801,0.825,2.298,1.686c0.142,0.246,0.254,0.485,0.339,0.719c13.184-7.826,13.754-7.684,15.376-7.265     c0.918,0.236,1.75,0.861,2.226,1.686c0.13,0.23,0.24,0.458,0.318,0.676l0.709-0.406c0.81-0.47,1.777-0.597,2.681-0.355     c0.906,0.243,1.677,0.834,2.144,1.65c1.271,2.198-0.015,3.857-1.665,5.524c5.073-3.017,5.376-2.941,6.634-2.623     c0.919,0.239,1.713,0.84,2.186,1.662c1.343,2.319,0.567,4.754-4.763,11.243c4.578-3.042,9.791-6.801,14.439-10.418     c0.804-0.628,1.847-0.876,2.844-0.683c1.004,0.197,1.874,0.816,2.383,1.701c0.94,1.628,1.583,2.744-3.902,9.215l29.707-17.144     c1.686-0.982,3.848-0.4,4.824,1.292c1.119,1.938,0.63,3.89-1.226,6.225l1.177-0.676c1.686-0.982,3.848-0.397,4.824,1.292     c0.649,1.131,1.019,2.313,0.506,3.888c12.086-7.159,12.856-6.968,14.424-6.568c0.928,0.233,1.795,0.885,2.274,1.71     c0.949,1.641,0.434,3.736-1.167,4.749l-4.46,2.835c0.154,0.176,0.294,0.37,0.412,0.573c0.073,0.13,0.14,0.261,0.197,0.397     c14.357-7.199,17.689-6.465,19.536-6.059c2.065,0.455,3.139,1.655,3.672,2.58c0.734,1.262,0.595,2.796-0.236,3.896     c2.413-1.489,4.785-2.95,7.071-4.369c0.818-0.503,1.795-0.652,2.723-0.421c0.928,0.233,1.716,0.833,2.195,1.662     c1.965,3.402-1.449,5.728-6.18,8.951c-3.317,2.265-8.205,5.379-14.924,9.524c-12.49,7.702-29.434,17.796-47.381,28.478     c-24.082,14.336-54.149,32.25-72.399,43.967c3.848-1.983,8.193-4.312,12.95-6.943c12.856-7.551,26.877-15.658,40.877-23.73     c36.52-21.868,79.804-49.1,112.455-70.195c0.813-0.528,1.802-0.691,2.747-0.464c0.94,0.224,1.747,0.825,2.232,1.665     c2.262,3.921-2.232,7.55-8.824,12.256c-1.522,1.095-3.257,2.287-5.209,3.593c8.417-5.342,15.931-9.809,22.529-13.333     c3.286-2.316,5.13-3.632,5.221-3.699c0.819-0.576,1.832-0.788,2.802-0.576c0.122,0.027,0.237,0.058,0.353,0.097     c9.023-4.145,15.779-5.879,20.242-4.918c2.505,0.537,4.451,1.904,5.634,3.942c0.34,0.594,0.68,1.352,0.88,2.274     c6.853-2.869,8.289-2.504,9.351-2.238c1.128,0.285,2.063,0.974,2.62,1.94c0.357,0.613,0.703,1.559,0.582,2.784     c6.962-4.027,11.043-6.383,11.371-6.577c0.818-0.47,1.776-0.591,2.687-0.355c0.903,0.243,1.674,0.837,2.146,1.646     c0.552,0.958,1.079,2.538,0.467,4.648c-1.74,6.043-15.258,15.979-38.745,29.894c-0.346,0.719-0.939,1.304-1.668,1.65     c-1.946,0.907-3.899,1.825-5.876,2.765c-16.18,9.336-36.277,20.273-59.855,32.842c-6.319,4.408-12.911,9.048-19.676,13.839     c1.073,0.127,2.071,0.739,2.65,1.746c2.025,3.499-1.835,6.525-5.567,9.461c-1.273,0.994-2.805,2.141-4.582,3.426     c0.542,0.353,0.998,0.825,1.325,1.396c1.901,3.299-0.658,5.112-9.151,11.14c-4.324,3.069-10.221,7.12-17.962,12.335     c3.951-2.504,7.887-5.021,11.771-7.52c0.81-0.521,1.804-0.686,2.741-0.461c0.937,0.23,1.747,0.831,2.226,1.668     c0.598,1.031,0.74,2.262,0.409,3.469c-0.452,1.631-2.016,3.518-5.206,6.027c0.27,0.249,0.5,0.534,0.682,0.855     c0.522,0.897,1.019,2.384,0.443,4.385c-0.564,1.959-1.607,5.591-17.141,16.646c-0.024,0.327-0.084,0.655-0.176,0.977     c-0.552,1.946-2.592,4.202-6.422,7.071c0.246,0.782,0.343,1.801-0.003,3.014c-0.479,1.668-1.367,4.803-15.601,14.833     c-0.482,1.996-3.156,3.882-7.759,7.12c-1.249,0.886-2.699,1.886-4.339,3.002c0.143,0.176,0.273,0.37,0.388,0.569     c1.834,3.178-0.273,5.064-9.585,11.813c0.434,0.261,0.822,0.631,1.119,1.092c1.031,1.589,0.618,3.712-0.931,4.803l-28.688,20.249     c0.061,0.085,0.118,0.17,0.173,0.273c1.783,3.087-0.712,5.063-6.747,9.836c-3.284,2.596-7.908,6.119-13.745,10.455     c-4.145,3.087-8.332,6.161-11.804,8.702c-0.221,0.897-0.797,1.711-1.665,2.22c-0.376,0.206-0.767,0.352-1.167,0.425     c-0.837,0.461-2.583,1.589-3.484,2.183C100.746,458.107,99.836,458.702,98.763,458.702z M170.004,367.136     c-2.692,1.589-5.218,3.069-7.586,4.458c2.52-1.462,4.994-2.917,7.426-4.349C169.898,367.209,169.949,367.166,170.004,367.136z      M97.698,368.367c0.185,0.109,0.443,0.206,0.804,0.291c0.303,0.072,0.628,0.115,0.97,0.14c0.037-0.861,0.191-1.808,0.516-2.826     c0.033-0.109,0.067-0.218,0.106-0.333C98.738,366.899,98.041,367.779,97.698,368.367z M60.654,365.59     c1.567,0.103,3.544-0.2,5.867-0.843c10.755-6.616,26.832-16.472,45.962-28.139c-6.098,2.479-10.4,3.76-13.499,4.36     C80.463,352.182,66.173,361.199,60.654,365.59z M131.007,344.874c-11.228,7.962-19.209,14.809-22.666,20.012l81.323-46.95     c10.695-7.416,21.513-15.058,31.987-22.486c-17.175,9.061-34.367,18.156-50.195,26.737     c-13.796,7.769-26.962,15.131-38.854,21.747C132.059,344.249,131.528,344.564,131.007,344.874z M94.345,334.322     c0.616,0.018,1.331-0.024,2.165-0.128c24.276-14.688,56.472-33.499,87.657-51.723c20.386-11.911,42.566-24.87,62.824-36.881     c12.195-8.529,23.302-16.131,33.314-22.699c-2.808,1.765-5.895,3.678-9.278,5.743c-19.764,12.065-46.999,27.766-73.343,42.945     c-2.556,1.474-5.151,2.965-7.765,4.481c-16.78,10.061-29.797,17.574-39.925,23.172C123.83,314.588,101.219,328.36,94.345,334.322     z M162.047,314.733c-5.815,4.1-11.422,8.018-16.795,11.729c1.319-0.685,2.647-1.376,3.976-2.073     c15.643-9.752,36.35-21.717,63.827-36.447c32.933-19.018,66.45-38.381,94.098-54.352c8.981-6.219,15.616-11.313,20.486-15.479     C291.9,237.216,227.297,275.327,162.047,314.733z M224.359,228.241c-7.705,4.512-17.241,10.373-29.045,17.984     c-7.059,4.551-14.021,9.142-20.458,13.444L224.359,228.241z M285.563,230.676c-8.15,5.618-17.326,11.886-27.144,18.508     c44.779-26.125,68.611-38.97,81.59-45.201c0.042-0.112,0.078-0.228,0.109-0.337c0.229-0.755,0.254-1.313,0.054-1.652     c-0.078-0.143-0.23-0.403-1-0.57c-3.481-0.752-9.813,1.313-18.206,5.446c-1.94,2.05-5.318,4.469-10.139,7.741     C304.921,218.62,296.625,223.896,285.563,230.676z M333.727,226.391c0.098,0.024,0.176,0.048,0.261,0.07     c3.087-1.825,5.901-3.529,8.479-5.112C339.694,222.95,336.771,224.636,333.727,226.391z" style="fill:#307360;"/></g></g></g><g id="Layer_1"/></svg>