<?xml version="1.0" ?><!DOCTYPE svg  PUBLIC '-//W3C//DTD SVG 1.1//EN'  'http://www.w3.org/Graphics/SVG/1.1/DTD/svg11.dtd'><svg height="512px" style="enable-background:new 0 0 512 512;" version="1.1" viewBox="0 0 512 512" width="512px" xml:space="preserve" xmlns="http://www.w3.org/2000/svg" xmlns:xlink="http://www.w3.org/1999/xlink"><g id="_x34_3"><g><g><path d="M278.189,219.917c-0.261,0-0.54-0.03-0.831-0.097c-0.964-0.215-1.808-0.837-2.305-1.692     c-1.194-2.062-0.594-3.654,2.129-6.522c-0.194-0.197-0.364-0.422-0.503-0.664c-1.268-2.211-0.262-3.39,2.419-6.541     c1.256-1.486,4.003-4.715,6.24-7.568c-0.097-0.133-0.2-0.276-0.285-0.421c-0.533-0.931-0.69-1.75-0.454-2.656     c-4.045,2.604-4.918,2.929-6.459,2.562c-0.946-0.221-1.789-0.852-2.28-1.695c-1.4-2.435,0.243-4.203,2.529-6.656     c0.346-0.373,0.728-0.779,1.14-1.216c-0.431,0.042-0.849,0.015-1.262-0.073c-1.079-0.23-2.001-0.9-2.547-1.838     c-0.285-0.503-0.461-0.973-0.521-1.422c-0.612,0.063-0.964-0.015-1.285-0.094c-1.031-0.243-1.893-0.876-2.408-1.777     c-1.431-2.462-0.6-4.685,4.422-9.469c-0.479,0.325-0.946,0.643-1.413,0.961c-1.547,1.064-3.663,0.722-4.804-0.771     c-0.722-0.949-0.897-2.146-0.558-3.208c-0.752,0.352-1.607,0.434-2.413,0.215c-0.91-0.243-1.681-0.837-2.147-1.646     c-1.261-2.177-0.818-3.511,3.899-8.563c-1.449,0.982-3.408,0.768-4.603-0.534c-1.219-1.337-1.231-3.381-0.03-4.73     c1.691-1.901,3.426-3.863,5.1-5.764c-1.043-0.267-1.946-0.934-2.48-1.862c-0.982-1.689-0.394-3.848,1.292-4.824     c0.71-0.412,1.511-0.552,2.274-0.437c1.455-0.764,4.379-2.902,6.046-4.124c4.312-3.159,5.762-4.229,7.787-3.796     c0.976,0.203,1.91,0.873,2.419,1.74c1.177,2.059,0.346,3.441-1.928,6.207c1.576-0.479,2.311-0.331,2.795-0.228     c1.171,0.239,2.135,0.928,2.711,1.935c1.273,2.201,0.928,3.369-4.032,8.633l11.188-6.459c1.583-0.916,3.596-0.467,4.651,1.025     c0.595,0.84,0.771,1.853,0.563,2.79c0.85-0.143,1.311-0.042,1.674,0.04c1.092,0.251,1.989,0.91,2.541,1.856     c1.723,2.975,0.237,4.791-8.411,12.001c1.771-1.14,3.536-2.286,5.233-3.408c1.589-1.049,3.736-0.646,4.828,0.916     c1.104,1.556,0.764,3.711-0.759,4.857c-2.389,1.795-4.827,3.645-7.21,5.458c0.066,0.094,0.127,0.185,0.182,0.279     c1.183,2.053,0.928,3.317-3.408,8.117c0.285,0.009,0.546,0.052,0.818,0.119c1.001,0.236,1.862,0.876,2.371,1.752     c1.571,2.72-0.261,5.033-4.79,10.343c0.867,1.843,0.339,3.835-2.96,8.314c0.776,0.282,1.432,0.831,1.844,1.55     c1.668,2.896-0.097,4.542-6.695,10.67c-0.255,0.237-0.533,0.488-0.818,0.758c0.503,1.549-0.127,3.296-1.602,4.145     c-0.357,0.209-0.733,0.343-1.128,0.415c-0.509,0.313-1.31,0.871-1.795,1.204C280.439,219.217,279.433,219.917,278.189,219.917z      M280.264,215.114c0.188,0.313,0.394,0.573,0.624,0.792C280.651,215.679,280.439,215.415,280.264,215.114z" style="fill:#CE2225;"/></g><g><path d="M248.883,221.7c-0.309,0-0.597-0.073-0.982-0.173c-0.916-0.236-1.701-0.834-2.174-1.652     c-0.464-0.807-0.673-1.165-0.294-3.496c-3.693,2.374-4.369,2.735-5.937,2.35c-0.943-0.227-1.762-0.836-2.247-1.673     c-0.133-0.234-0.246-0.458-0.333-0.673c-1.031,0.364-1.601,0.3-2.301,0.125c-0.931-0.23-1.78-0.864-2.256-1.695     c-0.601-1.04-0.622-2.289-0.112-3.329c-0.819-0.273-1.522-0.843-1.956-1.598c-0.643-1.109-0.628-2.483,0.03-3.584l2.583-4.296     c-0.13-0.164-0.249-0.331-0.354-0.513c-0.822-1.431-1.78-3.086,3.484-9.621c-0.819-0.276-1.528-0.852-1.965-1.604     c-0.755-1.313-0.591-2.969,0.416-4.105c1.146-1.295,2.335-2.668,3.499-4.039c-0.261-0.003-0.521-0.036-0.792-0.094     c-0.97-0.212-1.91-0.892-2.407-1.756c-1-1.725-0.889-2.562,1.313-5.324c-0.019-0.003-0.034-0.006-0.049-0.012     c-1.213-0.228-2.268-0.967-2.884-2.038c-0.227-0.395-0.367-0.819-0.434-1.25l-3.614,2.089c-1.692,0.977-3.854,0.394-4.827-1.292     c-1.355-2.35-0.746-4.202,3.308-7.414c-1.031-0.336-1.877-1.013-2.411-1.935c-1.392-2.417-0.157-4.318,3.454-7.383     c-0.055-0.012-0.106-0.024-0.155-0.036c-1.119-0.261-2.041-0.934-2.599-1.896c-1.358-2.353-0.761-4.709,2.659-7.996     c-1.853-3.396,1.834-5.913,5.737-8.569c1.016-0.691,2.162-1.45,3.396-2.25c-0.015-0.021-0.027-0.045-0.042-0.067     c-1.637-2.835-0.13-5.443,7.826-13.299c-0.246-0.233-0.458-0.497-0.625-0.782c-0.767-1.34-0.583-3.023,0.464-4.157     c1.71-1.859,3.514-3.884,5.179-5.816c-0.473-0.306-0.874-0.722-1.159-1.21c-0.973-1.689-0.397-3.848,1.292-4.827     c0.303-0.173,0.619-0.297,0.937-0.376c0.749-0.406,2.386-1.446,3.411-2.098c3.705-2.35,4.369-2.771,5.994-2.377     c0.938,0.23,1.75,0.84,2.229,1.674c0.771,1.328,1.407,2.429-1.697,6.853c0.824,0.267,1.528,0.837,1.965,1.595     c1.14,1.977,0.193,3.575-1.086,4.982c6.271-3.335,7.774-3.002,8.624-2.811c1.122,0.246,2.05,0.919,2.607,1.886     c0.297,0.521,0.509,1.025,0.606,1.528c0.576-0.361,1.17-0.731,1.759-1.104c2.505-1.567,3.026-1.895,4.493-1.525     c0.922,0.233,1.717,0.831,2.201,1.661c1.231,2.135,0.334,3.854-1.516,5.485c0.327,0.237,0.625,0.528,0.861,0.883     c1.098,1.595,0.709,3.778-0.886,4.891c-0.915,0.646-1.837,1.295-2.765,1.947c0.745-0.14,1.352-0.112,1.94,0.021     c1.104,0.252,2.019,0.916,2.571,1.874c2.632,4.558-1.632,8.966-19.618,20.616c0.624,1.428,0.236,3.135-1.013,4.151l-9.3,7.55     c0.707,1.568,0.27,2.99-2.08,6.101c0.825,0.3,1.525,0.879,1.965,1.644c0.688,1.186,1.292,2.231-0.992,5.949     c0.562-0.076,1.062-0.054,1.565,0.061c1.055,0.242,1.938,0.885,2.471,1.813c0.815,1.41,0.561,3.199-0.619,4.321     c-4.484,4.285-9.373,9.33-12.617,13.063c0.185,0.23,0.343,0.488,0.467,0.764c0.358,0.804,0.4,1.704,0.133,2.523     c0.737-0.346,1.574-0.431,2.372-0.23c0.928,0.233,1.719,0.834,2.195,1.665c0.357,0.625,0.585,1.119,0.612,1.65     c3.917-2.414,4.157-2.356,5.506-2.02c0.931,0.236,1.737,0.84,2.216,1.67c1.253,2.177,0.461,4.06-2.429,6.962     c0.285,0.67,0.358,1.413,0.206,2.123c-0.109,0.494-0.215,1.001-0.324,1.513c1.273-0.088,2.55,0.542,3.254,1.713     c1,1.677,0.454,3.845-1.222,4.845C250.976,221.018,249.826,221.7,248.883,221.7z M253.95,104.704     c0.364,0.182,0.703,0.427,0.994,0.73l0,0C254.645,105.116,254.302,104.876,253.95,104.704z" style="fill:#CE2225;"/></g><g><path d="M405.031,184.522c-1.206,0-2.383-0.625-3.044-1.743c-0.982-1.68-0.431-3.845,1.255-4.833     c15.52-9.142,15.52-9.139,17.133-8.711l-0.898,3.414l-3.056,1.768c1.019,1.759,3.11,2.125,4.481,1.458     c-0.88,0.431-7.908,4.524-14.076,8.153C406.263,184.365,405.65,184.522,405.031,184.522z" style="fill:#E24F3F;"/></g><g><path d="M471,438.653c-0.304,0-0.612-0.049-0.916-0.128c-0.903-0.242-1.674-0.836-2.141-1.643     c-0.285-0.492-0.461-0.952-0.533-1.407c-1.389,0.376-2.93-0.121-3.809-1.364c-1.128-1.589-0.758-3.797,0.83-4.925     c14.313-10.182,16.387-9.739,17.751-9.448c1.055,0.23,1.971,0.892,2.498,1.819c0.279,0.479,0.461,0.934,0.54,1.383     c1.528-0.455,3.232,0.176,4.063,1.619c0.976,1.686,0.4,3.845-1.292,4.827l-15.228,8.787     C472.225,438.489,471.618,438.653,471,438.653z" style="fill:#E24F3F;"/></g><g><path d="M457.779,440.934c-0.297,0-0.606-0.055-0.982-0.152c-0.916-0.23-1.704-0.83-2.183-1.655     c-0.321-0.546-0.479-1.152-0.479-1.759c-4.105,2.032-5.021,1.808-5.798,1.619c-1.007-0.236-1.85-0.861-2.358-1.74     c-1.365-2.371,0.036-3.924,1.946-5.415c-9.981,6.046-10.267,5.967-11.765,5.579c-0.928-0.236-1.734-0.843-2.207-1.668     c-0.789-1.364-1.777-3.081,2.589-8.132c-7.204,4.136-7.277,4.13-8.69,3.741l0.91-3.414l3.057-1.771l-3.057,1.771l-1.504-3.189     c1.637-0.831,27.902-16.059,45.148-26.09c1.632-0.945,3.724-0.442,4.749,1.141c1.024,1.595,0.624,3.699-0.922,4.791     c-4.476,3.184-9.133,6.616-13.542,9.976c23.481-14.215,24.222-14.021,26.168-13.529c0.916,0.23,1.783,0.885,2.262,1.71     c1.729,3.008,0.23,5.131-10.061,13.196c0.219,0.212,0.4,0.461,0.552,0.722c1.449,2.504,1.655,2.868-12.953,15.743     c0.248,1.413-0.389,2.898-1.704,3.669c-0.213,0.121-0.443,0.224-0.674,0.297c-0.69,0.376-2.528,1.504-3.675,2.195     C459.629,440.382,458.707,440.934,457.779,440.934z" style="fill:#E24F3F;"/></g><g><path d="M481.625,378.276c-0.249,0-0.504-0.024-0.776-0.085c-0.958-0.219-1.789-0.825-2.286-1.662     c-0.982-1.686-0.425-3.845,1.255-4.839c0.115-0.061,0.219-0.121,0.334-0.176c0.048-0.024,0.078-0.049,0.085-0.055     c1.606-1.098,3.808-0.686,4.905,0.928c1.104,1.607,0.686,3.809-0.922,4.906C483.662,377.682,482.789,378.276,481.625,378.276z" style="fill:#E24F3F;"/></g><g><path d="M474.711,326.22c-0.278,0-0.509-0.066-0.788-0.134l0.909-3.414l3.063-1.759l-3.063,1.759     l-1.491-3.202c0.873-0.442,8.848-5.088,13.663-7.907c1.686-0.989,3.845-0.425,4.839,1.261c0.982,1.681,0.413,3.845-1.261,4.834     C478.18,324.928,475.973,326.22,474.711,326.22z" style="fill:#E24F3F;"/></g><g><path d="M398.167,441.479c-0.346,0-0.667-0.043-0.971-0.115c-1.067-0.255-1.946-0.897-2.48-1.832     c-0.248-0.431-0.431-0.849-0.533-1.279c-3.153,1.292-5.543,1.746-7.313,1.353c-1.347-0.291-2.475-1.037-3.208-2.11     c-4.403,2.122-7.387,2.911-9.364,2.456c-1.315-0.304-2.401-1.086-3.05-2.201c-0.934-1.632-0.437-3.706,1.14-4.73     c11.177-7.266,24.403-15.938,37.617-24.682l-41.498,23.954c-1.662,0.958-3.79,0.412-4.785-1.231     c-1-1.644-0.491-3.784,1.141-4.815c10.164-6.422,21.929-13.924,33.918-21.638c-15.925,9.14-27.744,15.646-27.927,15.75     c-1.691,0.928-3.832,0.321-4.778-1.365c-0.952-1.68-0.37-3.82,1.31-4.791l61.79-35.676c24.961-15.21,44.422-28.309,49.771-34.403     c-3.735,0.854-12.923,4.438-34.883,17.993c-3.129,1.934-6.331,3.947-9.563,6.021l-32.856,21.795     c-4.621,3.154-9.012,6.155-13.021,8.896c-22.929,15.713-23.014,15.701-25.185,15.197c-0.952-0.212-1.819-0.854-2.317-1.704     c-0.928-1.619-0.442-3.681,1.11-4.712l9.575-6.35c-2.286,0.776-3.038,0.595-3.735,0.413c-1.049-0.261-1.91-0.897-2.432-1.808     c-1.747-3.02,1.285-5.027,2.747-5.985c1.092-0.728,2.711-1.74,4.967-3.111c4.196-2.565,10.206-6.125,17.149-10.248     c6.459-3.839,15.204-9.03,24.64-14.73l-46.022,26.573c-1.661,0.959-3.79,0.425-4.784-1.225c-0.995-1.637-0.504-3.766,1.109-4.803     l4.105-2.632l0,0c-1.067-0.352-1.904-1.183-2.262-2.244l-0.928-2.802c-0.716-0.31-1.322-0.837-1.717-1.521     c-0.958-1.698-0.369-3.852,1.334-4.815c0.134-0.085,0.273-0.146,0.413-0.206c0.066-0.049,0.14-0.085,0.2-0.134     c0.448-0.297,1.51-1.001,3.014-0.655c1.194,0.285,2.153,1.165,2.541,2.323l0.352,1.062c7.689-5.404,25.719-17.939,44.537-30.146     c51.237-33.227,58.224-31.711,61.207-31.067c2.074,0.454,3.154,1.661,3.688,2.595c0.946,1.638,0.442,3.718-1.152,4.743     l-0.776,0.491c0.024,0.006,0.049,0.018,0.067,0.023c0.903,0.237,1.68,0.831,2.146,1.644c1.188,2.056,1.134,4.288-2.898,8.388     c0.807,0.218,1.54,0.728,2.025,1.479c0.813,1.273,0.722,2.862-0.128,4.009c0.589,0.012,1.116,0.066,1.595,0.176     c2.189,0.503,3.33,1.782,3.9,2.771c0.49,0.843,0.958,2.237,0.437,4.105c-0.358,1.291-0.94,3.354-6.538,8.29     c0.134,0.151,0.249,0.315,0.346,0.497c1.887,3.257-1.352,5.785-5.105,8.715c-1.177,0.915-2.584,1.977-4.233,3.184l5.683-3.281     c1.68-0.97,3.851-0.395,4.827,1.292c1.516,2.626-0.249,4.597-3.184,6.956c1.68-0.461,3.008-0.57,4.051-0.321     c1.334,0.303,2.426,1.085,3.068,2.207c1.838,3.184-1.194,5.415-4.706,7.993c-0.782,0.576-1.68,1.213-2.698,1.928     c0.146,0.183,0.285,0.376,0.4,0.582c1.049,1.808,0.715,3.36-0.959,5.191c0.298,0.019,0.583,0.055,0.844,0.115     c1.2,0.285,2.195,1.007,2.783,2.031c0.97,1.687,0.4,3.846-1.286,4.821c-28.107,16.319-58.49,36.083-60.68,40.893     c0.127-0.273,0.23-1.104-0.249-1.917l-2.668,1.547l1.655,3.105l-0.151,0.091c-0.807,0.515-1.795,0.679-2.735,0.448     c-0.928-0.225-1.74-0.83-2.213-1.661c-0.425-0.722-0.734-1.468-0.722-2.347C403.71,439.902,400.326,441.479,398.167,441.479z      M416.839,434.645l-0.964,3.39L416.839,434.645z M443.607,336.256c-6.325,3.791-13.852,8.479-22.778,14.27     c-5.597,3.633-11.128,7.29-16.331,10.783L443.607,336.256z" style="fill:#E24F3F;"/></g><g><path d="M474.832,268.354c-0.291,0-0.552-0.066-0.885-0.151c-0.916-0.236-1.692-0.837-2.171-1.649     c-0.977-1.692-0.406-3.852,1.279-4.834c0.182-0.103,0.376-0.188,0.563-0.261c1.104-0.576,5.671-3.274,8.454-4.918     c6.149-3.632,6.149-3.632,7.623-3.238l-0.903,3.414l-3.068,1.75l3.068-1.75l1.553,3.172c-0.389,0.2-2.663,1.546-4.676,2.729     C477.641,267.365,475.973,268.354,474.832,268.354z M474.832,261.246c1.213,0,2.402,0.625,3.051,1.746     c-0.916-1.564-2.698-2.02-4.021-1.612C474.184,261.289,474.511,261.246,474.832,261.246z" style="fill:#E24F3F;"/></g><g><path d="M369.464,380.447c-0.503,0-0.97-0.042-1.383-0.146c-1.395-0.327-2.528-1.152-3.202-2.311     c-0.533-0.934-1.049-2.456-0.46-4.445c0.284-0.958,0.854-1.965,1.71-3.032c-0.977-2.001-0.461-3.911,3.565-7.514     c-0.588-0.455-1.079-1.013-1.468-1.686c-0.976-1.68-0.4-3.833,1.28-4.81c18.314-10.716,37.271-22.08,54.354-32.632     l-54.003,31.177c-1.692,0.977-3.851,0.4-4.827-1.292c-1.704-2.953,0.242-4.408,5.052-7.689c-0.644-0.425-1.177-0.988-1.571-1.655     c-0.939-1.632-0.437-3.712,1.146-4.736l1.4-0.91c-0.867-0.255-1.606-0.837-2.067-1.631c-0.104-0.17-0.188-0.346-0.255-0.516     c-0.431-0.012-0.831-0.066-1.207-0.151c-1.564-0.346-2.832-1.256-3.584-2.56c-0.801-1.376-0.648-2.007,0.552-6.901     c0.176-0.722,0.406-1.686,0.637-2.644c-0.315-0.249-0.582-0.546-0.807-0.892c-1.043-1.644-0.558-3.833,1.086-4.876     c2.22-1.407,3.238-2.056,4.827-1.655c0.946,0.242,1.759,0.855,2.226,1.698c0.922,1.589,0.625,2.972-1.109,10.048     c-0.043,0.2-0.098,0.4-0.146,0.613c1.261-0.358,2.862-1.025,4.748-1.935c2.596-1.844,6.028-4.154,10.225-6.901     c8.848-5.785,21.279-13.615,36.969-23.263c2.158-1.492,4.263-2.954,6.271-4.337c34.572-23.966,45.373-30.752,50.364-29.643     c1.268,0.285,2.305,1.043,2.929,2.117c0.958,1.667,0.406,3.814-1.255,4.797c-2.522,1.51-5.154,3.08-7.859,4.699     c0.467,0.328,0.855,0.746,1.146,1.25c0.327,0.569,0.484,1.2,0.467,1.813c0.097,0.013,0.17,0.031,0.254,0.049     c1.583,0.346,2.887,1.268,3.663,2.596c0.57,1.001,0.606,2.165,0.194,3.147l5.864-3.39c0.818-0.474,1.776-0.595,2.687-0.358     c0.897,0.249,1.674,0.843,2.135,1.649c1.946,3.366,0.2,6.544-13.166,16.18c0.151,0.183,0.291,0.383,0.406,0.601     c0.225,0.376,0.364,0.782,0.431,1.201c4.7-2.305,7.859-3.153,9.922-2.681c1.34,0.31,2.432,1.104,3.086,2.231     c0.54,0.922,1.044,2.438,0.461,4.415c-0.169,0.552-0.431,1.122-0.782,1.716c0.043,0.067,0.091,0.14,0.128,0.213     c0.976,1.686,0.399,3.845-1.292,4.821c-0.576,0.333-1.207,0.479-1.831,0.479c-3.712,1.57-19.249,11.789-34.288,21.681     C403.34,365.159,378.519,380.447,369.464,380.447z M478.01,307.299c-3.462,1.923-7.713,4.524-12.383,7.508     C470.496,312.065,474.771,309.506,478.01,307.299z" style="fill:#E24F3F;"/></g><g><path d="M474.832,218.138c-1.206,0-2.377-0.619-3.038-1.731c-1-1.677-0.448-3.842,1.231-4.839     c14.948-8.891,14.955-8.887,16.646-8.445c0.916,0.233,1.704,0.831,2.171,1.644c0.982,1.686,0.406,3.851-1.273,4.83     c-0.188,0.109-0.382,0.2-0.582,0.27c-1.31,0.676-7.671,4.4-13.354,7.774C476.069,217.974,475.445,218.138,474.832,218.138z      M485.736,208.319c0.909,1.559,2.687,2.022,4.002,1.628C488.229,210.366,486.567,209.738,485.736,208.319z" style="fill:#E24F3F;"/></g><g><path d="M368.542,322.775c-0.813,0-1.37-0.128-1.819-0.225c-1.559-0.346-2.819-1.231-3.547-2.498     c-0.553-0.959-0.686-2.093-0.377-3.202c0.225-0.831,0.51-1.844,3.039-4.143c-0.461-1.03-0.771-2.517-0.225-4.366     c0.279-0.934,0.801-1.929,1.553-2.972c-0.946-2.534,1.516-4.153,2.747-4.973c0.873-0.582,2.165-1.419,3.814-2.48     c3.263-2.098,7.914-5.069,13.433-8.593c9.781-6.252,24.948-15.932,39.709-25.507c-2.917,1.729-5.979,3.548-9.193,5.439     c-14.857,9.212-30.443,19.17-43.663,27.836c-0.819,0.54-1.819,0.709-2.754,0.485c-0.945-0.225-1.765-0.831-2.249-1.668     c-2.269-3.924,2.001-6.847,11.091-12.56c6.562-4.13,15.889-9.581,25.774-15.367c2.426-1.419,5.094-2.983,7.92-4.633     c1.315-0.819,2.626-1.638,3.953-2.456c10.486-6.474,18.945-11.547,25.792-15.51c10.376-6.538,19.479-12.72,23.991-16.914     c-1.322,0.564-2.856,1.273-4.579,2.131c-8.162,5.695-18.605,12.544-31.177,20.425c-27.174,17.041-55.271,33.294-55.556,33.457     c-1.638,0.94-3.748,0.419-4.761-1.188c-0.854-1.37-0.661-3.099,0.376-4.245c-7.071,3.105-8.763,2.711-9.976,2.414     c-1.237-0.291-2.244-1.031-2.844-2.068c-0.861-1.485-1.031-3.189-0.492-4.937c0.243-0.806,0.674-1.637,1.274-2.498     c-0.2-1.759,0.976-3.948,3.899-8.472c-0.771-1.644-0.158-3.633,1.437-4.555l3.093-1.789c1.692-0.973,3.846-0.397,4.828,1.289     c0.539,0.931,0.654,1.658,0.412,2.514c5.694-3.499,12.911-7.387,21.492-11.75c3.614-2.238,7.319-4.539,11.007-6.825     c61.116-37.948,76.217-46.408,80.802-45.268c1.079,0.27,1.958,0.931,2.498,1.861c0.818,1.41,0.977,3.036,0.473,4.691     c-0.539,1.734-1.922,3.584-4.208,5.637c-0.109,2.893-3.002,6.395-9.745,11.813c0.418,0.34,0.77,0.746,1.036,1.21     c1.479,2.571,0.771,5.491-2.741,9.363l0,0c1.183,0.282,2.153,0.989,2.729,1.992c2.02,3.5-1.364,5.895-9.527,11.689     c-3.317,2.353-7.641,5.315-12.917,8.845c0.315-0.17,0.643-0.333,0.958-0.503c3.645-2.471,7.041-4.794,10.109-6.886     c18.533-12.641,18.533-12.647,20.51-12.198c0.964,0.218,1.808,0.84,2.299,1.692c0.612,1.061,0.758,2.326,0.388,3.554     c-0.425,1.446-1.698,3.017-4.094,4.924c0.019,0.024,0.03,0.051,0.049,0.079c0.467,0.819,0.595,1.795,0.346,2.708     c-0.255,0.913-0.861,1.686-1.692,2.144c-2.152,1.201-4.312,2.408-6.482,3.624c0.236,0.224,0.442,0.488,0.612,0.776     c0.115,0.206,0.219,0.427,0.297,0.649l8.012-4.63c1.691-0.973,3.851-0.394,4.827,1.298c0.977,1.686,0.394,3.848-1.292,4.821     l-65.452,37.79c-21.729,13.863-34.913,21.146-43.094,24.9c-2.723,1.565-4.306,2.469-4.372,2.499     c-0.85,0.497-1.819,0.576-2.705,0.333C371.181,322.557,369.628,322.775,368.542,322.775z M448.707,269.245     c-30.667,17.623-58.66,34.464-71.717,43.646l23.475-13.548c9.127-5.343,18.036-10.606,26.271-15.562     C433.85,279.172,441.248,274.284,448.707,269.245z M398.428,255.357c-12.172,7.532-19.946,12.274-25.016,15.228     c8.896-4.427,22.529-12.271,38.448-21.922C407.257,250.925,402.728,253.165,398.428,255.357z" style="fill:#E24F3F;"/></g><g><path d="M446.421,184.58c-0.279,0-0.533-0.069-0.867-0.157l0.922-3.411l3.081-1.735l-3.081,1.735     l-1.559-3.166c0.782-0.409,9.248-5.324,14.396-8.323c1.687-0.985,3.852-0.412,4.834,1.273c0.982,1.683,0.412,3.848-1.274,4.827     c0,0-3.638,2.12-7.283,4.233C448.926,183.725,447.452,184.58,446.421,184.58z" style="fill:#E24F3F;"/></g><g><path d="M371.017,266.17c-0.765,0-1.279-0.115-1.71-0.212c-1.492-0.333-2.699-1.194-3.408-2.42     c-0.946-1.625-0.437-3.711,1.146-4.729l1.85-1.198c-1.11-0.567-1.771-1.379-2.159-2.043c-1.808-3.126,0.879-5.085,5.324-8.324     c1.479-1.082,3.354-2.404,5.598-3.951c-0.952-0.6-1.553-1.355-1.923-1.995c-1.067-1.847-0.824-3.639,0.697-5.664     c-4.166,2.571-8.168,5.051-11.91,7.386c-0.818,0.506-1.801,0.661-2.729,0.431c-0.922-0.236-1.723-0.834-2.201-1.662     c-0.455-0.789-0.898-2.092-0.425-3.817c0.31-1.113,0.764-2.762,4.839-6.495c-0.109-0.136-0.206-0.282-0.291-0.431     c-1.686-2.911,0.534-4.445,3.899-6.765c1.844-1.277,4.487-3.072,7.647-5.218c4.372-2.959,11.171-7.565,18.369-12.565     c-5.725,3.441-11.65,7.038-17.381,10.549c-0.879,0.537-1.953,0.664-2.929,0.346c-0.989-0.321-1.777-1.055-2.178-2.007     l-2.256-5.437c-1.819,1.013-2.207,0.991-3.305,0.694l0.916-3.412l1.019-0.582l-1.019,0.579l-1.498-3.193     c0.357-0.182,2.152-1.243,2.917-1.698c2.492-1.477,4.396-1.292,5.621,0.561c0.134,0.188,0.243,0.392,0.328,0.604l2.219,5.361     c50.074-30.592,51.833-30.134,53.543-29.704c0.922,0.233,1.771,0.867,2.244,1.695c1.74,3.011-0.698,5.922-4.197,9.063     c1.292-0.746,2.535-1.461,3.724-2.141c3.693-2.132,6.78-3.899,8.951-5.134c0.903-0.515,1.729-0.985,2.474-1.367     c0.601-0.337,0.94-0.524,0.959-0.537l0.042,0.064c2.093-0.907,3.536-0.834,4.736,1.243c0.382,0.655,0.54,1.407,0.461,2.153     c13.827-7.535,15.307-7.171,16.684-6.829c1.019,0.258,1.867,0.889,2.377,1.78c1.037,1.792,1.073,3.484-0.903,5.85     c5.997-3.821,9.715-6.18,9.817-6.244c1.613-1.016,3.736-0.585,4.804,0.982c1.073,1.571,0.722,3.708-0.807,4.836     c-0.098,0.07-4.058,2.996-10.328,7.508l8.902-5.737c1.613-1.034,3.767-0.598,4.84,0.991c1.073,1.592,0.686,3.754-0.886,4.864     c-0.079,0.055-2.613,1.85-6.87,4.806c0.648,0.243,1.23,0.679,1.655,1.289c1.115,1.601,0.722,3.799-0.874,4.918     c-0.236,0.161-23.614,16.453-48.181,32.196C386.414,262.859,375.141,266.17,371.017,266.17z M394.043,240.742     c-2.966,1.978-5.707,3.812-8.175,5.479c1.194-0.601,2.432-1.249,3.729-1.94l8.424-5.422     C396.584,239.572,395.262,240.197,394.043,240.742z M419.393,215.685c-12.457,7.265-26.769,15.722-33.555,20.789     c1.194-0.388,2.675-0.952,4.506-1.759C398.118,229.542,407.852,223.165,419.393,215.685z" style="fill:#E24F3F;"/></g><g><path d="M366.983,209.375c-1.085,0-2.152-0.5-2.85-1.44c-0.977-1.322-0.892-3.105,0.103-4.324     c-1.061-0.13-2.056-0.743-2.632-1.744c-1.4-2.422-0.685-3.772,5.707-10.616c-0.4-0.082-0.782-0.23-1.134-0.449     c-1.244-0.755-1.893-2.186-1.65-3.611c0.461-2.699,0.946-5.619,1.28-7.705c-0.073-0.097-0.134-0.197-0.194-0.297     c-0.971-1.692-0.395-3.851,1.298-4.827c0.127-0.076,0.261-0.143,0.394-0.2c0.564-0.439,1.571-1.085,2.984-0.846     c1.043,0.169,1.977,0.815,2.498,1.731c0.516,0.889,0.686,1.18,0.115,4.916c7.302-4.831,9.066-4.469,10.122-4.257     c1.115,0.23,2.086,0.919,2.644,1.889c1.249,2.165,0.916,3.305-3.839,8.521l20.219-11.674c1.619-0.931,3.669-0.452,4.7,1.092     c0.036,0.055,0.072,0.106,0.103,0.161c12.894-7.359,15.319-6.825,16.932-6.471c1.28,0.285,2.329,1.034,2.954,2.114     c0.977,1.692,0.4,3.851-1.292,4.827c-1.092,0.631-2.384,0.609-3.433,0.058c-5.87,1.137-31.613,17.435-53.002,32.508     C368.396,209.162,367.682,209.375,366.983,209.375z" style="fill:#E24F3F;"/></g><g><path d="M426.627,176.873c-0.151,0-0.304-0.009-0.461-0.034c-1.086-0.142-2.038-0.776-2.59-1.722     c-0.369-0.64-0.563-1.161-0.546-1.725c-1.861,1.028-2.777,1.207-3.93,0.928c-0.939-0.224-1.795-0.861-2.28-1.698     c-0.964-1.677-0.86-3.22,0.977-5.603c-0.903-0.294-1.649-0.898-2.129-1.722c-1.019-1.765-0.806-3.108,1.122-5.355     c-2.989,1.673-3.432,1.564-4.56,1.283c-0.922-0.233-1.729-0.846-2.208-1.668c-0.17-0.294-0.303-0.582-0.412-0.867     c-0.315-0.006-0.606-0.045-0.886-0.109c-1.115-0.257-2.031-0.931-2.583-1.892c-0.88-1.522-0.51-3.463,0.879-4.545l1.273-1.004     c-0.892-0.246-1.667-0.846-2.128-1.646c-0.291-0.507-0.449-1.059-0.474-1.607c-0.994,0.27-1.413,0.167-1.819,0.067     c-0.934-0.23-1.801-0.882-2.273-1.708c-0.564-0.97-0.698-1.84-0.449-2.713c-2.322,1.231-3.42,1.358-4.578,1.098     c-1.031-0.234-1.923-0.889-2.444-1.792c-0.066-0.119-0.128-0.24-0.194-0.358c-0.612,0.058-1.14,0.015-1.619-0.097     c-1.176-0.273-2.146-0.979-2.729-1.992c-0.54-0.925-0.606-2.007-0.273-2.953c-0.922-0.234-1.783-0.876-2.262-1.701     c-0.873-1.522-0.497-3.457,0.879-4.545l2.384-1.874c-0.716-0.336-1.304-0.876-1.704-1.567c-0.764-1.322-1.855-3.22,2.766-8.521     c-0.14-0.021-0.285-0.051-0.438-0.085c-0.951-0.221-1.855-0.876-2.347-1.728c-0.885-1.525-0.509-3.463,0.88-4.548     c1.358-1.067,2.741-2.168,4.13-3.284c-1.789,0.874-2.808,0.989-3.863,0.746c-1.013-0.233-1.892-0.879-2.407-1.771     c-0.91-1.571-0.54-2.844,0.339-4.03c-0.394,0-0.697-0.027-1.036-0.097c-1.256-0.258-2.293-0.998-2.924-2.089     c-0.23-0.394-0.376-0.819-0.437-1.249l-4.954,2.856c-0.819,0.47-1.777,0.598-2.687,0.355c-0.897-0.243-1.674-0.834-2.141-1.646     c-1.195-2.071-0.831-3.542,2.08-6.268c-0.158-0.015-0.321-0.045-0.474-0.079c-1.128-0.252-2.056-0.925-2.619-1.901     c-1.262-2.18-0.262-3.848,2.219-6.325c-0.394,0-0.697-0.055-0.945-0.112c-1.05-0.242-1.917-0.879-2.438-1.795     c-1.194-2.056-0.86-3.957,1.723-6.652c-0.128-0.146-0.23-0.303-0.334-0.464c-1.746-3.026,1.183-5.328,3.53-7.171     c1.164-0.916,2.602-1.986,4.178-3.138c-1.322-2.35-0.388-4.427,5.076-12.247c-0.104-0.125-0.188-0.249-0.261-0.382     c-0.734-1.271-0.601-2.863,0.321-3.997c1.389-1.698,2.851-3.554,4.196-5.315c-0.473-0.306-0.873-0.722-1.158-1.216     c-0.977-1.686-0.4-3.848,1.286-4.824c0.248-0.146,0.503-0.255,0.775-0.333c0.631-0.349,2.032-1.225,2.911-1.774     c3.329-2.077,3.93-2.45,5.501-2.053c0.934,0.233,1.74,0.846,2.207,1.68c0.971,1.677,1.668,2.887-5.016,11.701     c0.91,1.667,0.553,2.632-1.643,5.816c2.564-1.192,3.45-0.998,4.153-0.849c1.067,0.23,1.983,0.891,2.523,1.819     c0.278,0.5,0.467,0.976,0.552,1.453c0.151-0.091,0.297-0.188,0.455-0.282c1.552-0.967,2.334-1.453,3.783-1.098     c0.935,0.228,1.734,0.831,2.22,1.665c1.607,2.79-0.606,4.827-3.014,6.598c0.212,0.179,0.412,0.385,0.595,0.619     c1.121,1.498,0.879,3.617-0.546,4.824c-1.104,0.925-2.22,1.868-3.323,2.811c0.412-0.03,0.807,0.006,1.206,0.094     c1.031,0.233,1.929,0.885,2.45,1.798c0.904,1.556,0.818,3.09-0.357,4.955l6.265-3.617c1.601-0.928,3.645-0.455,4.693,1.08     c1.037,1.534,0.716,3.611-0.746,4.757l-3.087,2.429c0.17,0.197,0.328,0.41,0.455,0.637c0.606,1.052,0.831,1.953,0.346,3.15     c3.16-1.783,4.549-2.043,5.943-1.725c1.055,0.242,1.94,0.888,2.475,1.819c0.521,0.892,1.036,1.795,0.333,3.517     c4.154-2.265,6.58-2.947,8.394-2.532c1.17,0.267,2.135,0.977,2.723,1.986c0.928,1.604,0.461,3.653-1.08,4.69     c-7.416,5.021-15.281,10.68-21.837,15.743c2.553-1.652,5.366-3.499,8.436-5.537c4.767-3.168,4.767-3.166,6.307-2.802     c1.322,0.309,2.353,1.349,2.644,2.674c0.152,0.686,0.092,1.38-0.146,2.01c1.141-0.697,2.269-1.404,3.396-2.101     c0.813-0.503,1.795-0.658,2.723-0.425c0.922,0.23,1.717,0.831,2.201,1.659c0.285,0.491,0.468,0.946,0.546,1.379     c5.586-3.517,6.423-3.554,7.89-3.211c0.952,0.219,1.844,0.883,2.341,1.726c1.067,1.858,0.989,3.647-1.164,6.116     c0.521,1.137,0.4,2.444-0.272,3.454c0.697-0.306,1.491-0.367,2.243-0.182c0.928,0.233,1.723,0.834,2.201,1.662     c1.39,2.419,0.438,3.827-3.28,6.755c0.14,0.146,0.272,0.3,0.388,0.473c0.819,1.192,0.813,2.717,0.085,3.884     c0.243,0.015,0.491,0.061,0.752,0.121c0.952,0.228,1.802,0.855,2.293,1.701c0.946,1.646,0.424,3.748-1.183,4.761     c-2.802,1.75-5.688,3.593-8.533,5.442c0.092,0.115,0.17,0.24,0.249,0.367c0.958,1.665,0.807,3.202-0.733,5.37     c0.679-0.291,1.437-0.367,2.177-0.203c0.964,0.215,1.795,0.828,2.286,1.68c1.547,2.677-0.686,4.633-2.48,6.21     c-1.158,1.025-2.802,2.404-4.651,3.954c-0.697,0.588-1.528,1.289-2.438,2.05c0.285,0.254,0.533,0.549,0.722,0.879     c1.177,2.047,0.686,2.954-3.329,9.458c0.369,1.483-0.268,3.09-1.662,3.893c-0.303,0.182-0.631,0.31-0.964,0.385     c-0.03,0.037-0.073,0.07-0.104,0.1C428.452,176.509,427.561,176.873,426.627,176.873z M393.03,40.576     c0.297,0.133,0.588,0.306,0.843,0.516c0.012,0,0.012,0,0.012-0.003C393.612,40.87,393.321,40.7,393.03,40.576z" style="fill:#E24F3F;"/></g><g><path d="M109.039,160.517c-0.328,0-0.613-0.07-0.955-0.155c-0.934-0.23-1.753-0.843-2.232-1.677     c-1.219-2.123-0.255-3.348,2.086-6.316c1.355-1.722,4.664-5.928,6.71-8.911c-0.379-0.794-0.455-1.534-0.23-2.365     c-3.96,2.565-4.779,2.88-6.328,2.517c-0.946-0.225-1.792-0.849-2.277-1.692c-1.389-2.405,0.203-4.154,2.405-6.571     c0.43-0.473,0.918-1,1.449-1.57c-0.336,0.009-0.658-0.021-0.985-0.091c-1.07-0.228-1.989-0.897-2.532-1.832     c-0.307-0.534-0.482-1.031-0.54-1.504c-0.53,0.055-0.861-0.021-1.158-0.094c-1.022-0.243-1.874-0.87-2.393-1.765     c-1.404-2.435-0.604-4.618,4.288-9.357c-0.37,0.251-0.734,0.497-1.095,0.746c-1.549,1.059-3.654,0.719-4.797-0.767     c-0.725-0.946-0.903-2.156-0.564-3.22c-0.743,0.337-1.583,0.41-2.377,0.197c-0.904-0.243-1.677-0.84-2.141-1.649     c-1.237-2.141-0.819-3.445,3.714-8.454c-1.431,0.952-3.35,0.736-4.533-0.537c-1.228-1.316-1.271-3.341-0.097-4.706     c1.662-1.938,3.366-3.938,5.006-5.873c-0.977-0.288-1.811-0.937-2.317-1.813c-0.979-1.692-0.397-3.851,1.292-4.827     c0.697-0.403,1.479-0.54,2.223-0.442c1.325-0.722,3.887-2.614,5.357-3.703c4.012-2.962,5.364-3.963,7.362-3.544     c0.982,0.203,1.913,0.873,2.417,1.747c1.176,2.035,0.297,3.478-1.856,6.188c1.604-0.497,2.334-0.349,2.823-0.249     c1.162,0.24,2.123,0.922,2.699,1.925c1.25,2.165,0.919,3.308-3.842,8.518l10.901-6.289c1.58-0.913,3.596-0.473,4.646,1.013     c0.627,0.882,0.794,1.962,0.537,2.944c0.74-0.109,1.146-0.019,1.474,0.061c1.085,0.246,1.977,0.9,2.52,1.837     c1.68,2.914,0.291,4.688-7.887,11.646c1.541-0.991,3.072-1.986,4.563-2.968c1.586-1.046,3.717-0.646,4.821,0.906     c1.101,1.556,0.773,3.696-0.737,4.854c-2.362,1.805-4.779,3.663-7.132,5.485c0.052,0.076,0.097,0.152,0.146,0.233     c1.225,2.123,0.907,3.381-3.902,8.727c0.118,0.015,0.239,0.042,0.361,0.07c0.946,0.227,1.871,0.906,2.359,1.749     c1.516,2.623-0.2,4.876-4.336,10.316c-0.228,0.3-0.476,0.63-0.734,0.973c0.503,1.859-0.482,4.166-4.211,9.294     c0.324,0.245,0.612,0.558,0.84,0.918c1.043,1.649,0.552,3.836-1.098,4.876C111.926,159.628,110.206,160.517,109.039,160.517z" style="fill:#CE2225;"/></g><g><path d="M75.854,165.714c-0.297,0-0.597-0.048-0.955-0.143c-0.928-0.23-1.729-0.833-2.204-1.658     c-0.143-0.249-0.258-0.479-0.343-0.704c-1.152,0.464-1.701,0.406-2.465,0.209c-0.925-0.234-1.744-0.849-2.219-1.677     c-0.522-0.898-0.613-1.974-0.276-2.933c-0.03-0.009-0.066-0.015-0.103-0.027c-0.925-0.23-1.728-0.84-2.204-1.665     c-0.531-0.918-0.619-2.028-0.243-3.02l1.953-5.151c-0.794-1.383-1.568-2.969,3.05-9.209c-0.849-0.27-1.592-0.858-2.038-1.628     c-0.704-1.219-0.616-2.735,0.221-3.866c0.989-1.334,2.017-2.763,3.005-4.169c-0.109-0.015-0.221-0.033-0.336-0.058     c-0.979-0.206-1.925-0.891-2.426-1.762c-0.916-1.577-0.803-2.392,0.898-4.979c-0.067-0.006-0.128-0.018-0.188-0.03     c-1.219-0.215-2.277-0.955-2.896-2.025c-0.228-0.397-0.373-0.825-0.437-1.255l-3.945,2.277c-0.81,0.464-1.771,0.591-2.68,0.349     c-0.904-0.243-1.677-0.834-2.141-1.644c-1.337-2.316-0.761-4.139,3.141-7.268c-1.058-0.324-1.925-1.01-2.471-1.95     c-1.374-2.38-0.194-4.254,3.287-7.238c-0.085-0.015-0.161-0.033-0.23-0.048c-1.116-0.258-2.035-0.931-2.593-1.892     c-1.337-2.323-0.764-4.646,2.571-7.881c-1.901-3.402,1.744-5.897,5.601-8.539c0.989-0.676,2.095-1.413,3.29-2.192     c-0.015-0.027-0.03-0.048-0.045-0.076c-1.595-2.762-0.197-5.303,7.283-12.826c-0.291-0.255-0.543-0.555-0.731-0.879     c-0.773-1.337-0.585-3.023,0.461-4.16c1.689-1.837,3.478-3.845,5.122-5.761c-0.479-0.306-0.882-0.725-1.17-1.219     c-0.979-1.692-0.397-3.848,1.292-4.824c0.303-0.179,0.619-0.3,0.94-0.382c0.752-0.406,2.396-1.453,3.433-2.11     c3.717-2.362,4.387-2.787,6.013-2.387c0.937,0.23,1.75,0.84,2.229,1.674c0.761,1.319,1.398,2.417-1.655,6.789     c0.843,0.264,1.562,0.837,2.004,1.607c1.152,1.999,0.167,3.611-1.116,5.031c6.255-3.342,7.756-3.008,8.603-2.82     c1.119,0.249,2.041,0.919,2.599,1.883c0.303,0.524,0.509,1.028,0.604,1.531c0.591-0.37,1.194-0.749,1.807-1.131     c2.502-1.567,3.023-1.892,4.488-1.525c0.925,0.233,1.722,0.833,2.199,1.662c1.258,2.18,0.312,3.915-1.61,5.57     c0.318,0.23,0.604,0.519,0.843,0.861c1.095,1.598,0.707,3.775-0.873,4.891c-0.949,0.67-1.907,1.346-2.869,2.028     c0.731-0.136,1.334-0.109,1.914,0.021c1.101,0.251,2.007,0.913,2.562,1.868c2.681,4.645-1.85,9.118-20.983,21.489     c0.567,1.389,0.207,3.026-0.982,4.033l-8.708,7.414c0.558,1.401,0.146,2.756-1.777,5.776c0.807,0.303,1.492,0.879,1.926,1.628     c0.643,1.116,1.186,2.056-0.673,5.615c0.779-0.203,1.425-0.203,2.083-0.055c1.034,0.237,1.925,0.889,2.447,1.795     c0.782,1.349,0.582,3.053-0.488,4.193c-4.424,4.685-9.336,10.373-11.801,13.772c0.321,0.77,0.358,1.634,0.106,2.435     c0.021-0.015,0.048-0.03,0.072-0.045c0.816-0.5,1.795-0.646,2.717-0.416c0.925,0.234,1.717,0.831,2.192,1.656     c0.37,0.64,0.625,1.085,0.601,1.704c4.418-2.699,4.569-2.666,5.967-2.308c0.928,0.233,1.719,0.84,2.195,1.665     c1.207,2.089,0.409,3.948-2.208,6.811c0.704,1.622,0.094,3.554-1.477,4.46c-0.279,0.161-0.567,0.282-0.867,0.357     c-0.773,0.418-2.604,1.562-3.639,2.208C77.801,165.132,76.861,165.714,75.854,165.714z M85.03,54.09     c0.367,0.179,0.706,0.424,0.994,0.737c0,0,0.003,0,0.003-0.003C85.73,54.506,85.388,54.263,85.03,54.09z" style="fill:#CE2225;"/></g><g><path d="M59.769,429.023c-0.583,0-0.982-0.104-1.337-0.183c-1.216-0.285-2.21-1.013-2.802-2.031     c-0.509-0.886-0.597-1.893-0.321-2.802c-0.676-0.291-1.268-0.795-1.665-1.474c-0.127-0.225-0.236-0.449-0.327-0.661     c-6.389,3.129-10.534,4.312-12.972,3.742c-1.361-0.322-2.474-1.129-3.129-2.269c-0.946-1.638-0.43-3.729,1.165-4.742     c1.725-1.104,3.484-2.22,5.267-3.354c-1.292-0.389-2.341-1.195-2.986-2.316c-0.513-0.886-0.64-1.923-0.358-2.93     c0.243-0.867,0.773-1.71,2.213-2.911c-14.327,7.908-15.318,7.647-16.556,7.332c-0.916-0.236-1.756-0.867-2.226-1.691     c-0.491-0.844-0.609-1.856-0.324-2.784c0.282-0.939,0.937-1.716,1.81-2.146c0.097-0.042,2.82-1.401,7.429-3.735     c-0.622,0.042-1.155,0-1.607-0.109c-1.216-0.297-2.21-1.031-2.802-2.063c-0.273-0.467-0.452-0.976-0.54-1.504     c-2.598,1.092-3.578,1.098-4.394,0.886c-0.918-0.242-1.804-0.903-2.277-1.729c-1.995-3.45,1.094-6.155,9.782-12.438     c0.267-0.194,0.54-0.389,0.813-0.589c-1.943-0.461-2.959-1.606-3.469-2.492c-1.992-3.45,1.798-6.355,5.813-9.442     c0.44-0.339,0.904-0.691,1.401-1.062c-0.027,0-0.052-0.006-0.079-0.012c-0.952-0.225-1.771-0.831-2.259-1.68     c-0.5-0.861-0.977-2.292-0.418-4.196c0.024-0.104,0.058-0.2,0.091-0.31c-0.23-0.255-0.44-0.527-0.613-0.831     c-0.476-0.831-0.603-1.892-0.336-2.813c0.273-0.952,0.437-1.528,2.884-3.129c-0.743-0.315-1.353-0.855-1.759-1.553     c-0.616-1.073-1.204-2.856-0.497-5.276c0.182-0.643,0.482-1.322,0.891-2.05c-0.8,0.54-1.786,0.734-2.726,0.527     c-0.974-0.212-1.813-0.824-2.308-1.686c-1.786-3.093,1.095-5.185,3.972-7.192c-2.65,1.007-4.418,1.286-5.619,0.995     c-1.137-0.279-2.08-0.977-2.647-1.953c-0.525-0.91-1.034-2.42-0.473-4.421c0.391-1.395,1.361-2.966,2.923-4.73     c-0.036-0.066-0.076-0.133-0.109-0.188c-0.594-1.031-0.737-2.25-0.397-3.444c0.255-0.91,0.834-1.874,1.853-2.979     c-0.188-0.023-0.358-0.055-0.531-0.097c-0.922-0.242-1.792-0.886-2.265-1.716c-0.416-0.716-0.819-1.844-0.552-3.323     c-0.331-0.346-0.582-0.698-0.767-1.02c-0.946-1.644-0.431-3.741,1.173-4.754l4.73-2.983c-0.861-0.262-1.638-0.874-2.089-1.65     c-0.667-1.158-0.606-2.553,0.051-3.62c-0.612-0.34-1.119-0.831-1.474-1.443c-0.743-1.285-0.685-2.511-0.118-3.687     c-0.106-0.013-0.2-0.031-0.3-0.055c-1.243-0.273-2.262-1.013-2.877-2.074c-0.421-0.728-0.579-1.559-0.461-2.39     c-0.646-0.527-1.085-1.104-1.376-1.619c-0.967-1.668-0.406-3.814,1.258-4.797c0.236-0.146,0.473-0.285,0.716-0.431     c-0.516-0.321-0.943-0.77-1.252-1.298c-0.949-1.649-0.431-3.741,1.17-4.754l5.694-3.603c-0.73-0.406-1.331-0.982-1.74-1.698     c-0.64-1.104-1.247-2.953-0.507-5.464c0.643-2.165,2.502-4.761,5.334-7.684c-0.473-0.824-0.591-1.801-0.333-2.717     c0.257-0.916,0.876-1.686,1.716-2.141c3.902-2.119,7.823-4.267,11.734-6.428c-3.93,1.898-6.237,2.444-7.759,2.086     c-1.14-0.273-2.077-0.961-2.638-1.938c-1.176-2.035-0.712-3.472,1.716-5.464c-1.125-0.476-2.041-1.273-2.638-2.308     c-0.228-0.4-0.373-0.822-0.437-1.252l-3.518,2.035c-0.815,0.464-1.776,0.591-2.683,0.352c-0.904-0.246-1.677-0.837-2.144-1.649     c-0.549-0.946-0.688-2.071-0.388-3.166c0.309-1.134,1.167-2.329,2.965-3.869c-0.958-0.409-1.741-1.088-2.256-1.983     c-1.149-1.989-0.804-3.536,2.101-6.228c-0.124-0.024-0.246-0.048-0.361-0.076c-1.195-0.279-2.18-0.992-2.768-2.007     c-0.652-1.131-0.807-2.493-0.443-3.836c0.197-0.715,0.57-1.471,1.128-2.274c-0.103-0.136-0.203-0.282-0.288-0.431     c-1.98-3.432,1.407-5.977,6.067-9.018c-0.042-0.067-0.085-0.13-0.125-0.2c-1.17-2.025-0.903-3.887,2.602-7.717     c-0.306-0.009-0.537-0.064-0.746-0.112c-1.031-0.243-1.889-0.874-2.408-1.777c-0.837-1.44-0.542-3.271,0.694-4.388     c0.701-0.634,1.413-1.279,2.132-1.94c-0.379,0.015-0.728-0.024-1.083-0.109c-1.013-0.233-1.895-0.879-2.405-1.771     c-0.979-1.692-0.4-3.854,1.292-4.827c0.582-0.337,1.234-0.479,1.855-0.473c1.701-0.822,5.919-3.648,8.536-5.4     c7.177-4.809,8.417-5.598,10.422-5.13c0.952,0.221,1.837,0.873,2.329,1.719c0.87,1.507,0.828,2.959-0.676,5.249     c1.404-0.913,2.796-1.828,4.151-2.732c0.813-0.537,1.813-0.719,2.763-0.494c0.952,0.221,1.765,0.825,2.253,1.67     c0.815,1.416,0.594,2.626-0.109,3.729c13.593-8.074,15.749-7.589,17.266-7.247c1.17,0.264,2.137,0.961,2.717,1.965     c0.354,0.612,0.573,1.207,0.633,1.816c2.295-1.431,4.682-2.929,7.168-4.494c3.523-2.214,3.729-2.344,5.206-1.974     c0.928,0.233,1.722,0.828,2.201,1.659c0.358,0.622,0.525,1.313,0.498,2.02c0.579-0.376,0.895-0.585,0.916-0.601     c1.628-1.055,3.803-0.606,4.876,1.013c0.637,0.958,0.74,2.11,0.388,3.117c4.066-2.168,6.337-2.744,8.026-2.365     c1.174,0.267,2.138,0.97,2.72,1.977c0.491,0.855,0.971,2.259,0.473,4.109c-0.042,0.148-0.094,0.303-0.148,0.458l16.343-9.436     c1.665-0.964,3.791-0.421,4.788,1.225c0.352,0.585,0.519,1.228,0.509,1.862c1.131,0.306,2.059,1.006,2.626,1.998     c0.251,0.431,0.44,0.87,0.542,1.325c5.264-2.62,8.391-3.46,10.349-2.993c1.219,0.288,2.22,1.019,2.817,2.056     c0.167,0.285,0.331,0.637,0.455,1.043c3.356-1.128,5.991-1.516,7.862-1.085c2.092,0.482,3.189,1.716,3.735,2.668     c0.482,0.84,0.604,1.841,0.331,2.769c-0.279,0.928-0.918,1.704-1.78,2.144c-0.212,0.106-13.976,7.153-32.454,17.171     c-8.769,6.037-21.07,13.891-38.369,24.188c-12.932,7.699-25.834,15.07-36.01,20.792c-5.233,3.451-9.163,5.961-12.177,7.75     c-6.564,5.143-9.363,8.26-10.54,10.061c5.4-1.668,16.965-7.816,34.603-18.375l74.131-46.887c3.809-2.468,6.176-3.984,7.729-4.888     l1.076-0.679l0.04,0.061c1.522-0.789,1.929-0.688,2.668-0.515c0.946,0.227,1.759,0.833,2.241,1.673     c0.516,0.895,0.597,1.922,0.309,2.835c0.761-0.397,1.65-0.507,2.49-0.294c0.931,0.23,1.728,0.831,2.205,1.662     c0.146,0.246,0.257,0.491,0.346,0.731c2.344-1.028,3.702-1.204,4.803-0.952c1.106,0.251,2.02,0.922,2.574,1.877     c0.555,0.967,1.095,2.565,0.476,4.691c-0.47,1.613-1.758,3.475-3.778,5.558c-0.288,0.664-0.779,1.246-1.453,1.641     c-0.091,0.055-0.188,0.112-0.279,0.167c0.346-0.021,0.694,0.015,1.037,0.1c0.931,0.23,1.725,0.831,2.204,1.662     c1.652,2.859-0.494,4.948-4.236,7.653c0.1,0.125,0.197,0.258,0.282,0.397c0.755,1.222,0.673,2.732-0.088,3.845     c0.148,0.021,0.291,0.045,0.434,0.082c1.034,0.243,1.896,0.874,2.42,1.78c0.479,0.834,0.601,1.825,0.331,2.753     c-0.267,0.922-0.901,1.701-1.759,2.147c-2.732,1.425-5.479,2.869-8.223,4.312c0.343,0.282,0.63,0.612,0.84,0.979     c0.54,0.928,1.058,2.468,0.485,4.497c-0.034,0.137-0.079,0.273-0.128,0.41c0.5-0.346,0.998-0.694,1.498-1.04     c0.81-0.561,1.816-0.758,2.784-0.543c0.964,0.218,1.795,0.825,2.286,1.683c0.509,0.876,0.637,1.901,0.355,2.896     c-0.37,1.328-1.201,2.469-5.837,5.422c0.843,0.327,1.537,0.909,1.989,1.691c1.24,2.159,0.418,4.228-1.646,6.453     c0.048,0.012,0.1,0.024,0.148,0.03c2.207,0.485,3.351,1.765,3.92,2.747c0.479,0.831,0.604,1.825,0.333,2.753     c-0.27,0.922-0.903,1.698-1.759,2.141c-0.306,0.158-31.155,16.302-61.708,34.264c-36.704,21.583-51.298,32.984-57.068,38.776     c19.988-10.425,75.347-43.67,111.105-65.599c0.815-0.497,1.792-0.655,2.717-0.412c0.925,0.229,1.713,0.83,2.189,1.649     c0.321,0.563,0.637,1.315,0.737,2.262c3.299-1.729,5.206-2.723,5.282-2.76l0.024,0.055c1.182-0.637,1.562-0.545,2.401-0.352     c1.443,0.334,2.52,1.528,2.705,2.996c0.176,1.431-0.531,2.82-1.78,3.523c-0.403,0.255-2.029,1.34-4.084,2.705     c0.306,0.291,0.57,0.624,0.785,1c0.961,1.662,0.416,3.79-1.231,4.785c-39.173,23.693-98.422,60.432-120.708,76.198     c3.645-1.655,8.108-3.947,13.235-6.768c19.23-12.56,43.318-27.72,62.763-39.952c11.365-7.156,22.32-14.045,29.061-18.399     c2.38-1.631,4.751-3.274,7.107-4.912c0.813-0.563,1.828-0.764,2.79-0.546c0.964,0.213,1.795,0.825,2.286,1.687     c1.734,2.995-0.922,4.79-3.735,6.683c-1.255,0.843-2.944,1.94-5.122,3.354c-5.989,4.094-14.964,10.17-25.316,17.041     c37.147-22.269,37.466-22.189,39.461-21.668c0.916,0.242,1.726,0.849,2.198,1.674c0.473,0.813,0.604,1.874,0.355,2.783     c-0.233,0.843-0.397,1.438-2.338,2.869c0.516,0.314,0.958,0.752,1.258,1.273c0.646,1.115,1.252,2.983,0.491,5.506     c-0.276,0.916-0.773,1.91-1.474,2.96c0.055,0.078,0.106,0.163,0.155,0.242c0.588,1.031,1.161,2.723,0.528,4.997     c-0.385,1.37-1.268,2.893-2.605,4.536c0.361,0.315,0.67,0.691,0.916,1.116c1.646,2.855-0.991,4.76-2.262,5.676     c-0.882,0.637-2.198,1.553-3.884,2.687c-0.976,0.667-2.101,1.413-3.372,2.256c0.027,0.013,0.055,0.019,0.082,0.019     c1.052,0.255,1.925,0.892,2.456,1.813c1.089,1.886,0.731,3.517-1.361,5.609c0.516-0.104,1.043-0.079,1.559,0.061     c0.904,0.236,1.677,0.831,2.147,1.644c0.573,0.994,0.667,1.897,0.431,2.753c0.688,0.304,1.264,0.818,1.643,1.468     c0.455,0.794,0.897,2.092,0.424,3.826c-0.303,1.098-0.758,2.741-4.803,6.453c0.07,0.091,0.13,0.188,0.188,0.291     c0.94,1.619,0.446,3.687-1.122,4.718c-0.485,0.315-0.974,0.643-1.471,0.964c0.267,0.268,0.497,0.57,0.685,0.898     c0.982,1.691,0.846,3.116-1.083,5.221c0.998,0.03,1.974,0.479,2.644,1.311c1.162,1.437,1.028,3.523-0.315,4.79l-7.359,6.962     c1.589-1.03,3.163-2.074,4.694-3.093c0.813-0.539,1.816-0.722,2.765-0.503c0.949,0.225,1.765,0.831,2.253,1.68     c0.194,0.327,0.331,0.661,0.425,0.977l2.401-1.383c0.813-0.473,1.777-0.595,2.681-0.357c0.903,0.248,1.677,0.843,2.141,1.649     c2.031,3.511-0.41,5.275-12.147,13.747c-1.013,0.734-2.159,1.565-3.357,2.438c0.012,0.024,0.027,0.049,0.04,0.073     c0.977,1.68,0.397,3.844-1.292,4.82c-0.385,0.219-0.798,0.364-1.207,0.431c-0.746,0.467-2.123,1.462-3.181,2.226     c-5.021,3.639-7.344,5.24-9.728,4.725c-1.076-0.23-2.004-0.897-2.547-1.838c-0.567-0.982-0.749-1.94-0.5-2.959l-4.275,2.468     c-0.81,0.467-1.777,0.601-2.681,0.352c-0.907-0.236-1.677-0.83-2.144-1.644c-0.84-1.455-0.897-2.808-0.094-4.299     c-0.185-0.2-0.349-0.425-0.491-0.668c-0.715-1.249-0.604-2.777,0.237-3.893c-20.916,12.856-23.794,12.201-25.589,11.801     c-1.216-0.267-2.213-0.988-2.811-2.02c-1.334-2.316-0.434-3.675,2.538-5.912c-9.221,6.155-9.384,6.119-11.019,5.736     c-0.895-0.206-1.683-0.764-2.177-1.521c-1.446,0.357-2.596,0.412-3.539,0.199c-1.279-0.297-2.334-1.055-2.965-2.146     c-0.082-0.146-0.158-0.303-0.221-0.461C66.076,427.877,61.804,429.023,59.769,429.023z M47.949,389.525     c-1.534,1.025-2.965,1.989-4.275,2.911c14.87-7.708,40.816-23.748,62.791-37.581C78.326,371.727,60.005,382.588,47.949,389.525z      M153.664,333.406c-3.727,2.311-8.111,5.069-12.748,7.999c3.76-2.238,7.45-4.439,11.049-6.593     C152.575,334.322,153.136,333.854,153.664,333.406z M91.382,266.334c-5.185,3.184-10.237,6.307-15.055,9.309     c6.495-3.826,13.354-7.92,20.37-12.141C94.948,264.442,93.178,265.376,91.382,266.334z M129.494,267.438     c-3.114,1.855-6.398,3.814-9.782,5.847c2.766-1.607,5.431-3.19,7.969-4.73C128.299,268.178,128.906,267.802,129.494,267.438z" style="fill:#F0604E;"/></g><g><path d="M242.513,435.839c-0.406,0-0.694-0.078-0.979-0.151c-1.019-0.248-1.865-0.879-2.38-1.776     c-0.47-0.813-0.597-1.789-0.346-2.699c0.252-0.915,0.855-1.68,1.68-2.141c2.338-1.31,4.682-2.638,7.028-3.972     c-4.354,1.655-5.712,1.34-6.722,1.109c-1.268-0.291-2.308-1.037-2.92-2.11c-0.555-0.952-0.691-1.776-0.485-2.541     c-0.397,0.019-0.661-0.049-0.955-0.115c-0.916-0.242-1.725-0.861-2.198-1.68c-0.94-1.619-0.443-3.699,1.131-4.73l11.531-7.514     c-0.558-0.4-1.025-0.903-1.364-1.504c-1.225-2.116-1.062-4.147,1.938-7.198c-0.913-0.23-1.729-0.831-2.216-1.717     c-0.931-1.686-0.343-3.808,1.328-4.766l0.563-0.328c-0.646,0.104-1.006,0.013-1.389-0.091c-0.922-0.23-1.792-0.886-2.268-1.704     c-0.534-0.922-0.667-1.783-0.476-2.632c-1.474,0.54-2.277,0.521-3.056,0.333c-1.013-0.248-1.853-0.873-2.365-1.765     c-0.63-1.085-0.782-2.389-0.418-3.669c0.125-0.454,0.337-0.922,0.631-1.412c-0.655-0.31-1.204-0.807-1.568-1.438     c-0.54-0.94-0.679-2.056-0.388-3.142c0.531-1.965,2.763-4.172,8.685-8.078c-1.229,0.049-2.42-0.563-3.105-1.673     c-1.019-1.65-0.512-3.815,1.128-4.852c4.033-2.529,8.39-5.282,12.929-8.176l-14.621,8.448c-1.692,0.977-3.848,0.388-4.821-1.292     c-0.513-0.885-0.64-1.916-0.358-2.917c0.264-0.946,0.813-1.801,2.499-3.104c-0.773-0.431-1.41-1.056-1.853-1.819     c-1.789-3.105,1.21-5.434,4.388-7.914c0.097-0.073,0.197-0.151,0.291-0.23l-0.825,0.479c-0.815,0.467-1.776,0.6-2.68,0.352     c-0.91-0.236-1.677-0.831-2.147-1.644c-0.491-0.85-0.964-2.256-0.437-4.13c0.403-1.438,1.095-3.918,9.084-10.358     c-0.355-0.831-0.391-1.564-0.127-2.268c-1.971,1.268-3.902,2.511-5.779,3.718c-1.628,1.061-3.802,0.6-4.867-1.014     c-1.07-1.625-0.627-3.796,0.986-4.881c4.5-3.015,9.299-6.241,14.26-9.576c-1.222,0.395-2.059,0.406-2.805,0.236     c-1.061-0.255-1.938-0.897-2.468-1.819c-0.583-1.007-0.731-2.213-0.406-3.402c0.349-1.273,1.373-2.68,3.329-4.433     c-0.012-0.024-0.027-0.043-0.04-0.066c-1.816-3.154,0.925-4.821,4.724-7.126c2.29-1.395,5.592-3.348,9.549-5.683     c12.092-7.144,43.506-25.7,57.727-36.829c-7.466,4.639-17.604,10.352-30.655,17.569c-2.693,1.491-5.592,3.099-8.515,4.729     c-6.034,4.033-12.808,8.636-20.431,13.906c-7.599,5.251-7.596,5.251-9.206,4.894c-0.961-0.219-1.792-0.824-2.289-1.68     c-0.313-0.546-0.494-1.152-0.546-1.777c-3.951,2.129-5.273,2.269-6.571,1.959c-1.025-0.242-1.883-0.879-2.401-1.783     c-1.516-2.619-0.267-4.39,4.521-7.805c-0.261-0.023-0.513-0.055-0.746-0.108c-1.379-0.298-2.514-1.116-3.193-2.28     c-0.333-0.576-0.506-1.135-0.54-1.656c-1.219-0.346-2.214-1.098-2.817-2.135c-1.513-2.632-0.664-5.421,3.838-9.6     c-1.07-0.036-2.107-0.57-2.768-1.516c-0.897-1.292-0.816-2.978,0.091-4.16c-0.185-0.024-0.37-0.055-0.552-0.098     c-0.904-0.248-1.677-0.843-2.147-1.649c-1.995-3.46,1.649-6.325,7.69-11.064c2.617-2.053,5.792-4.445,9.16-6.946     c-5.282,3.565-10.722,7.377-15.846,11.106c-1.531,1.116-3.681,0.819-4.852-0.673c-1.177-1.495-0.958-3.651,0.491-4.879     c0.146-0.124,0.297-0.251,0.443-0.379c-3.53,1.834-5.707,2.377-7.369,2.001c-1.186-0.27-2.165-0.982-2.753-2.004     c-0.977-1.689-0.397-3.848,1.292-4.824c0.958-0.555,2.064-0.609,3.023-0.243c3.727-1.183,15.458-9.203,22.62-14.097     c13.887-9.491,15.561-10.41,17.902-9.879c1.013,0.23,1.893,0.876,2.407,1.765c0.552,0.952,0.716,1.759,0.468,2.608     c9.526-5.228,11.765-4.749,13.147-4.454c1.346,0.285,2.438,1.061,3.086,2.186c1.893,3.271-1.121,5.794-6.731,10.188l28.139-16.25     c1.401-0.803,3.123-0.555,4.233,0.525c8.192-3.796,10.442-3.305,11.855-2.996c1.486,0.318,2.687,1.167,3.384,2.383     c2.269,3.933-1.85,7.244-11.134,13.357c-6.677,4.399-15.864,9.937-25.598,15.801c-13.505,8.135-32.199,19.399-41.517,26.495     c0.509-0.236,1.04-0.491,1.589-0.764c1.346-0.91,2.838-1.904,4.463-2.979c7.493-4.936,18.036-11.637,31.334-19.912     c22.614-14.069,45.695-28.026,45.926-28.166c1.637-0.982,3.76-0.494,4.797,1.113c1.031,1.607,0.6,3.745-0.977,4.824     c-0.055,0.039-1.644,1.131-4.372,2.978c0.236,0.258,0.448,0.54,0.624,0.852c0.982,1.689,1.043,3.181-1.098,5.588     c0.825-0.109,1.51-0.088,2.093,0.048c1.206,0.288,2.201,1.016,2.789,2.043c0.655,1.137,0.819,2.505,0.442,3.851     c-0.363,1.298-1.321,2.71-2.929,4.315c0.061,0.085,0.115,0.173,0.164,0.267c1.34,2.316,1.109,4.918-2.571,8.979     c0.601,0.306,1.098,0.782,1.443,1.376c0.546,0.949,0.686,2.077,0.382,3.169c-0.049,0.203-0.121,0.403-0.212,0.609     c0.6,0.376,1.098,0.892,1.461,1.511c1.698,2.947-0.479,4.523-4.809,7.659c-0.843,0.618-1.844,1.328-2.984,2.134     c1.165-0.212,1.741-0.072,2.263,0.055c1.116,0.268,2.031,0.935,2.583,1.898c0.564,0.977,0.831,1.947,0.576,3.063     c0.164,0.019,0.31,0.061,0.461,0.098c0.928,0.236,1.808,0.897,2.286,1.722c0.479,0.825,0.601,1.808,0.346,2.723     c-0.261,0.916-0.873,1.692-1.704,2.147c-21.553,11.765-43.809,24.791-60.729,35.609l58.097-33.535     c1.662-0.959,3.784-0.425,4.785,1.219c0.776,1.268,0.648,2.844-0.194,3.966c1.789-0.595,3.129-0.716,4.221-0.467     c1.262,0.278,2.299,1.024,2.917,2.104c0.546,0.939,1.067,2.492,0.491,4.542c-0.521,1.85-2.062,3.966-4.506,6.337     c0.655,1.577,0.236,3.021-2.183,5.355c0.648-0.115,1.013-0.024,1.406,0.078c0.922,0.236,1.765,0.867,2.244,1.692     c0.491,0.861,0.977,2.274,0.479,4.147c-0.504,1.844-2.111,3.979-4.749,6.44c0.479,0.298,0.88,0.722,1.171,1.22     c0.654,1.134,0.807,2.492,0.431,3.826c-0.449,1.583-1.802,3.336-4.154,5.392c0.03,0.061,0.072,0.115,0.109,0.176     c0.843,1.468,0.552,2.674-0.109,3.62c0.546-0.121,1.115-0.121,1.667,0.019c0.929,0.236,1.711,0.83,2.184,1.661     c0.455,0.789,0.903,2.025,0.643,3.65c1.522-0.454,3.227,0.177,4.058,1.626c1.407,2.438,0.977,4.676-3.797,8.653     c0.631,0.249,1.201,0.686,1.613,1.298c1.08,1.589,0.691,3.748-0.873,4.864c-0.049,0.042-1.474,1.049-3.911,2.753     c0.745,0.261,1.406,0.771,1.855,1.492c0.691,1.121,0.679,2.486,0.078,3.56c0.929,0.23,1.729,0.83,2.214,1.674     c0.497,0.867,0.982,2.305,0.455,4.232c-0.243,0.861-0.758,1.832-1.534,2.899c0.327-0.2,0.648-0.4,0.97-0.601     c1.656-1.037,3.833-0.527,4.87,1.128c1.031,1.661,0.527,3.833-1.134,4.863c-0.219,0.146-23.039,14.385-46.162,28.29     C252.51,432.898,245.111,435.839,242.513,435.839z M286.146,381.934c-9.909,5.785-20.297,11.982-27.041,16.592     c2.435-1.177,5.264-2.681,8.411-4.445L286.146,381.934z M328.129,301.646c-6.519,3.846-15.815,10.104-24.646,16.156     c2.529-1.492,4.997-2.966,7.368-4.421C319.379,308.136,324.752,304.346,328.129,301.646z M300.009,231.058     c-4.396,2.547-9.303,5.531-14.536,8.827C290.209,237.031,295.285,233.972,300.009,231.058z" style="fill:#E97C7D;"/></g><g><path d="M287.141,479.212c-0.4,0-0.771-0.043-1.122-0.115c-1.249-0.279-2.28-1.019-2.893-2.093     c-1.517-2.613-0.612-5.252,4.063-9.551l-15.282,8.817c-1.686,0.977-3.845,0.4-4.82-1.292c-0.661-1.134-0.819-2.498-0.443-3.839     c0.055-0.2,0.134-0.406,0.219-0.606c-0.14-0.157-0.255-0.333-0.364-0.521c-0.352-0.606-0.497-1.273-0.467-1.935     c-19.573,11.159-22.833,10.425-24.622,10.024c-1.337-0.309-2.429-1.085-3.071-2.201c-1.228-2.122-0.155-3.711,1.231-4.906     c-7.875,5.161-8.241,5.076-9.715,4.73c-0.792-0.182-1.5-0.637-2.001-1.273c-1.398,0.291-2.553,0.327-3.484,0.115     c-1.377-0.321-2.508-1.134-3.181-2.286c-13.469,6.768-15.989,6.173-17.542,5.815c-1.292-0.31-2.35-1.067-2.972-2.146     c-0.973-1.686-0.4-3.845,1.283-4.821c0.646-0.376,1.295-0.752,1.959-1.14c-0.294-0.255-0.546-0.553-0.746-0.904     c-0.264-0.448-0.458-0.897-0.573-1.358c-2.553,0.776-4.487,0.977-5.892,0.649c-1.419-0.334-2.574-1.171-3.253-2.348     c-0.864-1.498-0.518-3.408,0.819-4.499c2.401-1.965,5.106-4.19,7.911-6.495c-0.67-0.346-1.225-0.873-1.607-1.541     c-1.186-2.043-0.603-3.099,2.48-7.125c-11.516,6.786-11.844,6.701-13.317,6.319c-0.916-0.237-1.698-0.85-2.171-1.662     c-0.873-1.516-0.509-3.438,0.861-4.53c2.283-1.813,4.66-3.777,6.928-5.719c-0.697-0.309-1.313-0.849-1.692-1.504     c-0.397-0.679-0.615-1.304-0.597-1.977c-2.957,1.601-3.375,1.492-4.348,1.243c-0.916-0.243-1.701-0.843-2.174-1.655     c-1.322-2.299-0.254-3.748,3.717-9.14c1.25-1.691,2.702-3.62,4.13-5.494c-0.282-0.255-0.524-0.563-0.722-0.892     c-1.109-1.922-1.407-2.438,5.443-11.462c-0.221-0.212-0.409-0.46-0.567-0.739c-0.773-1.334-0.719-2.59,0.17-4.16     c-0.455-0.315-0.843-0.716-1.104-1.177c-0.779-1.347-0.515-2.25,0.125-4.427c0.179-0.619,0.516-1.765,0.807-2.838     c-0.049-0.079-0.1-0.152-0.146-0.23c-0.573-0.995-1.201-2.087,0.879-7.684c-0.112,0.085-0.221,0.17-0.333,0.254     c-0.807,0.607-1.838,0.844-2.829,0.637c-0.995-0.199-1.85-0.813-2.359-1.691c-0.988-1.717-0.922-2.031,1.989-7.429     c-1.904,1.079-2.823,1.268-4,0.977c-0.943-0.225-1.792-0.861-2.277-1.692c-1.247-2.159-0.652-4.039,3.241-8.296     c-0.364-0.285-0.673-0.637-0.907-1.05c-1.013-1.752-0.6-3.001,1.328-6.464c-0.143-0.024-0.291-0.055-0.449-0.091     c-0.928-0.23-1.744-0.85-2.223-1.68c-0.627-1.092-0.746-2.099-0.291-3.227c-0.416-0.304-0.776-0.686-1.019-1.116     c-0.779-1.346-0.585-3.057,0.485-4.185l4.06-4.317c-0.288-0.249-0.54-0.552-0.73-0.88c-0.67-1.164-0.616-2.57,0.072-3.662     c-0.621-0.31-1.149-0.801-1.498-1.401c-0.764-1.322-0.852-2.311,0.224-4.009c-0.409,0.043-0.788-0.006-1.219-0.103     c-0.949-0.225-1.813-0.861-2.301-1.71c-0.561-0.971-0.628-1.844-0.4-2.62c-0.591-0.334-1.116-0.825-1.437-1.383     c-0.825-1.425-0.555-3.232,0.648-4.348c0.373-0.346,0.746-0.698,1.119-1.044c-0.425-0.303-0.785-0.685-1.046-1.14     c-0.722-1.255-0.613-2.813,0.282-3.948l4.821-6.143c-0.919-1.583-1.935-3.506,5.664-12.141c-0.325-0.273-0.601-0.595-0.813-0.959     c-0.633-1.104-0.627-2.468,0.024-3.565c1.237-2.093,2.56-4.439,3.669-6.501c-0.4-0.297-0.74-0.667-0.982-1.08     c-0.524-0.915-0.519-1.115-0.442-4.391c0.015-0.673,0.039-1.68,0.055-2.625c-0.186-0.213-0.361-0.467-0.531-0.759     c-0.228-0.394-0.37-0.818-0.434-1.249l-3.521,2.031c-1.686,0.977-3.848,0.4-4.824-1.291c-1.21-2.099-0.524-3.506,2.477-7.308     c-0.909-0.273-1.68-0.892-2.159-1.717c-1.037-1.788-0.864-2.929,2.013-6.458c-0.264-0.013-0.479-0.066-0.694-0.115     c-0.949-0.23-1.855-0.892-2.344-1.734c-0.655-1.141-0.813-2.505-0.442-3.857c0.194-0.715,0.563-1.461,1.119-2.262     c-0.1-0.137-0.197-0.279-0.282-0.425c-1.971-3.417,1.392-5.979,6.064-9.021c-0.042-0.063-0.079-0.13-0.118-0.197     c-1.18-2.043-0.913-3.923,2.632-7.753c-0.282-0.015-0.497-0.067-0.704-0.118c-1.034-0.24-1.886-0.871-2.41-1.774     c-0.84-1.458-0.534-3.308,0.73-4.418c0.819-0.725,1.659-1.468,2.496-2.22c-0.318,0-0.622-0.04-0.925-0.112     c-1.019-0.234-1.901-0.886-2.417-1.777c-0.977-1.691-0.395-3.854,1.292-4.824c0.597-0.346,1.243-0.497,1.889-0.473     c1.737-0.837,6.076-3.742,8.766-5.549c7.32-4.912,8.596-5.716,10.606-5.243c0.952,0.221,1.84,0.873,2.329,1.722     c0.679,1.17,1.307,2.262-0.74,5.288c1.425-0.925,2.841-1.855,4.218-2.771c0.816-0.54,1.813-0.719,2.762-0.497     c0.952,0.224,1.765,0.831,2.25,1.674c0.8,1.389,0.631,2.556-0.033,3.632c13.499-7.981,15.661-7.499,17.18-7.156     c1.18,0.267,2.144,0.967,2.729,1.971c0.352,0.609,0.57,1.207,0.634,1.813c2.286-1.425,4.657-2.914,7.125-4.463     c3.629-2.28,3.772-2.368,5.24-2.004c0.928,0.23,1.723,0.831,2.207,1.662c0.504,0.876,0.637,1.91,0.358,2.911     c-0.728,2.666-3.563,4.545-25.31,16.774c-0.664,0.367-1.346,0.755-2.059,1.155c-10.892,6.695-19,11.528-25.07,15.003     c1.043,1.355,0.97,3.269-0.197,4.542c-2.038,2.22-4.148,4.552-6.113,6.741c0.449,0.309,0.831,0.715,1.095,1.17     c0.867,1.498,0.704,2.984-0.388,4.985l1.765-1.025c1.455-0.837,3.299-0.539,4.415,0.722c1.113,1.262,1.18,3.13,0.17,4.47     l-5.789,7.653c0.024,0.503,0.027,1.146,0.021,1.995c0.249-0.006,0.494,0.019,0.758,0.066c1.092,0.188,2.032,0.85,2.586,1.813     c0.573,0.982,1.049,1.813-0.306,5.131c1.498-0.729,2.489-0.855,3.544-0.619c1.031,0.236,1.919,0.886,2.441,1.795     c0.813,1.407,0.558,3.19-0.618,4.313c-4.197,4.015-8.742,8.696-11.959,12.335c0.327,0.345,0.588,0.752,0.758,1.219     c0.285,0.764,0.288,1.589,0.033,2.341c0.67-0.255,1.413-0.297,2.12-0.121c0.928,0.23,1.719,0.83,2.195,1.661     c0.333,0.576,0.503,1.11,0.534,1.613c3.235-1.978,3.681-1.946,4.945-1.638c0.94,0.23,1.762,0.85,2.241,1.687     c1.315,2.268,0.685,4.214-3.214,7.641c0.452,1.256,0.164,2.669-0.782,3.657c-0.243,0.242-0.485,0.497-0.731,0.752     c0.249,0.006,0.5,0.048,0.746,0.109c0.922,0.23,1.713,0.83,2.195,1.649c1.437,2.492-0.246,4.172-2.799,6.707     c-0.382,0.376-0.797,0.788-1.24,1.219c0.831,1.219,0.81,2.832-0.045,4.026c0.2,0.03,0.413,0.079,0.646,0.134     c0.943,0.23,1.765,0.837,2.25,1.68c0.879,1.522,0.494,3.481-0.901,4.555c-2.529,1.958-5.236,4.13-7.659,6.131     c0.564,1.358,0.276,2.79-0.786,4.997c0.813-0.54,1.616-1.092,2.381-1.625c0.813-0.559,1.819-0.765,2.789-0.546     c0.964,0.218,1.795,0.824,2.292,1.68c1.456,2.522,0.516,3.523-4.83,8.696c0.549,0.315,1.019,0.771,1.334,1.316     c0.919,1.588,0.819,2.589-1.646,7.35c0.691-0.121,1.128-0.03,1.507,0.049c1.082,0.224,2.016,0.885,2.556,1.831     c0.585,1.007,0.631,2.237,0.134,3.28c-1.656,3.463-3.438,7.593-4.382,10.194c0.021,0.03,0.042,0.067,0.064,0.098     c0.497,0.861,0.652,1.698,0.437,3.147c1.301-0.825,2.872-1.855,4.785-3.142c0.725-0.485,1.716-1.158,3.208-0.807     c1.28,0.291,2.29,1.262,2.623,2.529c0.34,1.261-0.049,2.607-1.01,3.499c-1.355,1.255-2.78,2.619-4.139,3.947     c0.058,0.079,0.112,0.17,0.164,0.255c0.718,1.243,0.609,2.796-0.273,3.936c-1.816,2.329-3.708,4.791-5.418,7.054     c0.403,0.284,0.746,0.66,1,1.098c1.186,2.062,0.076,3.547-1.337,5.421c-0.704,0.94-1.695,2.231-2.817,3.712     c-0.261,0.346-0.549,0.722-0.855,1.121c8.803-5.215,8.827-5.215,10.325-4.814c0.913,0.236,1.692,0.831,2.165,1.644     c1.14,1.977,0.818,2.959-1.868,5.621c0.503,0.31,0.928,0.74,1.228,1.262c0.576,1.001,1.213,2.099-0.112,4.524     c0.449-0.061,0.91-0.031,1.361,0.084c0.91,0.237,1.692,0.831,2.165,1.65c1.01,1.746,0.77,3.469-1.252,6.731     c9.312-6.568,11.568-7.944,14.012-7.399c1.062,0.23,1.977,0.892,2.517,1.826c1.489,2.571-0.51,4.312-2.117,5.706     c-0.897,0.776-2.195,1.874-3.75,3.185c-3.09,2.589-7.226,6.016-11.365,9.441c-0.821,0.674-1.64,1.353-2.453,2.02     c0.976-0.533,1.992-1.098,3.035-1.691c7.574-5.137,19.057-12.195,36.128-22.274c9.572-6.18,18.976-12.378,26.854-17.569     c39.752-26.21,46.276-30.024,49.849-29.193c1.062,0.255,1.946,0.91,2.48,1.831c1.2,2.093,0.272,3.984-1.237,5.586     c1.383-0.2,2.832,0.437,3.578,1.728c0.558,0.977,0.667,1.887,0.437,2.76c0.686,0.303,1.262,0.813,1.638,1.474     c0.509,0.867,0.994,2.322,0.442,4.257c-0.333,1.141-0.825,2.869-4.548,6.453c0.83,1.625,0.303,3.633-1.262,4.608     c-0.467,0.298-0.946,0.601-1.432,0.897c0.273,0.279,0.51,0.589,0.704,0.922c0.928,1.607,1.098,2.953-0.958,5.24     c1.019,0.061,2.001,0.569,2.638,1.455c1.122,1.559,0.794,3.729-0.733,4.888l-18.928,14.264     c5.494-3.481,11.129-7.096,16.586-10.661c0.819-0.534,1.808-0.71,2.754-0.485c0.945,0.23,1.752,0.831,2.237,1.668     c0.188,0.315,0.315,0.655,0.406,0.988l2.724-1.564c1.686-0.977,3.845-0.4,4.82,1.292c2.08,3.59-0.272,5.949-14.942,15.985     c0.346-0.03,0.625,0.042,0.935,0.109c1.061,0.23,1.977,0.897,2.517,1.831c0.309,0.546,0.503,1.067,0.563,1.607     c8.418-5.355,9.066-5.525,10.801-5.101c0.939,0.23,1.783,0.861,2.268,1.692c0.898,1.559,0.485,3.554-0.97,4.615     c-1.644,1.213-3.342,2.492-5.027,3.783c0.516,0.322,0.952,0.759,1.249,1.292c0.982,1.692,0.4,3.851-1.292,4.821     c-0.552,0.321-1.158,0.479-1.759,0.479c-1.631,0.782-5.651,3.45-8.15,5.105c-6.222,4.118-7.174,4.749-9.054,4.313     c-0.952-0.225-1.808-0.861-2.292-1.698c-0.315-0.552-0.516-1.098-0.576-1.668c-5.731,3.359-7.211,3.627-8.775,3.257     c-1.013-0.255-1.85-0.873-2.377-1.765c-0.073-0.146-0.152-0.297-0.213-0.449C294.715,476.773,290.203,479.212,287.141,479.212z      M289.894,438.805c-11.152,7.035-21.978,13.882-31.152,19.697c1.968-1.243,4.045-2.547,6.203-3.912     C271.883,450.23,280.955,444.523,289.894,438.805z" style="fill:#E97C7D;"/></g></g></g><g id="Layer_1"/></svg>