<?xml version="1.0" ?><!DOCTYPE svg  PUBLIC '-//W3C//DTD SVG 1.1//EN'  'http://www.w3.org/Graphics/SVG/1.1/DTD/svg11.dtd'><svg height="512px" style="enable-background:new 0 0 512 512;" version="1.1" viewBox="0 0 512 512" width="512px" xml:space="preserve" xmlns="http://www.w3.org/2000/svg" xmlns:xlink="http://www.w3.org/1999/xlink"><g id="_x37_8"><g><g><path d="M428.658,380.096c-0.909,0-1.801-0.346-2.475-1.007c-1.134-1.109-1.389-2.838-0.624-4.227     c0.218-0.395,0.437-0.795,0.655-1.201c-0.904-0.248-1.687-0.854-2.153-1.661c-0.442-0.765-0.631-1.092-0.4-2.486l-5.567,3.214     c-1.686,0.97-3.856,0.4-4.82-1.292c-0.219-0.357-0.298-0.546-1.613-4.039l-3.548,2.057c-1.692,0.97-3.856,0.394-4.833-1.298     c-0.589-1.025-1.201-2.08,0.546-5.482l-6.271,3.626c-1.396,0.801-3.154,0.564-4.288-0.576c-1.122-1.14-1.347-2.898-0.527-4.281     c0.733-1.249,1.491-2.535,2.237-3.796c-5.985,3.48-13.263,7.744-18.715,10.952c-1.673,0.994-3.844,0.431-4.833-1.243     c-0.988-1.687-0.431-3.845,1.249-4.84c30.855-18.181,30.855-18.181,32.693-17.695c0.91,0.242,1.692,0.837,2.165,1.655     c0.892,1.541,1.043,1.808-1.959,7.028l8.679-5.015c1.467-0.843,3.348-0.527,4.451,0.764c1.109,1.292,1.14,3.19,0.072,4.512     c-1.334,1.656-2.734,3.476-4.026,5.216c0.746,0.291,1.376,0.831,1.776,1.528c0.219,0.363,0.34,0.654,1.607,4.033l9.061-5.234     c0.818-0.467,1.776-0.588,2.687-0.352c0.903,0.249,1.673,0.837,2.141,1.655c0.454,0.789,0.588,1.243,0.412,2.305     c0.716-0.224,1.383-0.261,2.099-0.097c0.97,0.212,1.904,0.892,2.401,1.752c0.521,0.904,0.818,1.42,0.303,2.954     c3.875-2.208,4.118-2.147,5.252-1.838l-0.909,3.414l-3.069,1.753l3.069-1.753l1.655,3.111c-0.534,0.291-7.957,4.591-12.808,7.411     C429.871,379.932,429.259,380.096,428.658,380.096z" style="fill:#CE2225;"/></g><g><path d="M352.617,272.738c-1.177,0-2.328-0.595-3.002-1.668c-1.031-1.655-0.521-3.833,1.134-4.863     c0.268-0.164,26.848-16.702,53.761-32.86c55.646-33.415,58.334-32.735,60.505-32.195c1.019,0.254,1.874,0.888,2.389,1.786     c0.606,1.058,0.752,2.338,0.406,3.605c-0.309,1.134-0.77,2.835-5.827,7.198c0.182,0.197,0.346,0.413,0.473,0.643     c0.916,1.592,0.467,3.623-1.043,4.667l-7.266,5.042c0.176,0.018,0.353,0.052,0.521,0.094c1.146,0.276,2.093,0.968,2.663,1.953     c1.606,2.786-0.612,4.451-3.172,6.379c-1.456,1.092-3.542,2.632-6.064,4.466c-0.649,0.47-1.316,0.958-2.007,1.462     c0.473,0.318,0.873,0.743,1.176,1.252c0.904,1.574,0.474,3.581-1,4.64c-4.13,2.959-8.418,6.085-12.323,8.993     c0.74,1.583,0.206,3.511-1.304,4.476c-14.755,9.369-15.488,9.193-17.113,8.793c-0.929-0.23-1.771-0.854-2.25-1.691     c-0.079-0.128-0.152-0.267-0.213-0.4c-8.362,5.264-10.794,6.144-12.887,5.646c-1.067-0.248-1.952-0.897-2.486-1.831     c-0.916-1.577-0.473-3.59,1.007-4.646c1.298-0.922,2.632-1.867,4.003-2.841c-1.486,0.955-2.863,1.841-4.094,2.641     c-14.105,9.108-14.094,9.108-15.847,8.685c-0.939-0.23-1.765-0.837-2.237-1.674c-0.655-1.116-0.619-2.462-0.012-3.523     c-8.866,4.894-10.504,5.082-11.972,4.706c-0.922-0.243-1.825-0.91-2.298-1.734c-0.479-0.813-0.601-1.783-0.358-2.687     c0.249-0.91,0.849-1.686,1.662-2.146c28.563-16.235,58.466-34.41,76.574-46.805c-23.699,13.411-62.748,37.171-89.631,53.913     C353.903,272.568,353.254,272.738,352.617,272.738z" style="fill:#CE2225;"/></g><g><path d="M426.597,222.219c-0.31,0-0.612-0.036-0.916-0.118c-0.903-0.243-1.674-0.834-2.146-1.649     c-1.498-2.596-0.606-4.83,3.881-8.423c-0.655-0.258-1.231-0.709-1.655-1.334c-1.067-1.616-0.637-3.796,0.971-4.882     c2.146-1.452,4.312-2.932,6.482-4.427c-0.194-0.027-0.395-0.079-0.625-0.127c-0.958-0.224-1.789-0.84-2.273-1.689     c-0.194-0.327-0.34-0.634-0.443-0.931c-2.043,1.289-4.087,2.58-6.112,3.863c-0.807,0.516-1.796,0.682-2.735,0.452     c-0.934-0.227-1.734-0.831-2.214-1.662c-0.8-1.385-0.673-2.486-0.012-3.508c-1.243,0.197-1.923,0.049-2.475-0.076     c-1.292-0.285-2.347-1.04-2.965-2.125c-0.704-1.207-0.897-2.48-0.449-3.938c-5.9,3.123-6.586,2.947-7.604,2.68     c-0.916-0.233-1.74-0.858-2.214-1.677c-0.473-0.816-0.594-1.783-0.352-2.689c0.249-0.904,0.843-1.677,1.655-2.144     c1.522-0.867,3.045-1.74,4.579-2.623c-0.807-0.31-1.479-0.876-1.917-1.628c-1.516-2.623-0.199-4.569,5.027-8.721     c-12.001,7.486-16.773,10.455-19.072,11.531c0,0.003-0.006,0.006-0.006,0.006l0,0c-1.51,0.701-1.946,0.588-2.668,0.409     c-0.922-0.23-1.729-0.84-2.214-1.67c-0.964-1.668-0.406-3.799,1.237-4.791c36.531-21.956,75.325-47.26,87.145-57.796     c-1.479,0.585-3.396,1.437-5.876,2.683c-0.934,0.616-1.929,1.262-2.972,1.935c-9.86,6.353-23.002,14.224-35.84,21.896     c-7.15,4.779-14.179,9.585-20.462,13.875c-24.179,16.525-25.245,17.014-27.623,16.471c-0.964-0.218-1.874-0.885-2.365-1.737     c-0.873-1.516-0.892-2.847,0.279-4.455l-16.829,9.712c-0.836,0.482-1.825,0.6-2.753,0.336c-0.922-0.267-1.691-0.897-2.141-1.747     c-1.194-2.265,0.249-3.83,1.377-4.679l-0.019-0.027l0.261-0.152c0.225-0.152,0.419-0.276,0.57-0.373l2.668-1.67     c0.183-0.112,0.37-0.228,0.546-0.34c-0.837-0.27-1.559-0.849-2.007-1.61c-1.347-2.337-0.91-4.572,4.021-9.051l-18.496,10.676     c-1.644,0.955-3.761,0.424-4.761-1.188c-15.471,8.441-17.253,7.996-18.879,7.583c-1.067-0.27-1.952-0.928-2.48-1.853     c-0.278-0.473-0.431-1.004-0.473-1.544c-1.243,0.197-2.305,0.194-3.214-0.012c-1.571-0.346-2.845-1.258-3.608-2.571     c-0.388-0.679-0.527-1.438-0.442-2.168c-13.009,8.06-15.246,8.711-17.156,8.25c-1.02-0.246-1.855-0.867-2.371-1.756     c-0.971-1.689-0.395-3.851,1.291-4.827c0.625-0.358,1.298-0.503,1.972-0.467c4.62-1.819,26.556-16.01,47.787-29.752     c69.988-45.292,102.712-65.137,111.536-63.006c0.836,0.2,1.576,0.576,2.183,1.092c4.682-1.974,8.15-2.684,10.595-2.144     c2.201,0.485,3.354,1.789,3.93,2.796c0.624,1.083,1.225,2.884,0.516,5.321c-0.207,0.731-0.553,1.504-1.031,2.323     c0.2,0.207,0.376,0.437,0.527,0.686c0.527,0.931,0.595,2.004,0.267,2.944c1.104,0.085,2.159,0.698,2.766,1.729     c0.988,1.671,0.442,3.821-1.225,4.821c-24.543,14.746-50.298,30.801-70.401,43.988c23.669-13.742,53.264-31.125,76.483-44.846     c0.807-0.479,1.777-0.615,2.687-0.373c0.916,0.239,1.692,0.831,2.165,1.649c1.649,2.865-0.206,4.318-4.463,7.168     c0.679,0.291,1.279,0.797,1.68,1.489c0.958,1.662,0.922,3.214-0.704,5.261c1.231,0.573,1.953,1.443,2.365,2.153     c1.959,3.399-0.442,7.141-9.794,14.563c0.68,0.339,1.237,0.861,1.619,1.525c0.929,1.61,0.449,3.663-1.085,4.697     c-1.783,1.198-3.584,2.408-5.386,3.624c0.606-0.045,1.146-0.009,1.626,0.103c1.236,0.285,2.262,1.028,2.874,2.089     c0.413,0.722,0.606,1.556,0.57,2.411c0.31-0.188,0.624-0.373,0.928-0.561c0.807-0.488,1.783-0.627,2.698-0.394     c0.928,0.239,1.704,0.837,2.178,1.655c1.861,3.22-0.946,5.006-5.203,7.705c-2.669,1.692-6.453,3.987-10.831,6.649     c-9.952,6.034-29.807,18.09-40.226,26.068c11.789-6.255,32.608-19.691,51.317-32.772c1.589-1.11,3.784-0.734,4.905,0.855     c1.122,1.586,0.753,3.778-0.83,4.912c-3.499,2.508-7.375,5.285-11.407,8.184c0.042,0.006,0.079,0.015,0.115,0.027     c1.007,0.246,1.837,0.867,2.347,1.75c0.934,1.598,0.461,3.635-1.062,4.679c-0.108,0.076-0.212,0.151-0.321,0.224     c0.152,0.179,0.291,0.379,0.413,0.588c0.569,0.982,1.121,1.95,0.133,3.817c1.226-0.315,1.734-0.191,2.135-0.097     c1.049,0.252,1.916,0.889,2.438,1.801c2.395,4.142-1.42,8.111-14.058,16.447c0.072,0.091,0.134,0.191,0.188,0.291     c0.977,1.692,0.4,3.848-1.291,4.824l-33.009,19.063C427.821,222.058,427.215,222.219,426.597,222.219z M468.24,86.808     c-2.347,0.303-8.751,2.471-25.707,13.153c-14.184,8.93-31.825,21.292-48.878,33.251c-8.473,5.934-16.083,11.244-22.918,15.94     c1.868-1.001,3.772-2.025,5.688-3.06c16.58-9.97,34.276-20.855,48.163-29.403c18.6-11.443,29.619-18.196,36.308-22.141     C465.906,90.376,467.646,88.026,468.24,86.808z" style="fill:#CE2225;"/></g><g><path d="M383.539,443.996c-0.928,0-1.886-0.376-2.668-1.553c-0.036-0.061-0.085-0.134-0.121-0.194     c-0.68-1.183-0.728-1.268,0.261-5.052l-0.892,0.516c-0.807,0.467-1.777,0.601-2.687,0.352c-0.897-0.236-1.674-0.83-2.146-1.643     c-1.067-1.862-0.516-3.852,1.321-6.95c-5.494,3.342-6.609,3.542-8.113,3.172c-0.928-0.23-1.819-0.886-2.299-1.723     c-0.776-1.34-0.588-3.02,0.455-4.16c0.946-1.024,1.916-2.086,2.874-3.147l-8.417,4.864c-1.692,0.976-3.857,0.399-4.833-1.292     c-0.389-0.667-0.619-1.334-0.637-2.025c-0.813,0.17-1.22,0.072-1.607-0.019c-0.94-0.23-1.85-0.903-2.329-1.74     c-0.83-1.432-0.552-3.251,0.668-4.366c2.723-2.505,5.621-5.276,8.192-7.848c-0.176-0.121-0.34-0.272-0.491-0.437     c-1.14-1.231-1.255-3.093-0.279-4.451c0.449-0.631,0.91-1.292,1.377-1.953l-5.991,3.451c-1.553,0.897-3.542,0.485-4.615-0.965     c-1.062-1.449-0.867-3.469,0.455-4.688c0.813-0.764,1.655-1.54,2.492-2.329c-4.9,2.469-6.301,2.172-7.034,2.014     c-1.165-0.255-2.117-0.939-2.693-1.928c-0.418-0.729-0.546-1.541-0.431-2.311c-1.68,1.115-3.347,2.231-4.984,3.335     c-1.54,1.031-3.608,0.71-4.755-0.746c-1.146-1.449-0.977-3.542,0.395-4.791l3.365-3.08c-0.837,0.121-1.291,0.03-1.643-0.049     c-1.129-0.255-2.068-0.928-2.633-1.904c-0.314-0.546-0.467-1.146-0.473-1.746c-5.883,3.505-8.114,4.142-9.891,3.724     c-1.092-0.249-1.995-0.91-2.541-1.862c-0.916-1.583-0.467-3.608,1.03-4.663l6.386-4.464c-1.346-0.4-2.443-1.249-3.123-2.42     c-0.977-1.697-0.867-2.959,0.928-4.882c-1.765,0.606-3.159,0.765-4.306,0.516c-1.304-0.285-2.383-1.061-3.038-2.177     c-0.182-0.327-0.333-0.667-0.442-1.007c-4.566,2.322-7.774,3.202-10.067,2.699c-1.479-0.316-2.692-1.184-3.408-2.433     c-0.939-1.613-0.454-3.681,1.11-4.712c6.78-4.481,14.53-9.648,22.505-15.009c-1.989,1.146-3.881,2.237-5.64,3.244     c-14.282,8.217-14.282,8.217-15.828,7.811c-0.91-0.236-1.68-0.831-2.147-1.644c-0.49-0.854-0.679-1.661-0.545-2.498     c-1.098,0.085-1.777-0.061-2.299-0.17c-1.564-0.334-2.826-1.219-3.56-2.492c-0.946-1.638-0.442-3.718,1.146-4.736     c15.38-9.922,36.06-23.506,52.239-34.53c-12.335,7.665-25.847,16.641-33.955,22.025c-16.968,11.279-16.986,11.279-18.944,10.819     c-0.946-0.225-1.789-0.844-2.28-1.692c-0.819-1.425-0.776-2.832,0.146-4.439c-8.509,4.646-9.279,4.445-10.395,4.154     c-0.922-0.23-1.747-0.861-2.226-1.674c-1.953-3.396,1.085-5.282,6.598-8.714c1.243-0.771,2.656-1.632,4.228-2.578     c-1.681,0.431-2.402,0.261-3.039,0.109c-1.055-0.249-1.935-0.855-2.51-1.71c-5.252,2.42-9.024,3.378-11.456,2.826     c-1.51-0.34-2.747-1.226-3.469-2.48c-0.479-0.819-0.601-1.808-0.346-2.724c0.4-1.425,1.104-1.818,2.996-2.855     c32.553-17.957,55.373-31.996,69.31-41.747l-64.392,37.174c-1.687,0.982-3.845,0.4-4.821-1.291     c-0.588-1.013-0.733-2.214-0.4-3.391c0.285-1,0.922-2.019,2.123-3.214c-0.425-0.291-0.789-0.673-1.05-1.128     c-1.728-2.996,0.073-4.233,6.028-8.351c1.94-1.334,4.445-3.038,7.508-5.1c-1.704,0.83-3.312,1.564-4.821,2.207     c-8.484,4.918-16.04,9.309-22.044,12.79c-0.807,0.467-1.771,0.588-2.678,0.352c-0.906-0.236-1.68-0.831-2.149-1.644     c-0.458-0.795-0.897-2.104-0.403-3.827c0.367-1.285,0.961-3.371,8.057-9.018c-0.861-0.406-1.571-1.049-2.038-1.855     c-0.54-0.94-0.679-2.044-0.376-3.111c0.055-0.193,0.121-0.394,0.206-0.588l-8.044,4.646c-0.813,0.467-1.78,0.594-2.684,0.352     c-0.904-0.242-1.677-0.837-2.141-1.649c-1.313-2.269,0.118-3.888,1.307-4.797l-0.015-0.024l0.215-0.127     c0.291-0.207,0.555-0.377,0.749-0.491c0.703-0.437,1.737-1.074,3.065-1.893c1.522-0.928,3.436-2.099,5.667-3.469     c-0.291-0.267-0.546-0.576-0.746-0.928c-0.973-1.692-0.396-3.851,1.292-4.827c0.855-0.497,1.844-0.595,2.729-0.34     c4.523-1.553,21.916-13.493,35.998-23.16c40.758-27.978,59.012-39.4,66.435-37.714c1.547,0.349,2.802,1.249,3.548,2.532     c0.291,0.509,0.449,0.985,0.516,1.44l3.766-2.177c0.813-0.464,1.783-0.591,2.681-0.354c0.909,0.245,1.68,0.833,2.146,1.646     c0.479,0.828,0.94,2.192,0.449,3.984c-0.279,1.004-0.91,2.104-1.91,3.324c0.315,0.264,0.594,0.582,0.8,0.949     c0.115,0.191,0.225,0.41,0.322,0.652c5.185-3.348,5.834-3.205,7.186-2.905c0.959,0.215,1.868,0.874,2.371,1.729     c0.315,0.555,0.474,1.173,0.467,1.801c0.461-0.267,0.904-0.519,1.328-0.758c2.984-1.701,4.736-2.699,5.871-3.256     c0.006-0.003,0.012-0.009,0.012-0.009l0,0c1.602-0.782,1.965-0.688,2.838-0.458c1.347,0.364,2.365,1.483,2.578,2.859     c0.224,1.376-0.383,2.756-1.553,3.518c-13.469,8.778-28.976,18.917-44.258,28.936c0.728,0.431,1.34,1.024,1.753,1.759     c0.376,0.648,0.752,1.625,0.679,2.874l4.16-2.407c0.807-0.467,1.777-0.595,2.675-0.352c0.909,0.242,1.674,0.837,2.146,1.644     c0.527,0.922,1.043,2.45,0.467,4.499c-0.57,2.05-2.268,4.931-8.005,9.879c0.625,1.146,0.801,2.342,0.467,3.633     c0.674-0.437,1.341-0.885,2.02-1.322c0.807-0.539,1.808-0.715,2.753-0.491c0.946,0.219,1.759,0.831,2.244,1.668     c1.226,2.123,1.013,4.47-1.225,7.514c1.079,0.091,2.098,0.673,2.71,1.668c0.377,0.624,0.546,1.31,0.516,1.983     c4.228-1.819,6.969-2.384,8.733-1.972c1.31,0.31,2.377,1.086,3.008,2.189c1.395,2.396,0.594,4.196-4.245,8.103     c0.218,0.012,0.431,0.03,0.648,0.078c0.977,0.206,1.819,0.825,2.323,1.692c1.079,1.868,0.697,3.493-1.335,5.585     c2.954-1.722,5.828-3.396,8.582-4.991c0.813-0.473,1.776-0.6,2.686-0.363c0.91,0.249,1.674,0.837,2.147,1.655     c1.146,1.965,0.915,3.396-2.208,6.21c0.771-0.085,1.443-0.061,2.05,0.073c1.389,0.297,2.517,1.104,3.196,2.273     c0.964,1.692,0.4,3.845-1.285,4.821c-0.668,0.395-1.341,0.776-2.008,1.177c0.23,0.019,0.455,0.055,0.667,0.091     c1.401,0.31,2.554,1.134,3.244,2.335c0.916,1.583,0.468,3.614-1.036,4.657c-13.882,9.667-32.894,23.075-46.902,33.257     c9.612-6.137,20.449-13.754,27.398-18.642c17.375-12.22,18.964-13.166,21.365-12.645c0.964,0.213,1.91,0.897,2.401,1.753     c0.916,1.589,0.467,3.614-1.031,4.657l-0.309,0.219c0.63-0.036,1.194,0,1.698,0.115c1.285,0.297,2.34,1.062,2.971,2.152     c0.922,1.589,0.461,3.633-1.049,4.676l-34.694,23.979c0.461,1.231,0.2,2.645-0.728,3.639c7.113-3.724,8.623-3.378,9.49-3.178     c1.104,0.255,2.008,0.916,2.554,1.868c1.225,2.116,0.934,4.021-3.36,7.962c0.024,0.03,0.049,0.067,0.073,0.109     c0.897,1.559,1.819,3.147-4.166,10.073c0.824,0.267,1.528,0.837,1.965,1.589c0.667,1.164,1.273,2.22-1.256,6.822     c0.886,0.249,1.649,0.837,2.11,1.631c0.716,1.237,1.377,2.39-0.964,5.792c3.529-2.195,7.204-4.518,10.734-6.786     c0.818-0.521,1.807-0.679,2.747-0.461c0.939,0.23,1.746,0.831,2.231,1.668c1.631,2.838-0.94,4.712-2.475,5.834     c-0.055,0.036-0.121,0.085-0.182,0.127c0.51,0.304,0.946,0.722,1.262,1.273c1,1.729,0.849,2.99-1.825,6.429     c0.934-0.4,1.382-0.315,2.164-0.128c0.935,0.23,1.747,0.843,2.232,1.674c1.346,2.329,0.182,4.294-3.421,9.588     c0.104,0.013,0.213,0.049,0.321,0.066c0.904,0.249,1.674,0.844,2.147,1.656c0.582,1.007,0.722,1.255-0.219,5.027     c1.662-0.837,3.705-0.243,4.651,1.389c0.977,1.68,0.4,3.845-1.279,4.821l-6.016,3.475     C386.008,443.305,384.795,443.996,383.539,443.996z M321.811,288.767c-2.917,1.922-5.731,3.784-8.424,5.566     c11.607-6.361,27.744-15.294,35.361-21.024C342.689,276.025,332.98,281.677,321.811,288.767z" style="fill:#CE2225;"/></g><g><path d="M265.83,148.461c-0.279,0-0.521-0.058-0.807-0.127c-0.946-0.221-1.771-0.833-2.256-1.674     c-0.473-0.825-0.606-1.904-0.352-2.817c0.503-1.813,1.31-2.759,14.561-10.23c0.952-0.631,1.929-1.273,2.929-1.932     c4.228-2.783,8.296-5.446,12.202-7.999c-0.468-1.537,0.163-3.256,1.612-4.093c1.05-0.603,2.28-0.612,3.306-0.125     c0.843-0.172,2.098-0.646,3.693-1.382c23.257-15.073,40.383-25.698,52.796-32.672c1.025-0.697,2.038-1.398,3.057-2.092     c0.558-0.385,1.213-0.597,1.874-0.625c11.922-6.398,18.623-8.733,21.855-7.962c1.371,0.321,2.475,1.128,3.136,2.262     c0.97,1.692,0.394,3.848-1.298,4.824c-1.237,0.719-2.735,0.598-3.826-0.191c-2.65,0.164-8.673,2.957-16.538,7.25     c-3.063,6.683-23.317,18.748-66.107,42.411c-5.191,2.872-10.455,5.782-14.955,8.32     C269.214,147.166,267.14,148.461,265.83,148.461z" style="fill:#CE2225;"/></g><g><path d="M217.309,190.887c-1.41,0-2.341-0.197-3.044-0.349c-3.075-0.649-4.636-2.371-5.4-3.699     c-0.958-1.656-0.421-3.772,1.207-4.776l4.703-2.89c-0.776-0.516-1.271-1.143-1.577-1.677c-0.242-0.415-0.388-0.864-0.445-1.316     c-0.389,0.037-0.786,0.003-1.174-0.091c-0.928-0.237-1.719-0.834-2.195-1.662c-1.625-2.82-0.009-4.248,6.013-9.561     c1.695-1.492,3.784-3.302,6.25-5.406c-9.609,5.885-20.688,12.959-31.134,19.87c-0.813,0.537-1.811,0.719-2.763,0.491     c-0.943-0.221-1.758-0.828-2.247-1.667c-0.995-1.719-1.376-3.523,1.492-7.08l-17.047,9.839c-0.813,0.467-1.777,0.594-2.681,0.354     c-0.903-0.243-1.677-0.833-2.146-1.649c-1.14-1.98-1.028-3.632,2.577-6.999c-4.981,3.026-9.754,5.94-14.087,8.603     c-0.006,0-0.006,0.003-0.006,0.003c-1.665,1.019-3.836,0.5-4.858-1.161c-0.552-0.9-0.655-1.95-0.367-2.884     c-0.176-0.03-0.333-0.066-0.479-0.1c-1.022-0.234-1.883-0.789-2.478-1.568c-17.95,9.803-21.901,8.957-23.948,8.523     c-2.146-0.458-3.259-1.704-3.814-2.666c-0.976-1.688-0.397-3.848,1.292-4.824c1.443-0.837,3.226-0.537,4.324,0.619     c1.656,0.061,8.408-1.149,33.015-16.155c0.109-0.082,0.221-0.167,0.336-0.251c6.046-4.503,14.615-10.485,25.477-17.781     c18.448-12.393,37.408-24.476,37.596-24.594c1.613-1.028,3.745-0.585,4.824,0.995c1.07,1.577,0.694,3.727-0.855,4.845     c-0.143,0.106-10,7.229-23.445,16.471c5.974-3.872,12.035-7.875,17.936-11.844c0.815-0.545,1.819-0.73,2.769-0.512     c0.952,0.218,1.771,0.828,2.265,1.677c0.285,0.498,0.464,0.979,0.537,1.468c8.229-4.375,9.203-4.133,10.355-3.836     c0.925,0.23,1.807,0.892,2.286,1.719c1.65,2.856-1.104,4.882-2.28,5.752c-0.918,0.676-2.277,1.623-3.978,2.781     c-0.388,0.264-0.792,0.537-1.213,0.822l2.544-1.468c1.653-0.955,3.772-0.424,4.773,1.207c1.003,1.631,0.527,3.76-1.073,4.806     c-0.37,0.246-0.743,0.488-1.119,0.734c11.34-6.113,13.299-5.652,14.212-5.437c1.106,0.261,2.022,0.931,2.571,1.886     c0.864,1.495,0.521,3.393-0.81,4.49c-2.089,1.723-4.212,3.475-6.325,5.228c3.096-1.461,3.757-1.295,4.479-1.113     c0.928,0.23,1.774,0.864,2.25,1.692c1.773,3.072-0.801,5.064-5.473,8.678c-2.329,1.801-5.522,4.172-9.497,7.047l156.637-96.32     c1.631-1.01,3.777-0.525,4.814,1.094c1.001,1.547,0.637,3.584-0.788,4.7c5.434-3.899,8.593-6.204,8.708-6.286     c1.577-1.152,3.784-0.807,4.937,0.773c1.146,1.577,0.801,3.784-0.776,4.934c-0.406,0.306-41.819,30.455-85.986,59.521     C246.643,185.123,224.938,190.887,217.309,190.887z M235.833,174.52l-13.83,8.502c10.734-2.686,36.322-14.045,97.091-54.036     c31.825-20.94,62.208-42.448,76.756-52.872c-1.406,0.952-40.873,27.483-81.862,53.211     C272.52,155.344,249.235,168.237,235.833,174.52z" style="fill:#CE2225;"/></g><g><path d="M130.783,437.161c-1.222,0-2.411-0.631-3.066-1.771c-1.479-2.571,0.006-4.815,3.793-8.193     c-1.101,0.389-1.822,0.37-2.583,0.194c-1.013-0.236-1.889-0.886-2.404-1.771c-0.931-1.613-0.446-3.682,1.106-4.712     c2.55-1.687,5.119-3.396,7.684-5.118c-1.173,0.242-1.683,0.127-2.037,0.042c-1.107-0.261-2.022-0.928-2.571-1.886     c-0.91-1.564-0.482-3.566,0.982-4.627l17.599-12.742c-4.078,2.45-7.981,4.804-11.544,6.969c-0.81,0.491-1.786,0.637-2.705,0.4     c-0.918-0.23-1.707-0.831-2.186-1.656c-1.859-3.22,1.228-5.506,5.14-8.398c0.006-0.007,0.018-0.013,0.027-0.024     c-1.398,0.193-2.835-0.474-3.563-1.783c-0.943-1.687-0.355-3.814,1.319-4.772l61.171-35.319     c14.063-8.763,23.269-15.179,29.291-19.837l-85.098,49.134c-1.692,0.977-3.851,0.389-4.824-1.292     c-1.316-2.286-0.995-4.809,2.856-8.817c-0.625-0.497-1.046-1.061-1.332-1.552c-0.458-0.789-0.606-1.547-0.527-2.269     c-3.896,2.068-4.351,1.946-5.395,1.668c-0.273-0.067-0.531-0.176-0.773-0.304c-18.593,8.927-22.09,8.09-23.981,7.642     c-1.907-0.455-2.896-1.571-3.387-2.42c-0.155-0.272-0.27-0.546-0.352-0.831c-14.967,7.205-17.411,6.599-19.045,6.198     c-1.225-0.304-2.229-1.037-2.82-2.062c-0.524-0.91-1.028-2.208-1.025-3.863l-0.661,0.394l-0.027-0.048     c-1.434,0.715-1.871,0.624-2.55,0.461c-0.961-0.213-1.798-0.831-2.289-1.68c-0.968-1.668-0.41-3.814,1.252-4.804l3.235-1.929     c1.541-1.012,3.648-2.432,6.183-4.142c-0.027-0.048-0.058-0.097-0.082-0.14c-0.491-0.854-0.606-1.867-0.318-2.808     c0.291-0.946,0.961-1.716,1.847-2.146c6.72-3.232,13.688-6.622,20.843-10.134c0.919-0.625,1.834-1.255,2.753-1.886     c-1.938-0.649-3.469-1.874-4.458-3.584c-0.637-1.116-0.779-2.438-0.4-3.736c0.615-2.086,3.065-4.633,7.783-7.992     c-0.146-0.17-0.276-0.353-0.388-0.546c-0.585-1.013-0.728-2.238-0.397-3.451c0.513-1.88,1.35-4.967,22.811-19.588     c-0.434-0.8-0.545-1.74-0.303-2.613c0.249-0.916,0.855-1.686,1.68-2.146c0.407-0.23,0.822-0.461,1.237-0.691     c1.701-1.11,5.3-3.578,9.73-6.629c-1.374,0.219-2.793-0.388-3.566-1.631c-1.028-1.656-0.519-3.82,1.131-4.852     c0.055-0.043,0.831-0.527,2.238-1.401c-0.331-0.284-0.615-0.63-0.837-1.019c-0.643-1.104-1.252-2.959-0.485-5.477     c0.583-1.922,2.017-4.475,5.883-8.271c-1.022,0.115-2.068-0.23-2.829-0.964c-9,3.954-11.113,3.45-12.538,3.117     c-0.179-0.049-0.352-0.091-0.524-0.151c-12.714,4.96-16.104,4.166-17.999,3.717c-2.38-0.552-3.593-1.904-4.194-2.936     c-0.764-1.328-0.573-2.953,0.37-4.063c-2.441,0.879-3.102,0.703-3.693,0.552c-0.995-0.255-1.819-0.88-2.323-1.747     c-0.47-0.824-0.597-1.795-0.349-2.698c0.249-0.916,0.852-1.686,1.674-2.146C228.24,196.949,404.285,94.94,424.48,75.853     c-7.132-0.485-30.395,6.537-105.539,52.347c-52.002,31.702-111.217,71.053-154.45,99.79     c-58.178,38.66-58.579,38.575-61.189,37.957c-0.949-0.219-1.834-0.874-2.322-1.717c-0.897-1.552-1.804-3.135,4.29-9.045     l-8.462,4.885c-1.689,0.977-3.848,0.395-4.828-1.292c-0.736-1.279-0.824-2.537-0.003-4.184     c-9.348,5.206-11.255,4.775-12.208,4.561c-1.14-0.258-2.074-0.935-2.638-1.917c-0.318-0.552-0.473-1.155-0.473-1.755     c-0.425,0.045-0.855,0.015-1.276-0.097c-0.916-0.239-1.692-0.834-2.165-1.652c-0.749-1.301-0.619-2.401-0.076-3.356     c-0.515-0.337-0.946-0.786-1.261-1.328c-0.734-1.277-0.604-2.875,0.333-4.012c1.361-1.652,2.753-3.351,4.112-5.021l-7.55,4.357     c-1.567,0.906-3.572,0.476-4.633-0.995c-1.061-1.474-0.831-3.508,0.528-4.712c1.58-1.395,3.184-2.817,4.772-4.236     c-0.588-0.325-1.085-0.801-1.428-1.389c-0.558-0.97-0.622-2.141-0.179-3.168c0.23-0.534,0.464-1.076,0.697-1.622     c-10.946,6.874-12.038,7.262-13.939,6.795c-0.928-0.228-1.798-0.876-2.28-1.707c-1.525-2.644,0.279-4.527,3.736-7.681     c-0.118-0.146-0.23-0.303-0.328-0.47c-1.188-2.059-0.785-3.375,2.954-7.553c-0.446-0.306-0.822-0.707-1.088-1.162     c-0.555-0.97-0.604-2.092-0.228-3.06l-5.822,3.363c-1.68,0.967-3.824,0.403-4.809-1.262c-0.985-1.668-0.443-3.817,1.219-4.821     c1.44-0.87,2.902-1.755,4.385-2.647c-0.886-0.23-1.683-0.8-2.174-1.652c-0.434-0.758-0.858-1.847-0.87-3.245     c-0.792,0.449-1.729,0.576-2.617,0.352c-0.919-0.236-1.707-0.833-2.183-1.655c-0.531-0.919-1.046-2.447-0.479-4.488     c-1.48,0.804-2.302,1.25-2.356,1.277l-0.018-0.04c-1.358,0.661-1.731,0.561-2.544,0.352c-1.407-0.367-2.447-1.555-2.62-2.996     c-0.176-1.443,0.549-2.844,1.828-3.536c0.03-0.015,0.325-0.176,0.861-0.464c2.592-1.498,11.398-6.762,22.208-13.232     c9.209-5.506,17.753-10.61,25.686-15.334c-24.746,14.027-44.786,24.885-45.046,25.028c-1.701,0.922-3.824,0.303-4.77-1.38     c-0.943-1.688-0.355-3.817,1.319-4.785l2.335-1.349c-1.144-0.303-2.08-1.007-2.647-1.986c-1.752-3.038,0.958-5.04,4.097-7.356     c0.588-0.431,1.258-0.916,2.007-1.45c-4.587,2.405-8.284,4.312-10.746,5.58c-1.71,0.87-3.799,0.23-4.715-1.456     c-0.919-1.68-0.325-3.79,1.334-4.749l101.648-58.685c11.361-7.936,16.119-12.547,18.096-15.101     c-4.842,1.904-13.415,6.598-23.515,12.538c-8.12,5.537-17.311,11.708-26.677,17.799c-21.219,13.809-35.837,22.377-46.007,27.659     C36.779,164.48,36.4,164.389,34.586,163.946c-0.937-0.23-1.774-0.858-2.259-1.692c-0.07-0.118-0.13-0.233-0.185-0.346     c-1.113,0.03-1.832-0.118-2.38-0.24c-2.247-0.488-3.408-1.78-3.984-2.78c-0.443-0.767-0.876-2.032-0.422-3.708     c0.188-0.694,0.422-1.571,1.541-3.035c-1.416,0.467-1.907,0.339-2.444,0.2c-0.916-0.233-1.765-0.874-2.238-1.695     c-1.871-3.235,1.286-5.334,4.627-7.56c1.186-0.788,2.65-1.729,4.424-2.838c-0.027-0.04-0.052-0.082-0.073-0.125     c-0.976-1.686-0.4-3.845,1.286-4.821c2.407-1.395,4.824-2.808,7.237-4.23c-0.913-0.015-1.51-0.112-1.979-0.206     c-2.347-0.47-3.56-1.822-4.169-2.877c-0.449-0.779-0.676-1.486-0.606-2.21c-0.797,0.409-1.243,0.637-1.271,0.652     c-1.644,0.84-3.657,0.27-4.621-1.307c-0.288-0.476-0.452-0.995-0.5-1.519c-0.018-0.003-0.036-0.006-0.058-0.009     c-1.34-0.306-2.441-1.101-3.093-2.235c-0.925-1.601-0.464-3.639,1.062-4.682l11.034-7.568c-0.694-0.267-1.31-0.755-1.734-1.431     c-0.458-0.74-0.616-1.58-0.495-2.38c-0.6,0.179-1.24,0.2-1.859,0.049c-0.937-0.228-1.74-0.825-2.226-1.665     c-1.816-3.144-0.297-5.682,12.384-15.346c-0.967-1.689-0.388-3.842,1.301-4.815l21.771-12.569     c1.689-0.976,3.851-0.397,4.827,1.292c0.488,0.846,0.631,1.601,0.509,2.298c13.636-7.729,15.374-7.308,16.407-7.056     c1.031,0.251,1.886,0.885,2.405,1.786c0.434,0.749,0.637,1.419,0.6,2.071l7.462-4.306c1.646-0.949,3.745-0.431,4.757,1.173     c0.506,0.807,0.649,1.737,0.47,2.607c1.368-0.427,2.398-0.491,3.275-0.294c0.588,0.13,1.122,0.376,1.585,0.715     c4.533-1.604,6.183-1.249,7.238-1.021c1.541,0.331,2.79,1.21,3.521,2.471c0.491,0.855,0.588,1.825,0.346,2.708     c0.412-0.066,0.834-0.058,1.252,0.027c0.998,0.2,1.859,0.819,2.365,1.695c1.107,1.922,0.946,3.96-0.785,6.531     c18.205-10.776,18.891-10.592,20.564-10.164c0.922,0.236,1.755,0.864,2.231,1.686c1.365,2.368,0.076,4.396-2.298,6.434     c0.03,0.046,0.061,0.097,0.088,0.146c0.982,1.668,0.437,3.814-1.219,4.815c-0.276,0.164-27.79,16.753-55.353,33.021     c-0.207,0.124-0.418,0.251-0.627,0.37c-24.294,15.127-43.728,28.26-50.053,34.506c1.947-0.482,5.043-1.567,9.934-3.863     c0.13-0.085,0.261-0.17,0.394-0.252c6.88-4.345,16.419-10.315,26.983-16.938c23.314-14.6,55.82-34.958,70.908-44.831     c5.349-3.748,8.575-6.055,8.672-6.122c0.807-0.579,1.823-0.792,2.799-0.579c0.977,0.212,1.816,0.822,2.317,1.683     c1.083,1.88,0.339,3.362-0.81,4.524c0.916,0.373,1.665,1.013,2.15,1.853c0.625,1.08,1.216,2.88,0.497,5.322     c-0.052,0.167-0.106,0.33-0.17,0.5l14.242-8.22c0.813-0.467,1.777-0.594,2.681-0.352c0.906,0.243,1.677,0.833,2.146,1.649     c1.283,2.226-0.021,3.796-1.31,4.8l0.012,0.021l-0.146,0.084c-0.357,0.267-0.703,0.495-0.988,0.673     c-0.07,0.045-0.146,0.097-0.222,0.146c3.63-1.643,5.81-2.123,7.196-1.786c1.116,0.272,2.041,0.949,2.595,1.913     c0.4,0.694,0.789,1.777,0.567,3.193l0.327-0.194c1.686-0.977,3.848-0.395,4.824,1.298c0.516,0.891,1.013,2.371,0.446,4.366     c-0.109,0.394-0.246,0.861-0.531,1.471c1.301-0.385,1.789-0.258,2.302-0.125c0.913,0.24,1.792,0.897,2.265,1.716     c0.488,0.846,0.61,1.837,0.349,2.783c-0.146,0.528-0.261,0.943-0.773,1.504c3.572-1.522,4.354-1.328,5.094-1.134     c0.988,0.249,1.813,0.867,2.311,1.737c0.494,0.846,0.609,1.862,0.324,2.796c-0.288,0.937-0.946,1.71-1.825,2.141     c-0.024,0.012-0.185,0.094-0.482,0.24c1.395-0.212,2.835,0.434,3.584,1.725c0.588,1.019,0.734,1.895,0.47,2.75l1.307-0.755     c1.665-0.961,3.799-0.409,4.791,1.24c0.992,1.649,0.479,3.79-1.149,4.812L75.373,209.638c-0.322,0.646-0.807,1.271-1.343,1.895     c0.082,0.016,0.167,0.037,0.251,0.058c0.91,0.243,1.677,0.837,2.147,1.646c0.691,1.204,0.646,2.22,0.191,3.145     c0.913,0.24,1.707,0.846,2.18,1.662c0.652,1.128,0.9,1.559-0.309,4.743c7.323-5,9.2-6.034,11.358-5.543     c1.025,0.236,1.914,0.885,2.432,1.786c1.146,1.98,0.509,3.33-1.552,5.455c0.995,0.17,1.916,0.77,2.462,1.713     c1.283,2.223,0.094,3.772-2.507,7.156c-0.543,0.707-1.18,1.525-1.911,2.447c1.486-1.021,2.969-2.068,4.376-3.086     c0.81-0.588,1.834-0.807,2.811-0.594c0.977,0.209,1.822,0.821,2.323,1.686c0.203,0.358,0.346,0.704,0.434,1.046     c2.313-1.14,2.78-1.019,3.572-0.81c0.913,0.236,1.701,0.836,2.174,1.652c0.467,0.816,0.688,1.61,0.592,2.465     c3.963-2.59,8.023-5.307,11.865-7.957c0.81-0.558,1.819-0.752,2.781-0.534c0.961,0.215,1.789,0.822,2.28,1.68     c1.553,2.684-0.664,4.73-2.808,6.71c-0.825,0.764-1.816,1.649-2.941,2.641l34.409-19.864c1.638-0.949,3.733-0.434,4.749,1.162     c0.673,1.064,0.709,2.356,0.203,3.423c1.649-1.095,3.314-2.201,4.991-3.317C281.864,141.502,402.375,63.32,427.197,69.133     c3.014,0.707,4.536,2.401,5.294,3.702c0.552,0.964,0.691,2.126,0.382,3.26c-0.14,0.485-0.285,1.037-0.892,1.892     c4.991-2.987,9.915-5.934,14.719-8.821c1.667-1,3.839-0.46,4.845,1.21c1.007,1.671,0.468,3.839-1.2,4.846L252.949,194.265     c7.189-3.49,14.658-7.098,22.396-10.834c6.229-3.008,12.578-6.074,18.994-9.185c0.321-0.209,0.643-0.421,0.97-0.63     c0.443-0.294,0.952-0.482,1.474-0.552c2.639-1.276,5.276-2.562,7.933-3.851c73.385-45.98,141.148-90.969,141.863-91.445     c0.813-0.543,1.808-0.719,2.76-0.5c0.952,0.221,1.771,0.831,2.256,1.677c1.377,2.38,1.625,5.179,0.728,8.093     c-5.676,18.441-59.97,47.311-144.041,88.279c-1.14,0.709-2.286,1.434-3.426,2.144c0.363,0.333,0.679,0.712,0.928,1.14     c0.54,0.931,0.667,2.041,0.376,3.126c-0.279,1.034-0.631,2.344-5.713,6.395c0.128,0.161,0.243,0.333,0.352,0.516     c0.485,0.846,0.601,1.858,0.315,2.795c-0.024,0.076-0.042,0.152-0.079,0.23c1.571-0.655,3.427-0.097,4.354,1.392     c0.595,0.949,0.68,2.077,0.334,3.057c0.722,0.342,1.315,0.885,1.716,1.577c0.066,0.106,0.121,0.218,0.176,0.331     c1.619-0.188,3.015-0.161,4.16,0.097c2.645,0.591,3.997,2.098,4.67,3.259c0.467,0.816,0.588,1.783,0.346,2.696     c-0.03,0.118-0.073,0.233-0.115,0.349c0.818,0.052,1.413,0.185,1.91,0.297c2.025,0.455,3.214,1.495,3.912,2.441     c1.776-0.279,3.329-0.291,4.65-0.006c2.165,0.458,3.857,1.649,4.9,3.436c0.012,0.033,0.03,0.063,0.049,0.097     c1.916-0.546,3.584-0.834,4.984-0.852c3.184-0.585,5.822-0.667,7.859-0.2c3.154,0.715,4.749,2.483,5.531,3.838     c0.521,0.901,1.024,2.205,1,3.866c0.776-0.434,1.698-0.561,2.565-0.346c0.94,0.23,1.734,0.831,2.22,1.662     c1.51,2.629,0.158,4.582-4.846,8.266c0.697-0.304,1.48-0.376,2.238-0.2c0.945,0.228,1.752,0.831,2.237,1.67     c0.637,1.11,1.249,2.957,0.528,5.467c-3.814,13.235-51.608,42.181-111.767,75.141c1.119,2.893-1.659,4.585-8.751,8.914     c-1.822,1.116-3.939,2.384-6.292,3.778c-1.007,0.697-2.041,1.419-3.087,2.153l12.535-7.247c1.689-0.977,3.848-0.395,4.824,1.304     c0.57,0.982,1.119,2.626,0.485,4.857c-0.519,1.825-1.553,5.458-13.842,14.991c0.849,2.602-1.731,4.476-4.445,6.435     c-1.995,1.437-4.915,3.433-8.918,6.089c-3.281,2.183-7.068,4.663-11.183,7.338c0.697,0.309,1.304,0.836,1.68,1.497     c0.907,1.565,0.479,3.566-0.985,4.628l-17.302,12.534c0.452-0.078,0.919-0.066,1.374,0.043c0.949,0.225,1.765,0.831,2.253,1.668     c1.95,3.384-1.089,6.179-9.624,12.717c-2.702,2.067-6.022,4.518-9.922,7.319c0.085,0.121,0.167,0.243,0.243,0.376     c1.774,3.068-0.846,5.186-5.597,9.006c-3.093,2.492-7.326,5.73-11.804,9.157c-2.547,1.946-5.488,4.202-8.387,6.452     c0.133,0.158,0.258,0.334,0.37,0.521c0.97,1.687,0.394,3.852-1.298,4.827l-14.43,8.327     C131.989,437.004,131.383,437.161,130.783,437.161z M93.241,365.814c-2.644,2.347-4.439,4.444-5.252,6.246     c14.315-3.96,76.542-40.062,143.665-80.705c-4.188,2.038-8.469,4.118-12.844,6.246c-4.109,2.002-8.253,4.009-12.42,6.034     c-14.033,7.563-28.03,14.906-41.201,21.711c-33.573,22.165-56.966,36.04-69.246,38.86L93.241,365.814z M298.159,261.174     c-17.817,11.013-39.7,24.354-65.347,39.836c-32.575,19.661-65.459,39.304-89.198,53.439     c18.942-10.115,48.039-26.865,92.703-54.439C258.146,286.534,279.718,272.926,298.159,261.174z M113.711,337.99     c2.311,0.291,5.779-0.594,10.161-2.419c12.587-8.551,25.155-17.041,37.569-25.343     C138.545,322.211,118.845,333.048,113.711,337.99z M301.173,216.294c-14.1,6.246-40.361,20.301-89.149,51.356     c-22.608,14.385-44.816,29.084-61.929,40.576c11.022-5.834,24.394-12.741,40.428-20.971c9.139-4.688,18.66-9.581,28.185-14.518     c1.559-1.001,3.102-1.978,4.645-2.953C256.928,245.379,282.95,226.719,301.173,216.294z M337.486,244.327     c-13.741,8.887-34.512,22.238-57.969,37.035c2.165-1.249,4.3-2.492,6.41-3.724C312.901,261.858,328.493,251.31,337.486,244.327z      M156.696,276.438c-0.704,0.709-1.265,1.328-1.716,1.867c0.988-0.424,2.116-0.928,3.366-1.527     c-0.346-0.031-0.673-0.079-0.985-0.158C157.129,276.57,156.908,276.516,156.696,276.438z M227.552,214.529     c-17.377,8.59-33.314,16.701-46.859,24.1c-21.646,11.835-31.795,19.061-36.525,23.333c8.387-3.824,19.636-9.445,34.703-17.678     c4.166-2.277,8.532-4.7,13.099-7.269c8.75-5.627,18.245-11.671,27.826-17.659C222.473,217.683,225.053,216.076,227.552,214.529z      M327.359,226.261c-4.572,5.137-13.372,12.823-30.783,24.536c3.736-2.001,7.344-3.966,10.776-5.882     c9.437-5.861,18.642-11.602,27.466-17.132c5.324-4.005,8.685-7.422,9.49-10.055c0.164-0.521,0.073-0.673,0.049-0.722     c-0.157-0.267-0.686-0.418-0.982-0.488c-0.121-0.027-0.23-0.052-0.363-0.07c-0.285,0.479-0.697,0.903-1.213,1.209     L327.359,226.261z M271.215,221.512c-7.113,4.039-15.519,9.033-25.418,15.201c-7.08,4.412-14.288,9.018-21.456,13.681     C241.809,239.957,258.141,229.945,271.215,221.512z M308.947,220.103c-0.873,0.476-1.807,0.982-2.783,1.528     c0.758-0.367,1.504-0.731,2.238-1.083C308.59,220.396,308.771,220.248,308.947,220.103z M281.549,202.485     c-5.919,3.83-12.936,8.554-20.112,13.441l30.143-18.508C288.838,198.795,285.448,200.502,281.549,202.485z M288.22,187.822     c-12.201,7.556-23.506,14.485-33.981,20.825c5.024-2.638,9.809-5.118,14.224-7.398c9.151-5.764,16.841-10.794,22.311-14.642     C289.96,186.982,289.111,187.388,288.22,187.822z M63.799,194.344c-0.115,0.097-0.23,0.194-0.343,0.291L195.851,118.2     c-4.661,2.317-13.142,6.568-23.694,12.004C144.194,146.075,99.466,172.752,63.799,194.344z M444.177,87.823     c-12.298,8.12-41.438,27.281-77.356,50.34C405.359,118.082,436.718,99.494,444.177,87.823z M165.128,107.563     c-9.433,5.591-21.901,13.481-34.206,21.358l15.304-8.835C153.664,115.377,160.064,111.147,165.128,107.563z M150.416,125.823     c-1.137,0.725-2.319,1.467-3.539,2.231c6.659-3.866,12.29-7.107,17.065-9.824c0.61-0.421,1.189-0.831,1.759-1.234     L150.416,125.823z M104.521,84.955c-19.412,12.174-42.472,26.917-55.286,35.725c6.231-2.993,16.137-8.624,31.744-19.161     C89.669,95.655,98.071,89.655,104.521,84.955z" style="fill:#CE2225;"/></g></g></g><g id="Layer_1"/></svg>