<?xml version="1.0" ?><!DOCTYPE svg  PUBLIC '-//W3C//DTD SVG 1.1//EN'  'http://www.w3.org/Graphics/SVG/1.1/DTD/svg11.dtd'><svg height="512px" style="enable-background:new 0 0 512 512;" version="1.1" viewBox="0 0 512 512" width="512px" xml:space="preserve" xmlns="http://www.w3.org/2000/svg" xmlns:xlink="http://www.w3.org/1999/xlink"><g id="_x37_2"><g><g><path d="M198.494,341.175c-0.324,0-0.621-0.061-0.958-0.14c-0.946-0.219-1.804-0.861-2.292-1.704     c-0.361-0.631-0.546-1.207-0.564-1.765c-0.349,0-0.673-0.037-0.994-0.104c-1.195-0.255-2.184-0.97-2.778-2.001     c-1.486-2.577-0.47-4.682,3.806-7.95c-0.085-0.079-0.17-0.164-0.246-0.255c-7.659,4.045-9.036,3.711-10.255,3.427     c-1.083-0.262-1.974-0.922-2.511-1.85c-0.813-1.407-0.555-3.154,0.561-4.27c-0.27-0.261-0.5-0.564-0.691-0.892     c-1.013-1.753-2.25-3.894,6.865-11.583c-0.606-1.092-0.74-2.086-0.321-3.178c-2.604,1.601-3.196,1.595-4.388,1.316     c-0.949-0.225-1.798-0.844-2.289-1.692c-1.295-2.25-0.179-3.529,2.511-6.61c1.301-1.492,3.053-3.48,4.839-5.494     c1.219-1.377,2.626-2.959,3.888-4.396c-0.17-1.341,0.437-2.717,1.662-3.463c3.487-2.129,4.118-2.517,5.676-2.116     c0.925,0.23,1.716,0.843,2.189,1.673c0.627,1.08,0.712,1.923,0.288,2.887c8.83-5.597,12.071-6.889,14.391-6.343     c1.113,0.261,2.035,0.934,2.593,1.898c0.734,1.273,0.833,2.401,0.161,3.711c0.925-0.595,1.871-1.194,2.841-1.801     c1.622-1.025,3.763-0.57,4.824,1.024c1.062,1.595,0.658,3.748-0.909,4.852c-0.801,0.558-1.58,1.104-2.341,1.638     c0.891,0.146,1.728,0.631,2.298,1.419c0.376,0.533,0.591,1.134,0.646,1.74c1.716-1.109,3.502-2.262,5.364-3.469     c1.022-0.667,1.78-1.152,2.368-1.516c0.124-0.085,0.188-0.128,0.188-0.128l0.009,0.013c1.41-0.831,1.795-0.801,2.838-0.546     c1.352,0.327,2.386,1.406,2.644,2.777c0.258,1.37-0.313,2.759-1.453,3.554c-0.7,0.491-1.419,0.994-2.153,1.498     c0.127,0.157,0.243,0.315,0.34,0.491c1.813,3.142,0.048,6.021-6.056,10.546c0.276,0.509,0.416,1.061,0.428,1.606     c0.755-0.139,1.361-0.115,1.922,0.024c1.071,0.255,1.959,0.904,2.496,1.838c0.913,1.576,1.61,2.789-4.584,11.886     c0.928,1.68,0.342,3.803-1.325,4.761c-0.276,0.164-0.564,0.285-0.861,0.364c-0.273,0.182-0.64,0.454-0.888,0.63     c-1.777,1.292-3.065,2.214-4.846,1.838c-0.979-0.206-1.88-0.861-2.38-1.723c-0.701-1.213-0.619-2.723,0.209-3.851     c0.988-1.358,2.022-2.808,3.005-4.232c-4.163,2.577-8.912,5.694-12.195,7.847C202.209,339.828,200.068,341.168,198.494,341.175z" style="fill:#d98566;"/></g><g><path d="M408.288,115.656c-0.425,0-0.807-0.042-1.152-0.125c-1.243-0.291-2.25-1.031-2.856-2.077     c-1.716-2.971,0.831-4.781,4.052-7.074c1.922-1.371,4.778-3.317,8.472-5.797c0.146-0.101,0.291-0.197,0.442-0.297     c-0.042-0.058-0.091-0.115-0.127-0.173c-1.11-1.607-0.71-3.809,0.892-4.918c5.045-3.487,10.77-7.474,16.688-11.601     c-0.673-0.358-1.225-0.891-1.606-1.562c-0.94-1.625-0.449-3.699,1.128-4.724c9.048-5.903,18.581-12.471,26.731-18.438     c-1.4,0.434-2.978-0.042-3.894-1.295c-1.152-1.577-0.807-3.784,0.771-4.937c22.723-16.564,26.386-15.792,27.769-15.497     c1.171,0.245,2.141,0.939,2.723,1.949c0.855,1.471,2.08,3.59-4.221,10.07c1.08,0.318,1.959,1.006,2.517,1.968     c1.644,2.847-0.631,4.575-3.511,6.765c-0.219,0.17-0.449,0.346-0.704,0.534c1.207,0.291,2.195,1.019,2.79,2.047     c0.946,1.634,0.437,3.72-1.152,4.739c-1.783,1.146-3.657,2.347-5.567,3.581c0.455,0.303,0.837,0.707,1.116,1.188     c0.977,1.686,0.4,3.848-1.292,4.824c-0.297,0.17-0.612,0.294-0.928,0.37c-1.697,0.916-7.975,5.058-14.051,9.066     C427.428,107.933,414.025,115.656,408.288,115.656z M473.468,73.518c0.382,0.649,0.897,1.095,1.443,1.371     C474.329,74.588,473.826,74.127,473.468,73.518z" style="fill:#d98566;"/></g><g><path d="M340.609,152.918c-1.213,0-2.407-0.63-3.056-1.765c-0.982-1.692-0.395-3.848,1.291-4.827     l53.009-30.604c1.687-0.971,3.845-0.395,4.821,1.298c0.977,1.688,0.395,3.848-1.292,4.821l-53.002,30.604     C341.816,152.77,341.21,152.918,340.609,152.918z" style="fill:#d98566;"/></g><g><path d="M349.634,205.221c-0.273,0-0.461-0.055-0.673-0.106c-0.922-0.236-1.729-0.852-2.202-1.671     c-1.188-2.053-1.079-3.814,2.311-6.904c-0.055-0.085-0.108-0.169-0.157-0.258c-1.51-2.616,0.012-4.772,3.911-7.883     c-0.242-0.249-0.461-0.531-0.637-0.837c-1.734-3.002-0.091-4.594,9.212-12.001c-15.167,10.082-17.502,11.222-19.873,10.664     c-1.031-0.236-1.892-0.867-2.407-1.771c-1.698-2.929,0.079-4.16,5.337-7.811c2.777-1.935,6.779-4.654,11.582-7.905     c8.484-5.737,20.334-13.688,35.229-23.633c5.955-3.972,11.916-7.944,17.55-11.695l-78.685,50.395     c-0.807,0.524-1.486,0.961-2.063,1.322l-1.54,0.979l-0.03-0.058c-1.479,0.801-1.893,0.709-2.668,0.528     c-0.952-0.225-1.777-0.831-2.263-1.677c-0.491-0.849-0.588-1.825-0.346-2.708c-10.37,5.686-11.225,5.464-12.432,5.149     c-0.916-0.237-1.746-0.874-2.226-1.686c-0.473-0.828-0.601-1.813-0.34-2.732c0.049-0.155,0.098-0.3,0.164-0.443     c-3.645,1.804-5.355,2.147-6.537,1.859c-1.037-0.252-1.893-0.886-2.414-1.789c-1.14-1.971-0.837-3.76,1.971-6.641     c-0.127-0.146-0.23-0.306-0.333-0.473c-0.516-0.895-1.013-2.384-0.455-4.385c0.673-2.386,3.433-5.579,7.623-9.27     c-0.036-0.055-0.067-0.106-0.109-0.161c-0.606-1.019-0.637-2.219-0.2-3.229c-0.77-0.34-1.395-0.901-1.813-1.625     c-1.831-3.168,0.049-5.928,9.497-12.856c-0.036-0.055-0.079-0.115-0.109-0.173c-0.533-0.928-0.667-2.032-0.376-3.105     c0.109-0.4,0.31-0.834,0.631-1.31c-1.564,0.552-3.365-0.07-4.227-1.571c-0.977-1.686-0.4-3.848,1.292-4.821l171.445-98.986     c0.813-0.47,1.771-0.591,2.681-0.354c0.903,0.242,1.674,0.833,2.146,1.646c0.552,0.961,0.691,2.107,0.389,3.226     c-1.553,5.746-22.584,18.557-89.341,56.766c-1.225,0.7-2.468,1.407-3.711,2.12c0.775,1.634,0.193,3.611-1.396,4.548     c-2.68,1.592-5.379,3.205-8.09,4.827c0.194,0.016,0.376,0.043,0.564,0.088c0.946,0.227,1.753,0.831,2.237,1.667     c0.31,0.537,0.498,1.034,0.57,1.534c0.285-0.157,0.558-0.309,0.831-0.458c1.691-0.925,3.82-0.318,4.772,1.371     c0.946,1.688,0.364,3.82-1.316,4.791l-41.765,24.112c-7.423,4.524-14.373,8.915-20.51,12.966c0.782-0.091,1.225,0,1.528,0.066     c1.225,0.258,2.226,0.971,2.826,2.011c0.406,0.7,0.558,1.331,0.539,1.901c7.12-4.533,14.749-9.434,22.299-14.285     c71.274-45.786,102.396-64.585,110.705-62.578c1.347,0.328,2.444,1.122,3.093,2.247c0.474,0.825,0.935,2.198,0.419,4.023     c-0.534,1.917-1.504,5.34-18.327,17.208c-0.146,0.985-0.697,1.895-1.589,2.474l-6.562,4.197c1.007,0.437,1.825,1.146,2.354,2.062     c0.934,1.616,0.448,3.681-1.104,4.712c-12.723,8.436-27.574,18.306-41.935,27.884c0.448,0.342,0.843,0.776,1.134,1.279     c1.607,2.805,0.127,3.966-5.397,8.29c-1.892,1.477-4.263,3.311-6.919,5.358c1.104-0.519,1.546-0.418,2.341-0.23     c0.946,0.218,1.789,0.834,2.274,1.68c0.673,1.177,0.733,2.192,0.278,3.184c1.917-1.289,3.827-2.581,5.7-3.869     c0.819-0.552,1.826-0.746,2.778-0.531c0.958,0.222,1.782,0.828,2.273,1.683c1.904,3.278-1.019,5.528-6.18,8.887     c0.092,0.115,0.177,0.243,0.261,0.379c1.007,1.668,0.468,3.842-1.206,4.846C357.688,202.313,351.665,205.221,349.634,205.221z      M461.594,88.154c-17.387,7.047-68.297,39.752-100.25,60.277c-15.052,9.667-26.295,16.85-34.755,22.138     c6.41-3.535,14.124-7.817,22.584-12.568c16.986-9.948,36.41-21.486,52.184-30.853c12.48-7.41,24.27-14.412,32.724-19.375     c0.346-0.203,0.691-0.403,1.024-0.6C450.43,97.271,457.938,91.492,461.594,88.154z" style="fill:#d98566;"/></g><g><path d="M227.506,292.132c-0.282,0-0.558-0.024-0.837-0.072c-1.137-0.225-2.123-0.929-2.699-1.923     c-0.792-1.377-0.564-3.087,0.503-4.209c-0.127-0.018-0.249-0.036-0.376-0.072c-1.061-0.236-1.947-0.88-2.48-1.813     c-0.752-1.298-0.6-2.935,0.385-4.075c1.231-1.425,2.499-2.917,3.748-4.409c-0.867,0.225-1.619,0.243-2.344,0.085     c-1.146-0.242-2.092-0.928-2.668-1.922c-0.743-1.279-0.831-2.354-0.127-3.529c-0.146-0.019-0.285-0.061-0.44-0.098     c-0.918-0.236-1.719-0.837-2.192-1.661c-0.934-1.626-0.439-3.693,1.125-4.725c7.29-4.778,14.706-9.715,21.886-14.572     c-1.07,0.127-1.707-0.009-2.231-0.122c-1.35-0.294-2.453-1.073-3.105-2.205c-0.273-0.473-0.443-0.934-0.519-1.389     c-5.992,3.142-6.75,2.951-7.592,2.732c-0.752-0.194-1.447-0.646-1.935-1.259c-4.864,2.041-6.328,1.71-7.359,1.48     c-1.283-0.288-2.335-1.037-2.957-2.12c-0.558-0.964-0.606-2.095-0.221-3.065l-3.065,1.768c-1.631,0.937-3.711,0.437-4.73-1.14     c-1.021-1.58-0.63-3.682,0.895-4.782l14.448-10.437c-1.179-0.364-2.149-1.125-2.753-2.171c-0.476-0.828-0.585-1.777-0.361-2.641     c-0.467,0.079-0.946,0.073-1.413-0.037c-0.958-0.218-1.78-0.825-2.268-1.677c-0.546-0.94-0.712-2.059-0.485-3.175     c-0.521-0.327-0.961-0.773-1.273-1.316c-0.976-1.689-0.394-3.848,1.295-4.824c0.682-0.394,1.449-0.531,2.174-0.452     c1.765-0.643,5.931-2.987,11.043-6.043c4.754-3.278,11.277-7.465,20.246-12.863c3.454-2.08,6.901-4.118,10.176-6.022     c19.428-12.132,20.568-12.377,22.654-11.859c0.928,0.23,1.813,0.889,2.286,1.719c0.479,0.822,0.601,1.798,0.352,2.714     c-0.255,0.916-0.873,1.689-1.704,2.147c-3.572,1.965-7.18,3.984-10.765,6.016c0.37,0.306,0.674,0.67,0.922,1.095     c0.279,0.479,0.431,1.007,0.468,1.528c3.335-1.956,4.669-2.186,6.076-1.883c1.055,0.234,1.971,0.895,2.498,1.823     c0.91,1.567,0.479,3.569-0.988,4.63l-12.269,8.86l6.138-3.547c1.631-0.94,3.724-0.434,4.748,1.158     c0.612,0.97,0.697,2.123,0.334,3.126c2.311-1.304,3.693-2.071,3.729-2.096c1.649-0.913,3.724-0.373,4.718,1.225     c0.988,1.598,0.559,3.693-0.988,4.77c-0.03,0.015-0.552,0.379-1.479,1.021c0.388,0.267,0.733,0.619,1.007,1.049     c0.582,0.931,0.673,2.032,0.352,2.996c2.074-1.455,4.13-2.914,6.143-4.363c0.807-0.579,1.832-0.797,2.809-0.585     c0.976,0.212,1.818,0.825,2.316,1.689c1.291,2.238,0.728,4.221-3.244,7.953c13.123-7.465,15.173-7.826,16.804-7.408     c0.916,0.24,1.808,0.904,2.28,1.726c2.062,3.575-0.121,5.716-16.677,16.389c-9.637,6.213-22.299,13.97-34.53,21.468     c-6.747,4.133-13.87,8.499-20.019,12.332c-0.03,1.086-0.688,2.687-2.784,5.688c4.509-2.941,6.059-3.512,7.781-3.117     c1.028,0.23,1.917,0.88,2.438,1.783c1.634,2.826,0.239,5.167-8.333,12.802c0.667,1.619,0.052,3.505-1.498,4.402     c-0.482,0.273-0.998,0.431-1.513,0.468c-0.789,0.515-2.125,1.552-3.075,2.292C232.073,290.41,229.735,292.132,227.506,292.132z" style="fill:#d98566;"/></g><g><path d="M288.517,299.755c-0.654,0-1.243-0.055-1.782-0.17c-2.354-0.516-3.572-1.874-4.179-2.923     c-0.467-0.813-0.601-1.861-0.352-2.766c0.066-0.255,0.127-0.479,0.23-0.709c-3.36,1.328-5.609,1.74-7.077,1.383     c-1.207-0.292-2.195-1.02-2.79-2.051c-0.061-0.103-0.115-0.212-0.176-0.327c-5.276,2.59-6.07,2.39-6.932,2.165     c-0.915-0.242-1.771-0.885-2.243-1.71c-0.601-1.037-1.177-2.766-0.479-5.118c0.637-2.171,1.952-6.616,19.242-18.981     c-0.036-0.007-0.079-0.019-0.115-0.03c-2.22-0.504-3.384-1.808-3.96-2.809c-0.479-0.813-0.601-1.837-0.352-2.747     c0.061-0.236,0.121-0.454,0.212-0.673c-8.732,4.451-14.264,7.187-14.396,7.253c-1.71,0.849-3.778,0.183-4.679-1.504     c-0.304-0.558-0.437-1.177-0.419-1.776l-2.765,1.601c-0.81,0.467-1.777,0.595-2.68,0.352c-0.904-0.242-1.677-0.837-2.144-1.644     c-1.428-2.468-0.825-5.082,2.532-8.663c-0.003-0.003-0.009-0.003-0.015-0.003c-1.125-0.264-2.056-0.946-2.617-1.919     c-0.979-1.692-0.4-3.848,1.292-4.827c0.876-0.507,1.88-0.595,2.78-0.325c4.078-1.346,18.624-11.025,28.394-17.538     c22.917-15.255,27.502-17.799,30.644-17.074c1.079,0.258,1.982,0.916,2.528,1.862c2.129,3.681-2.086,6.567-6.962,9.912     c-2.413,1.656-5.428,3.608-8.751,5.731l94.325-54.461c0.813-0.47,1.777-0.594,2.681-0.352c0.903,0.24,1.68,0.834,2.146,1.644     c0.455,0.797,0.898,1.995,0.752,3.563c0.606,0.307,1.122,0.789,1.462,1.386c0.479,0.825,0.94,2.181,0.455,3.987     c-0.413,1.531-1.747,3.396-3.979,5.613c0.225,0.221,0.419,0.467,0.57,0.731c0.533,0.91,1.03,2.426,0.454,4.46     c-0.176,0.631-0.406,1.443-1.151,2.62c0.752,0.297,1.413,0.855,1.819,1.559c0.484,0.834,0.6,1.834,0.327,2.765     c-0.272,0.925-0.916,1.698-1.776,2.141c-0.073,0.039-1.771,0.906-4.725,2.447c-4.785,2.938-12.99,8.269-20.995,13.481     c-3.038,1.977-5.974,3.878-8.812,5.719c10.637-6.35,20.995-12.56,30.371-18.208c0.806-0.488,1.782-0.628,2.704-0.392     c0.861,0.222,1.607,0.764,2.086,1.51c6.404-3.544,8.909-4.257,10.552-3.857c1.044,0.258,1.911,0.9,2.444,1.816     c0.51,0.879,1.007,2.341,0.474,4.293c-1.031,3.79-6.816,9.251-17.15,16.577l-0.467,1.856c1.37,0.349,2.401-0.23,2.589-0.352     c-0.442,0.276-2.989,2.086-5.925,4.188C332.604,280.622,300.428,299.755,288.517,299.755z M293.599,269.117     c-9.297,6.204-15.027,10.649-18.545,13.791c0.903-0.497,1.868-1.02,2.875-1.577c3.856-3.22,9.679-7.077,17.726-11.855     c-0.509,0.019-0.934-0.036-1.315-0.128C294.084,269.287,293.842,269.209,293.599,269.117z M394.298,224.996     c-10.334,6.268-24.421,15.292-37.509,23.672c-2.602,1.668-5.136,3.284-7.586,4.849c8.156-4.782,16.229-9.615,23.663-14.254     C382.588,233.195,389.446,228.547,394.298,224.996z" style="fill:#d98566;"/></g><g><path d="M296.467,355.741c-0.643,0-1.098-0.104-1.491-0.194c-1.292-0.297-2.354-1.049-2.978-2.135     c-0.188-0.34-0.352-0.679-0.467-1.024c-5.877,2.067-7.927,1.625-9.157,1.346c-2.178-0.467-3.312-1.728-3.869-2.698     c-1.341-2.322-0.91-4.385,4.523-9.006c-1.935,0.771-2.438,0.637-3.025,0.485c-0.916-0.242-1.735-0.861-2.214-1.68     c-0.449-0.782-0.886-2.02-0.582-3.657c-1.364,0.716-2.505,1.305-3.408,1.777c-3.16,1.959-3.699,1.837-4.791,1.595     c-0.971-0.218-1.831-0.849-2.322-1.704c-0.485-0.837-0.606-1.838-0.334-2.76c0.273-0.934,0.916-1.703,1.771-2.146     c0.055-0.024,0.831-0.424,2.238-1.152c3.348-2.141,10.661-7.223,18.308-12.535c1.432-1,2.863-1.988,4.27-2.971     c-2.517,1.085-3.08,0.939-3.735,0.77c-0.916-0.236-1.74-0.867-2.214-1.686c-0.078-0.127-0.146-0.267-0.224-0.425     c-1.662,0.51-2.875,0.612-3.784,0.395c-1.152-0.279-2.093-0.971-2.662-1.959c-0.474-0.818-0.601-1.789-0.346-2.698     c0.248-0.91,0.854-1.687,1.68-2.147c3.299-1.855,6.609-3.724,9.927-5.609c6.429-6.24,21.492-17.204,57.945-37.12     c7.077-3.863,14.13-7.613,20.759-11.073c11.959-8.15,20.31-14.636,22.887-18.184c-2.953,0.218-11.553,2.696-35.507,17.38     c-19.261,11.799-42.178,27.541-62.402,41.429c-40.304,27.696-47.512,32.074-51.417,31.189c-1.119-0.255-2.041-0.922-2.599-1.893     c-0.573-0.994-0.737-1.946-0.424-3.014l-1.353,0.782c-0.813,0.467-1.777,0.595-2.68,0.352c-0.904-0.242-1.677-0.837-2.147-1.649     c-1.677-2.911,0.891-4.888,3.178-6.628c-0.2-0.213-0.373-0.431-0.513-0.68c-0.606-1.055-0.633-2.347-0.063-3.414l5.604-10.601     c-0.149-1.122,0.254-2.274,1.104-3.057c0.67-1.237,1.734-1.661,2.435-1.807c0.612-0.115,2.714-0.346,4.084,2.02     c0.606,1.055,0.631,2.347,0.064,3.426l-1.407,2.656c0.297-0.188,0.588-0.382,0.87-0.558c9.133-5.883,10.206-6.525,12.184-6.047     c0.934,0.23,1.795,0.868,2.279,1.698c0.734,1.268,0.855,2.414,0.164,3.772c0.485,0.297,0.897,0.722,1.183,1.23     c0.855,1.468,0.57,2.729-0.151,3.846c7.896-5.271,17.004-11.529,25.609-17.441c53.524-36.774,92.354-62.587,104.695-59.795     c2.438,0.552,3.706,1.974,4.343,3.075c0.497,0.855,0.97,2.274,0.448,4.181c-0.078,0.279-0.164,0.598-0.309,0.971     c4.414-2.117,7.016-2.777,8.617-2.39c1.146,0.273,2.08,0.964,2.644,1.944c0.431,0.743,0.57,1.616,0.406,2.45     c0.104,0.019,0.206,0.043,0.31,0.067c0.916,0.237,1.698,0.834,2.165,1.653c0.643,1.101,1.243,2.938,0.51,5.434     c-0.746,2.522-2.917,6.155-10.037,12.308c0.079,0.497,0.049,1.013-0.097,1.51c-0.261,0.922-0.886,1.698-1.734,2.153     c-3.068,1.631-6.138,3.274-9.212,4.937c-2.044,1.473-4.3,3.044-6.762,4.718c3.554-2.11,7.017-4.173,10.34-6.155     c1.667-1.001,3.839-0.461,4.833,1.207c1.013,1.667,0.473,3.826-1.188,4.845c-37.029,22.475-94.022,58.267-111.427,71.905     c2.189-0.801,5.154-2.062,9.139-4.026c2.48-2.044,5.683-4.458,9.764-7.362c9.127-6.514,22.142-15.07,38.667-25.403     c28.096-17.575,57.047-34.507,57.339-34.677c1.631-0.952,3.723-0.454,4.748,1.141c1.031,1.583,0.625,3.699-0.922,4.791     c-0.14,0.103-8.023,5.688-19.722,13.717c1.28-0.176,2.626,0.37,3.408,1.522c1.092,1.613,0.667,3.809-0.946,4.9     c-0.206,0.146-21.358,14.451-43.372,28.309C309.366,352.727,299.984,355.741,296.467,355.741z M383.491,256.847     c-2.293,1.419-4.664,2.898-7.096,4.424c3.269-1.932,6.514-3.863,9.728-5.771C385.262,255.94,384.383,256.389,383.491,256.847z      M399.106,255.988c0.098,0.009,0.2,0.015,0.298,0.027c0.291-0.246,0.576-0.485,0.854-0.716     C399.883,255.524,399.495,255.755,399.106,255.988z" style="fill:#d98566;"/></g><g><path d="M265.15,359.701c-0.066,0-0.145,0-0.212-0.006c-1.098-0.055-2.116-0.576-2.813-1.426l-2.902-2.893     l-0.063,0.043c-1.692,0.977-3.851,0.388-4.827-1.304c-0.977-1.681-0.394-3.845,1.298-4.821l2.41-1.389     c1.383-0.801,3.133-0.57,4.261,0.558l3.104,3.099c1.104-0.448,2.408-0.346,3.438,0.419c1.571,1.146,1.917,3.335,0.771,4.912     C268.262,358.755,266.758,359.701,265.15,359.701z" style="fill:#d98566;"/></g><g><path d="M232.428,375.165c-0.315,0-0.604-0.066-0.955-0.151c-0.925-0.236-1.723-0.837-2.199-1.662     c-1.422-2.468,0.37-4.184,1.95-5.706c0.088-0.085,0.179-0.17,0.276-0.261c-0.558,0.085-1.043,0.055-1.534-0.073     c-1.006-0.23-1.877-0.873-2.386-1.759c-0.897-1.552-1.461-2.528,3.317-8.672c-7.211,4.228-7.775,4.088-9.151,3.736     c-0.928-0.236-1.759-0.861-2.235-1.692c-0.746-1.292-0.6-2.917,0.37-4.051c1.947-2.286,3.954-4.676,5.855-6.968     c-3.693,2.158-7.486,4.396-10.57,6.228c-1.519,0.897-3.462,0.546-4.563-0.831c-1.101-1.382-1.016-3.354,0.197-4.639     c2.774-2.93,5.874-6.325,7.938-8.727c-0.176-1.371,0.467-2.777,1.734-3.506l1.989-1.146c0.81-0.479,1.776-0.601,2.683-0.358     c0.904,0.243,1.677,0.831,2.147,1.65c0.367,0.637,0.549,1.243,0.537,1.867c10.24-5.985,10.616-5.882,11.986-5.53     c0.91,0.236,1.695,0.837,2.168,1.661c0.979,1.692,1.464,2.541-4.378,10.007c0.476-0.292,0.931-0.576,1.355-0.831     c8.229-5.04,8.232-5.04,9.806-4.64c0.922,0.23,1.72,0.831,2.195,1.662c0.761,1.322,0.588,2.983-0.434,4.124     c-1.807,2.013-3.684,4.136-5.5,6.222c4.955-3.19,6.191-3.639,7.841-3.244c0.946,0.218,1.85,0.879,2.335,1.728     c1.665,2.887,0.804,4.367-12.041,16.495c0.212,0.115,0.437,0.237,0.658,0.353c5.752-3.791,7.168-4.561,9.057-4.112     c0.949,0.225,1.829,0.88,2.317,1.717c0.973,1.691,0.397,3.851-1.295,4.827c-0.434,0.248-0.9,0.394-1.368,0.448     c-1.155,0.606-3.772,2.329-4.83,3.026c-2.226,1.474-2.978,1.971-4.515,1.602c-0.285-0.067-0.558-0.17-0.815-0.298     c-1.446-0.733-2.541-1.31-3.375-1.776C234.681,374.51,233.419,375.165,232.428,375.165z M249.08,367.597     c0.131,0.225,0.276,0.419,0.434,0.595C249.353,368.016,249.208,367.815,249.08,367.597z" style="fill:#d98566;"/></g><g><path d="M218.81,397.961c-0.318,0-0.561-0.061-0.831-0.133c-0.918-0.236-1.737-0.85-2.213-1.674     c-0.066-0.115-0.124-0.23-0.176-0.352c-0.858,0.115-1.355,0-1.819-0.109c-1.101-0.261-2.007-0.922-2.553-1.868     c-0.676-1.17-0.625-2.626,0.127-3.748c1.938-2.874,3.96-5.912,5.728-8.604c-0.503-0.31-0.925-0.74-1.225-1.256     c-0.167-0.285-0.258-0.442-0.385-0.988c-1.458,0.31-2.999-0.34-3.784-1.692c-0.973-1.686-0.397-3.845,1.295-4.821l3.347-1.94     c0.998-0.576,2.223-0.624,3.269-0.127c0.861,0.4,1.51,1.128,1.825,2.013c2.238-1.395,3.384-1.782,4.776-1.461     c0.949,0.225,1.828,0.867,2.319,1.716c1.064,1.844,1.286,2.226-4.991,11.704c10.698-5.912,28.842-17.253,45.325-28.139     c0.807-0.539,1.808-0.715,2.76-0.49c0.946,0.218,1.752,0.83,2.25,1.667c0.146,0.261,0.267,0.534,0.357,0.819     c2.068-1.244,4.063-2.444,5.955-3.584c1.662-1.007,3.839-0.468,4.846,1.2c1.007,1.68,0.467,3.845-1.201,4.852     c-0.151,0.097-15.513,9.357-30.904,18.441C225.205,395.735,220.702,397.961,218.81,397.961z" style="fill:#d98566;"/></g><g><path d="M179.464,362.369c-0.285,0-0.57-0.023-0.855-0.078c-1.204-0.219-2.247-0.959-2.856-2.014     c-1.371-2.377,0.243-4.057,1.947-5.846c0.591-0.613,1.34-1.383,2.198-2.25c-0.528,0.036-0.876-0.043-1.17-0.104     c-1.085-0.242-1.986-0.897-2.532-1.844c-0.498-0.861-0.719-1.243-0.264-7.053c-0.964-0.212-1.816-0.837-2.311-1.691     c-0.976-1.692-0.394-3.852,1.292-4.828c0.176-0.103,0.349-0.176,0.527-0.248c0.161-0.109,0.355-0.242,0.555-0.395     c1.692-1.188,2.914-2.05,4.667-1.668c0.97,0.219,1.85,0.861,2.344,1.723c0.364,0.631,0.524,1.364,0.458,2.086     c-0.158,1.711-0.315,3.561-0.443,5.216c4.151-2.359,10.75-6.659,16.362-10.583c0.807-0.569,1.813-0.77,2.777-0.563     c0.967,0.219,1.798,0.818,2.295,1.668c1.392,2.39,0.064,3.718-2.577,6.355c-1.271,1.268-3.036,3.014-5,4.967     c-0.249,0.248-0.512,0.509-0.779,0.77c0.688,0.353,1.268,0.897,1.659,1.583c0.976,1.692,0.4,3.845-1.292,4.821     c-0.725,0.425-1.541,0.558-2.308,0.442c-1.21,0.746-3.378,2.499-4.9,3.729C184.562,360.362,181.96,362.369,179.464,362.369z" style="fill:#d98566;"/></g><g><path d="M164.825,327.888c-0.294,0-0.585-0.03-0.874-0.109c-0.922-0.236-1.71-0.831-2.183-1.655     c-0.7-1.207-1.04-1.795,1.104-7.411c-2.617,1.674-5.576,3.681-8.217,5.567c-0.813,0.576-1.832,0.794-2.805,0.576     c-0.973-0.206-1.81-0.825-2.311-1.687c-0.87-1.504-0.806-2.844,0.431-4.639c-4.579,2.729-5.279,2.711-6.622,2.39     c-0.934-0.23-1.792-0.867-2.271-1.711c-0.977-1.68-0.397-3.845,1.292-4.82c0.431-0.243,0.892-0.4,1.358-0.455     c1.84-0.88,7.729-4.621,12.107-7.398c15.658-9.916,16.999-10.504,19.164-9.964c0.934,0.23,1.828,0.892,2.308,1.729     c1.564,2.71,0.352,4.493-6.037,10.146c0.57,0.333,1.049,0.807,1.386,1.383c0.552,0.964,0.621,2.122,0.191,3.146     c-0.437,1.037-0.892,2.129-1.337,3.215c9.928-5.932,10.4-5.816,11.813-5.446c0.919,0.23,1.722,0.837,2.195,1.662     c0.979,1.686,0.4,3.845-1.289,4.821c-0.294,0.176-0.601,0.303-0.916,0.376c-1.819,0.879-9.697,5.536-16.65,9.77     C166.102,327.712,165.468,327.888,164.825,327.888z M179.41,315.953c0.13,0.23,0.285,0.437,0.452,0.612     C179.695,316.383,179.54,316.184,179.41,315.953z" style="fill:#d98566;"/></g><g><path d="M197.909,247.901c-0.961,0-1.877-0.434-2.641-1.655c-0.243-0.416-0.5-0.861-1.456-4.37     c-0.622-0.331-1.155-0.846-1.537-1.507c-0.889-1.535-0.488-3.46,0.858-4.53c0.831-1.21,1.895-1.568,2.732-1.637     c1.483-0.115,2.835,0.622,3.633,1.998c0.158,0.279,0.279,0.573,0.361,0.886c0.261,1.021,0.561,2.146,0.831,3.138l2.963,5.112     l-1.811,1.053C200.617,247.095,199.219,247.901,197.909,247.901z" style="fill:#d98566;"/></g><g><path d="M192.857,290.088c-0.285,0-0.579-0.036-0.882-0.108c-0.958-0.225-1.825-0.861-2.313-1.717     c-0.509-0.879-0.609-1.929-0.288-2.88c-1.355,0.788-3.105,0.612-4.257-0.516c-1.273-1.231-1.431-3.215-0.37-4.64     c0.67-0.897,1.349-1.819,2.025-2.735c-1.48,1.092-2.962,2.22-4.339,3.33c-0.803,0.643-1.85,0.897-2.862,0.715     c-1.01-0.193-1.892-0.818-2.407-1.71c-0.961-1.667-0.779-3.226,0.828-5.313c-0.176-0.193-0.333-0.406-0.47-0.637     c-1.055-1.831-0.549-3.026,1.886-8.763c0.042-0.098,0.085-0.2,0.13-0.304c-0.288-0.012-0.579-0.054-0.861-0.139     c-1.228-0.358-2.171-1.341-2.462-2.584l-0.804-3.417c-0.321,0.209-0.63,0.409-0.916,0.588c-5.482,3.526-6.625,4.261-8.481,3.806     c-0.943-0.225-1.786-0.855-2.271-1.692c-0.47-0.824-0.582-1.773-0.36-2.646c-0.019-0.003-0.042-0.01-0.064-0.016     c-1.016-0.228-1.895-0.873-2.417-1.765c-0.97-1.692-0.394-3.854,1.292-4.827c0.537-0.306,1.116-0.461,1.692-0.476     c1.419-0.746,4.733-3.032,7.011-4.606c8.387-5.788,10.582-7.083,12.929-6.562c1.04,0.236,1.944,0.897,2.471,1.811     c1.416,2.44,0.167,3.623-3.169,6.798c-0.706,0.67-1.522,1.449-2.395,2.274c0.03,0.051,0.061,0.1,0.094,0.151     c0.173,0.3,0.297,0.622,0.379,0.961l0.603,2.553c2.125-1.237,3.293-1.08,3.86-1.003c1.286,0.17,2.396,0.91,3.042,2.028     c0.861,1.498,0.688,3.06-0.609,6.482c8.878-5.742,10.919-5.314,11.922-5.108c1.155,0.239,2.107,0.919,2.681,1.916     c0.903,1.562,0.482,3.557-0.977,4.618c-0.576,0.424-1.161,0.854-1.75,1.285c0.3,0.285,0.558,0.606,0.77,0.977     c0.895,1.547,1.225,2.123-1.98,6.798c0.846,0.321,1.556,0.916,2.01,1.698c0.592,1.025,0.631,2.286,0.101,3.348l-0.143,0.285     c0.215,0.012,0.434,0.049,0.664,0.097c0.955,0.225,1.822,0.861,2.316,1.717c0.973,1.686,0.394,3.845-1.298,4.821     c-0.346,0.199-0.709,0.339-1.08,0.406c-0.655,0.388-1.865,1.2-2.713,1.776C195.626,289.179,194.283,290.088,192.857,290.088z" style="fill:#d98566;"/></g><g><path d="M158.066,273.447c-0.2,0-0.392-0.018-0.555-0.042c-1.07-0.164-2.007-0.819-2.538-1.759     c-0.249-0.437-0.403-0.928-0.446-1.438c-0.058-0.661-0.125-1.364-0.194-2.062c-3.126,1.916-4.272,1.692-5.048,1.553     c-1.107-0.213-2.065-0.886-2.62-1.85c-0.913-1.577-0.473-3.597,1.019-4.646c6.807-4.827,13.818-9.939,20.255-14.773     l-22.478,12.984c-1.689,0.971-3.851,0.395-4.827-1.298c-0.973-1.688-0.397-3.848,1.292-4.824l53.349-30.801     c0.813-0.47,1.776-0.591,2.68-0.349c0.907,0.239,1.677,0.833,2.147,1.643c1.868,3.235,1.652,5.822-23.812,25.179     c-5.497,4.179-11.085,8.293-15.537,11.528c0.191,1.086,0.403,2.705,0.643,5.216c0.042,0.061,0.079,0.121,0.118,0.188     c0.977,1.687,0.403,3.845-1.286,4.834c-0.058,0.03-0.109,0.061-0.167,0.084C159.346,273.302,158.646,273.447,158.066,273.447z" style="fill:#d98566;"/></g><g><path d="M368.772,85.773c-1.176,0-2.316-0.585-2.989-1.646c-1.031-1.628-0.564-3.787,1.055-4.845     l15.847-10.37c-0.013-0.03-0.03-0.058-0.055-0.085c-0.964-1.692-0.388-3.851,1.304-4.824l53.275-30.765     c1.656-0.955,3.778-0.421,4.779,1.21c0.042,0.073,0.091,0.148,0.127,0.23c10.771-5.895,11.783-5.627,13.008-5.318     c0.922,0.236,1.795,0.888,2.274,1.713c0.971,1.691,0.395,3.848-1.298,4.824c-0.558,0.319-1.164,0.473-1.765,0.473     c-0.006,0-0.006,0-0.013,0c-6.743,2.468-54.519,31.047-83.712,48.885C370.034,85.604,369.403,85.773,368.772,85.773z" style="fill:#d98566;"/></g><g><path d="M205.068,481.432c-1.222,0-2.411-0.637-3.066-1.766c-1.176-2.043-0.503-3.747,1.917-6.003     l-7.456,4.312c-1.689,0.977-3.848,0.388-4.824-1.292c-1.34-2.322-0.179-3.851,2.132-5.591c-0.2-0.213-0.376-0.443-0.519-0.697     c-0.073-0.122-0.14-0.243-0.197-0.364c-11.947,5.755-14.958,5.094-16.659,4.73c-2.064-0.449-3.135-1.649-3.669-2.577     c-0.555-0.959-0.685-2.087-0.376-3.185c0.246-0.873,0.898-1.85,2.114-3.026c-0.455-0.813-0.876-2.037-0.646-3.614     c-0.203-0.012-0.412-0.042-0.612-0.097c-0.919-0.242-1.701-0.831-2.174-1.655c-0.473-0.813-0.646-1.771-0.509-2.724     c-1.431-0.624-2.25-1.601-2.708-2.383c-0.939-1.638-0.434-3.729,1.162-4.742l44.949-28.697     c-17.017,9.843-33.136,19.164-46.602,26.963c-1.667,0.964-3.802,0.418-4.793-1.237c-0.998-1.649-0.482-3.796,1.158-4.815     l16.295-10.164l-23.011,13.281c-0.81,0.467-1.774,0.601-2.681,0.352c-0.906-0.236-1.674-0.83-2.144-1.643     c-1.974-3.415,1.456-6.453,5.879-9.843l-4.676,2.698c-1.616,0.922-3.681,0.443-4.712-1.115c-0.752-1.135-0.764-2.56-0.133-3.676     c-9.521,5.331-10.258,5.149-11.517,4.821c-0.918-0.236-1.746-0.854-2.219-1.68c-0.904-1.564-0.485-3.56,0.976-4.621l9.852-7.18     c-3.281,2.019-6.555,4.051-9.778,6.058c-0.81,0.51-1.795,0.661-2.72,0.431c-0.931-0.23-1.728-0.831-2.205-1.661     c-1.719-2.978,0.346-4.391,5.334-7.817c2.744-1.886,6.631-4.5,11.14-7.532c5.279-3.554,12.55-8.441,19.897-13.486     c-6.825,4.287-15.027,9.557-24.873,16.004c-2.532,1.649-4.099,2.68-5.161,3.305l-0.109,0.079l-0.006-0.019     c-1.64,0.946-2.007,0.861-2.938,0.637c-1.331-0.315-2.362-1.364-2.641-2.705c-0.148-0.691-0.079-1.4,0.173-2.031     c-3.269,1.595-5.576,2.146-7.298,1.777c-1.304-0.285-2.377-1.062-3.023-2.178c-1.552-2.692,0.57-4.348,2.626-5.949     c0.164-0.133,0.337-0.261,0.516-0.4c-0.649,0.013-1.122-0.084-1.519-0.169c-1.362-0.292-2.468-1.08-3.126-2.214     c-0.825-1.432-0.542-3.227,0.625-4.324c-8.484,4.197-9.988,3.839-11.165,3.554c-1.098-0.272-2.007-0.939-2.547-1.88     c-1.643-2.832,0.819-4.578,2.79-5.985c1.161-0.825,2.835-1.995,4.845-3.402c1.195-0.831,2.741-1.916,4.527-3.165     c-4.269,2.687-8.614,5.464-12.832,8.211c-1.607,1.037-3.751,0.612-4.833-0.964c-0.531-0.765-0.716-1.674-0.585-2.529     c-3.787,1.753-4.618,1.547-5.506,1.334c-1.004-0.248-1.834-0.873-2.341-1.753c-0.291-0.509-0.446-1.055-0.473-1.601     c-1.777,0.643-2.353,0.497-2.993,0.346c-0.925-0.242-1.808-0.892-2.283-1.722c-1.768-3.063,1.116-4.815,3.223-6.096     c0.243-0.151,0.506-0.303,0.792-0.473c-0.097-0.109-0.185-0.225-0.27-0.346c-0.895-1.31-0.794-3.026,0.161-4.215     c-1.313,0.268-2.732-0.23-3.572-1.389c-0.591-0.813-0.783-1.795-0.61-2.717c-1.573,0.582-2.592,0.643-3.529,0.431     c-1.076-0.255-1.971-0.916-2.514-1.855c-1.106-1.917-1.028-3.784,1.295-6.55c-1.986,1.043-2.854,1.073-3.884,0.85     c-0.967-0.213-1.907-0.898-2.401-1.759c-0.246-0.425-0.394-0.825-0.473-1.207c-1.537,0.54-2.668,0.637-3.629,0.425     c-1.162-0.268-2.117-0.965-2.699-1.965c-0.528-0.916-1.04-2.408-0.564-4.367c-0.04-0.018-0.073-0.023-0.112-0.03     c-0.712-0.188-1.395-0.618-1.895-1.176c-4.06,1.521-6.886,2.007-8.711,1.583c-1.434-0.34-2.599-1.177-3.284-2.359     c-0.197-0.346-0.352-0.68-0.449-1.007c-6.067,3.28-6.601,3.142-7.562,2.887c-0.913-0.236-1.698-0.837-2.171-1.662     c-0.519-0.897-1.019-2.389-0.424-4.372c0.246-0.837,0.601-2.031,2.332-4.039c-0.206-0.77-0.267-1.722,0.037-2.844     c0.403-1.48,1.477-3.075,3.287-4.895c-0.197-0.018-0.391-0.066-0.618-0.115c-0.974-0.212-1.816-0.83-2.311-1.691     c-0.974-1.68-0.4-3.833,1.276-4.81c0.331-0.193,0.661-0.388,0.992-0.582c1.479-0.988,4.746-3.299,8.16-5.706     c0.715-0.504,1.419-1.007,2.123-1.498c-9.582,5.7-18.821,11.23-27.005,16.144c-0.813,0.484-1.786,0.624-2.705,0.382     c-0.919-0.23-1.698-0.831-2.171-1.649c-0.673-1.165-0.834-2.565-0.449-3.942c0.364-1.304,1.319-2.729,2.911-4.323     c-1.477,0.388-3.096-0.213-3.927-1.577c-1.003-1.655-0.497-3.803,1.134-4.833l5.324-3.354c-2.301,0.133-3.684-0.17-4.69-0.383     c-3.357-0.722-5.049-2.583-5.876-4.015c-0.837-1.455-1.638-3.869-0.667-7.119c0.946-3.178,3.584-6.78,7.744-10.795     c0.251-0.648,0.737-1.249,2.744-2.51c0.752-0.655,1.537-1.322,2.362-2.002c-0.913-0.709-1.522-1.51-1.922-2.201     c-0.476-0.818-0.601-1.808-0.343-2.723c0.258-0.91,0.874-1.692,1.708-2.141c0.23-0.134,5.476-3.002,14.642-8.042     c-1.137-0.297-2.074-0.994-2.629-1.965c-0.97-1.68-0.406-3.82,1.265-4.809c7.805-4.603,16.492-9.733,25.898-15.288     c-2.274-0.644-3.478-2.014-4.094-3.075c-0.952-1.652-0.421-3.769,1.201-4.772l25.659-15.879     c-0.922,0.058-1.708,0.012-2.356-0.146c-1.953-0.479-2.969-1.625-3.475-2.501c-0.479-0.822-0.937-2.184-0.424-3.973     c0.803-2.798,4.794-6.686,12.15-11.904c0.324-0.427,0.74-0.779,1.222-1.025c0.039-0.021,0.37-0.191,0.97-0.497     c3.036-2.077,6.55-4.345,10.564-6.826c-1.258,0.343-2.205,0.397-2.947,0.225c-1.134-0.267-2.071-0.952-2.632-1.929     c-0.516-0.888-0.646-1.94-0.373-2.962c0.361-1.34,0.822-3.047,14.967-12.529c-0.482-1.122-0.546-2.408-0.164-3.669     c1.143-3.802,7.274-8.639,19.43-15.68c-0.067-1.549,1.146-2.689,2.244-3.48c-0.151-0.188-0.294-0.392-0.418-0.604     c-0.949-1.649-0.421-3.757,1.192-4.764l9.121-5.691c-0.133-0.182-0.249-0.361-0.349-0.531c-0.488-0.846-0.958-2.241-0.428-4.103     c0.561-1.974,1.695-5.955,22.596-19.794c0.521-1.559,2.125-3.326,5.227-5.722c-0.318-0.27-0.594-0.594-0.803-0.952     c-1.474-2.544,0.597-4.391,1.834-5.495c0.749-0.667,1.834-1.61,3.15-2.738c2.586-2.226,6.08-5.179,9.627-8.19     c2.269-1.919,4.852-4.108,7.238-6.14c-0.194-1.346,0.403-2.741,1.628-3.502c7.911-4.921,8.15-4.863,9.706-4.475     c0.931,0.233,1.734,0.84,2.217,1.667c0.352,0.616,0.567,1.137,0.618,1.641c10.74-6.72,16.119-9.084,19.197-8.381     c1.24,0.288,2.256,1.027,2.865,2.08c0.6,1.046,0.725,2.062,0.455,3.077c5.482-3.011,8.912-4.854,9.002-4.9     c1.653-0.885,3.706-0.324,4.682,1.277c0.74,1.207,0.661,2.695-0.085,3.812l5.164-3.224c1.619-1.013,3.748-0.555,4.81,1.031     c0.321,0.479,0.509,1.016,0.569,1.552c8.666-5.282,14.094-8.59,14.094-8.59l0.036,0.067c1.407-0.77,1.795-0.682,2.608-0.488     c1.237,0.291,2.207,1.222,2.571,2.417l1.34-0.773c0.813-0.467,1.771-0.594,2.681-0.352c0.897,0.243,1.68,0.833,2.146,1.646     c0.158,0.288,0.327,0.625,0.467,1.01c0.37,0.027,0.716,0.073,1.037,0.146c0.024,0.006,0.049,0.009,0.067,0.015     c8.381-3.778,14.523-5.455,18.09-4.624c1.765,0.409,2.893,1.276,3.602,2.128c8.284-4.03,14.288-5.794,17.938-4.982     c2.396,0.534,3.651,1.938,4.27,3.023c0.182,0.309,0.315,0.637,0.419,0.979c1.066-0.622,1.892-1.073,2.534-1.395l0.304-0.185     l0.024,0.03c1.559-0.734,2.007-0.631,2.656-0.47c0.685,0.167,1.31,0.542,1.788,1.058     c64.805-42.372,105.509-65.865,118.747-62.796c2.766,0.643,4.185,2.231,4.888,3.45c1.832,3.169-0.892,5.009-5.397,8.063     c-2.893,1.956-7.259,4.779-12.996,8.39c-10.618,6.689-26.325,16.347-46.689,28.7c-28.739,17.441-67.084,40.468-114.246,68.606     c1.164-0.437,2.207-0.758,3.129-0.964C382.818,86.156,468.932,33.22,469.854,32.653c0.818-0.5,1.795-0.652,2.717-0.416     c0.934,0.233,1.717,0.831,2.195,1.655c0.443,0.773,0.88,2.05,0.406,3.742c-1.122,4.011-3.972,14.182-179.104,115.056     c-2.165,4.958-8.218,11.201-17.411,18.478c0.449,0.294,0.824,0.694,1.092,1.167c0.558,0.961,0.691,2.107,0.376,3.229     c-0.589,2.147-1.655,5.977-49.013,34.846c-18.714,12.908-41.219,28.178-64.264,43.224c-11.756,7.677-22.502,14.548-32.323,20.698     c-0.012,0.479-0.082,1.019-0.243,1.589c-0.127,0.461-0.318,0.946-0.57,1.432c8.502-4.53,9.345-4.307,10.406-4.039     c0.916,0.236,1.752,0.867,2.226,1.686c1.204,2.086,0.785,4.185-2.022,7.223c0.846,0.558,1.386,1.249,1.722,1.838     c0.47,0.807,0.925,2.128,0.455,3.869c-0.916,3.341-5.698,7.459-15.267,13.565c0.509,0.315,0.943,0.758,1.246,1.322     c0.255,0.467,0.395,0.977,0.421,1.474c3.324-1.946,6.55-3.839,9.643-5.658c0.815-0.479,1.783-0.606,2.692-0.37     c0.91,0.237,1.686,0.837,2.156,1.656c0.54,0.928,0.746,1.807,0.555,2.723c1.958-1.31,3.799-2.535,5.485-3.663     c14.169-9.46,14.169-9.46,15.885-9.061c0.952,0.225,1.777,0.837,2.265,1.687c0.331,0.576,0.661,1.419,0.634,2.505     c0.23-0.14,0.461-0.285,0.691-0.425c0.813-0.491,1.789-0.643,2.711-0.406c0.925,0.242,1.713,0.837,2.189,1.661     c0.534,0.922,0.661,2.008,0.364,3.063c-0.943,3.342-5.798,6.393-37.081,23.324c-0.84,0.454-1.68,0.915-2.532,1.37     c0.74,0.4,1.346,0.982,1.765,1.704c0.488,0.849,0.588,1.808,0.358,2.681c1.177,0.4,2.138,1.164,2.741,2.214     c2.074,3.584-1.801,6.331-7.174,10.127c-2.626,1.855-5.913,4.063-9.533,6.452c0.097,0.013,0.191,0.037,0.282,0.055     c1.037,0.243,1.901,0.886,2.422,1.789c0.879,1.522,0.507,3.457-0.873,4.549l-0.852,0.667c0.037,0.006,0.076,0.018,0.115,0.023     c1.061,0.255,1.94,0.898,2.474,1.82c0.67,1.158,0.612,2.553-0.061,3.632l5.81-3.354c1.689-0.977,3.848-0.394,4.827,1.298     c0.225,0.395,0.397,0.795,0.503,1.194c4.606-2.808,9.239-5.651,13.775-8.453c0.813-0.497,1.792-0.655,2.72-0.413     c0.928,0.23,1.719,0.831,2.195,1.65c1.486,2.577,0.143,4.918-3.621,8.132c1.049,1.571,0.67,3.693-0.858,4.815l-1.507,1.092     c0.003,0,0.003,0,0.003,0c1.046,0.254,1.91,0.891,2.438,1.807c1.595,2.76,0.249,5.313-7.159,11.365     c16.638-9.994,36.414-22.336,54.977-34.246c1.619-1.037,3.772-0.594,4.842,1.001c1.074,1.601,0.67,3.76-0.907,4.857     l-32.229,22.56c0.594,0.315,1.094,0.782,1.434,1.377c0.782,1.352,0.704,2.395,0.051,3.407c5.561-3.323,8.551-4.323,10.755-3.832     c1.261,0.272,2.295,1.024,2.917,2.098c0.594,1.025,0.615,2.238,0.151,3.245c5.57-2.669,7.635-2.826,9.036-2.486     c1.152,0.267,2.098,0.964,2.668,1.952c1.861,3.214-1.307,6.113-4.679,8.896c0.321,0.013,0.576,0.079,0.84,0.14     c0.928,0.236,1.84,0.903,2.316,1.734c0.904,1.57,0.479,3.56-0.977,4.621l-7.714,5.634c1.207-0.733,2.387-1.449,3.523-2.135     c1.61-0.977,3.696-0.521,4.755,1.043c1.055,1.553,0.703,3.669-0.795,4.797l-0.946,0.716l1.022-0.595     c1.692-0.976,3.854-0.388,4.827,1.292c1.401,2.432,0.722,4.621-4.039,8.793l154.894-89.431c1.674-0.971,3.809-0.419,4.803,1.237     c0.988,1.655,0.473,3.796-1.164,4.814l-15.295,9.546c0.134-0.079,0.255-0.151,0.376-0.219c0.521-0.297,1.08-0.606,1.638-0.879     l0.285-0.183l0.024,0.037c1.789-0.801,3.645-1.049,4.937,1.17c0.945,1.638,0.43,3.729-1.158,4.742l-96.267,61.451     c12.875-7.235,26.89-15.137,39.043-22.196c19.023-12.802,32.626-22.323,32.845-22.48c0.813-0.57,1.819-0.764,2.789-0.552     c0.971,0.212,1.801,0.824,2.293,1.686c0.552,0.946,0.685,2.074,0.382,3.172c-0.455,1.655-2.535,3.839-7.114,7.15     c0.104,0.121,0.188,0.242,0.262,0.376c0.558,0.958,1.085,2.541,0.473,4.603c-1.177,3.979-6.896,8.854-17.653,15.458     c-0.006,0.37-0.067,0.746-0.176,1.122c-0.837,3.002-5.773,7.168-17.211,14.245c-0.497,1.589-2.56,3.05-5.931,5.458     c-2.274,1.631-5.392,3.803-9.467,6.61c1.631-0.74,2.038-0.631,2.662-0.461c0.91,0.236,1.692,0.837,2.171,1.649     c0.946,1.649,0.419,3.748-1.188,4.754c-4.221,2.65-8.751,5.501-13.426,8.442c0.103,0.133,0.199,0.272,0.284,0.418     c1.978,3.438-1.067,5.616-9.214,11.443c-0.701,0.504-1.434,1.019-2.192,1.559c0.749,0.285,1.379,0.825,1.783,1.522     c1.613,2.802,0.652,5.052-9.008,12.135c0.182,1.377-0.461,2.783-1.738,3.523c-0.864,0.503-1.858,0.594-2.75,0.333     c-2.025,0.977-6.631,4.458-9.5,6.635c-8.354,6.331-11.298,8.339-14.151,7.75c-1.18-0.236-2.156-0.934-2.753-1.965     c-0.191-0.339-0.327-0.691-0.4-1.062l-8.535,4.931C206.275,481.279,205.666,481.432,205.068,481.432z M219.811,446.749     c-11.458,6.301-22.693,12.59-30.513,17.351C196.912,460.424,207.545,454.323,219.811,446.749z M34.298,307.693     c-3.56,3.287-5.837,6.173-6.543,8.551c-0.303,1.024-0.073,1.419,0.016,1.576c0.142,0.236,0.47,0.431,0.979,0.576     c0.133-0.103,0.267-0.182,0.413-0.267c30.543-16.913,67.369-37.593,103.058-58.009c1.334-0.87,2.668-1.743,4-2.617     c7.914-5.188,15.006-9.821,21.362-13.948c-20.061,10.652-41.316,21.663-63.084,32.784     c-18.515,11.165-33.451,18.976-44.091,22.451c-2.419,1.243-4.639,2.389-6.604,3.42L34.298,307.693z M136.219,289.124     c-1.219,0.916-2.553,1.904-4.008,2.947c-2.05,1.468-4.33,3.068-6.838,4.778c4.961-3.086,9.118-5.87,11.68-8.011     C136.792,288.924,136.517,289.021,136.219,289.124z M144.604,215.77l-59.152,36.613c3.539-1.44,8.157-3.569,14.185-6.698     c16.522-9.773,34.47-20.398,53.215-31.504c17.569-11.165,37.06-23.988,57.211-37.417     C184.392,192.631,162.433,205.775,144.604,215.77z M103.99,226.082c-2.656,1.892-4.476,3.335-5.719,4.436     c2.147-0.594,5.346-1.768,10.097-3.906c-1.188,0.104-2.229,0.061-3.132-0.143C104.782,226.37,104.366,226.233,103.99,226.082z      M155.652,220.724c-1.576,1-3.135,1.989-4.669,2.956c21.592-12.408,47.733-27.653,79.343-46.359     c4.224-2.859,8.187-5.519,11.914-7.999C212.169,187.209,182.427,204.859,155.652,220.724z M154.561,186.937     c-2.947,1.949-5.701,3.76-8.275,5.445c16.149-8.984,35.822-19.588,59.216-32.068c3.663-2.538,7.322-5.085,10.964-7.62     c36.854-25.619,65.489-45.325,85.277-56.593c-1.837,0.567-4.287,1.489-7.574,2.965c-0.31,0.676-0.813,1.247-1.462,1.619     c-3.966,2.271-8.065,4.637-12.298,7.074c-9.97,7.938-27.878,17.905-52.372,30.498c-0.846,0.5-1.698,0.994-2.544,1.495     c-8.221,5.367-16.565,10.895-24.785,16.374C182.002,169.262,166.59,179.769,154.561,186.937z M180.417,141.241     c-8.581,5.64-15.012,10.349-18.124,13.484c0.364-0.109,0.764-0.24,1.201-0.392l24.066-15.015     C183.439,141.105,181.554,141.335,180.417,141.241z M453.898,33.144c-7.259,1.822-23.724,8.702-60.808,31.365     c-33.232,20.313-75.059,48.251-116.618,76.19C358.585,91.726,432.667,47.122,453.898,33.144z M280.227,117.751     c-4.263,2.774-8.684,5.713-13.238,8.766C272.016,123.291,276.395,120.377,280.227,117.751z M312.629,98.236     c-0.497,1.222-1.455,2.957-3.803,5.549c7.581-4.563,13.366-8.344,16.514-10.97C323.023,93.394,319.13,94.855,312.629,98.236z" style="fill:#d98566;"/></g></g></g><g id="Layer_1"/></svg>