<svg width="100" height="100" viewBox="0 0 100 100" fill="none" xmlns="http://www.w3.org/2000/svg">
<g clip-path="url(#clip0_332_56)">
<path d="M50 100C77.6142 100 100 77.6142 100 50C100 22.3858 77.6142 0 50 0C22.3858 0 0 22.3858 0 50C0 77.6142 22.3858 100 50 100Z" fill="#5A99EC"/>
<path d="M39.8964 78.8C64.3186 78.8 77.6742 58.5704 77.6742 41.0222C77.6742 40.4444 77.6594 39.8741 77.6371 39.3037C80.2297 37.4296 82.4816 35.0889 84.2594 32.4296C81.8816 33.4889 79.3186 34.2 76.6371 34.5185C79.3779 32.8741 81.4816 30.2741 82.4742 27.1778C79.9112 28.6963 77.0668 29.8074 74.0446 30.4C71.6223 27.8222 68.1705 26.2074 64.3557 26.2074C57.0223 26.2074 51.0742 32.1555 51.0742 39.4815C51.0742 40.5259 51.1927 41.5333 51.4223 42.5111C40.3853 41.9555 30.6001 36.6741 24.0594 28.637C22.9186 30.6 22.2594 32.8815 22.2594 35.3111C22.2594 39.9185 24.6001 43.9852 28.1705 46.363C25.9927 46.2963 23.9483 45.6963 22.1557 44.7037C22.1557 44.7555 22.1557 44.8148 22.1557 44.8741C22.1557 51.3037 26.7334 56.6741 32.8075 57.8889C31.689 58.1926 30.5186 58.3555 29.3112 58.3555C28.4594 58.3555 27.6223 58.2741 26.8149 58.1185C28.5038 63.3926 33.4075 67.2296 39.2149 67.3407C34.6668 70.9037 28.9483 73.0222 22.726 73.0222C21.652 73.0222 20.6001 72.963 19.5557 72.837C25.4297 76.6 32.4075 78.8 39.9038 78.8" fill="white"/>
</g>
<defs>
<clipPath id="clip0_332_56">
<rect width="100" height="100" fill="white"/>
</clipPath>
</defs>
</svg>
