<svg width="100" height="100" viewBox="0 0 100 100" fill="none" xmlns="http://www.w3.org/2000/svg">
<g clip-path="url(#clip0_332_47)">
<path d="M50 100C77.6142 100 100 77.6142 100 50C100 22.3858 77.6142 0 50 0C22.3858 0 0 22.3858 0 50C0 77.6142 22.3858 100 50 100Z" fill="#FEE712"/>
<path d="M50.4742 75.5259C48.3556 75.5407 46.2519 75.4444 44.1556 75.1481C43.8371 75.1037 43.5853 75.1629 43.3186 75.3555C39.1556 78.2741 35.0001 81.2 30.7038 83.9259C30.1853 84.2592 29.6371 84.5481 29.0964 84.8592C28.9038 84.9703 28.7038 85.037 28.4816 85.0666C27.7927 85.1629 27.3927 84.7555 27.5408 84.0741C27.7927 82.8741 28.1556 81.7037 28.489 80.5259C29.3334 77.5555 30.1853 74.5852 31.0371 71.6148C31.1112 71.3555 31.089 71.2296 30.8149 71.0963C26.763 69.0444 23.1853 66.3704 20.2742 62.8666C17.3927 59.4 15.4445 55.4889 14.7482 51.0148C13.9556 45.8963 14.8593 41.0592 17.326 36.5185C19.7408 32.074 23.2297 28.6296 27.4371 25.8889C31.9334 22.9703 36.8667 21.1481 42.1186 20.2C46.0371 19.4963 49.9853 19.3185 53.9482 19.6815C61.4075 20.3555 68.289 22.6592 74.3556 27.1333C78.3853 30.1037 81.6223 33.7629 83.5927 38.4074C86.7482 45.837 86.089 53.0296 81.889 59.8815C79.2001 64.2741 75.4223 67.5703 70.9927 70.1333C66.763 72.5852 62.2075 74.1333 57.3853 74.9407C55.0964 75.3259 52.7853 75.5259 50.4593 75.5407L50.4742 75.5259Z" fill="black"/>
<path d="M66.978 45.5851C67.0521 45.474 67.1187 45.3555 67.215 45.2592C68.9632 43.5037 70.7187 41.7481 72.4743 40C73.1335 39.3407 73.941 39.2444 74.7261 39.7185C75.5113 40.1926 75.9039 41.1185 75.6669 41.9333C75.578 42.2444 75.3854 42.4888 75.1558 42.7185C73.7187 44.1481 72.2891 45.5926 70.8447 47.0148C70.6447 47.2148 70.6521 47.3259 70.815 47.5407C72.415 49.6444 74.0076 51.7629 75.6002 53.874C76.2965 54.8 76.2002 55.9777 75.3854 56.7037C74.4743 57.5111 73.1261 57.3851 72.3632 56.3851C70.9336 54.5111 69.5187 52.6296 68.1039 50.7481C68.0669 50.6963 68.0373 50.6444 67.9928 50.6C67.8224 50.437 67.778 50.1259 67.5187 50.1111C67.3187 50.0963 66.8521 50.8296 66.8521 51.0666C66.8521 52.474 66.8595 53.8889 66.8447 55.2963C66.8298 56.2814 66.141 57.0592 65.1558 57.2518C64.2669 57.4222 63.3336 56.9333 62.9484 56.0814C62.8224 55.8 62.7632 55.5111 62.7632 55.2C62.7632 50.5481 62.7632 45.8963 62.7632 41.237C62.7632 40.0666 63.6669 39.1629 64.8002 39.1555C65.9336 39.1555 66.8373 40.0518 66.8521 41.2222C66.8669 42.5555 66.8521 43.8963 66.8521 45.2296V45.5111L66.978 45.5926V45.5851Z" fill="#FEE712"/>
<path d="M42.4888 53.7037C41.5406 53.7037 40.5925 53.7037 39.6443 53.7037C39.4295 53.7037 39.3258 53.7629 39.2517 53.9703C39.0073 54.6444 38.748 55.3037 38.4888 55.9777C38.0962 57.0074 37.3777 57.4222 36.2665 57.2592C34.8295 57.0444 34.3406 56.3185 34.6443 54.8444C34.8369 53.9259 35.2369 53.074 35.5628 52.2074C36.948 48.5481 38.3332 44.8888 39.7258 41.2296C40.1332 40.1555 40.8888 39.437 42.0221 39.2074C43.311 38.9481 44.6665 39.7777 45.1851 41.1185C45.9554 43.1185 46.711 45.1259 47.4739 47.1333C48.3332 49.3851 49.1925 51.637 50.0443 53.8962C50.2814 54.5259 50.4295 55.1703 50.3702 55.8518C50.3184 56.437 50.0369 56.8518 49.474 57.0592C49.0591 57.2074 48.6369 57.3037 48.1925 57.274C47.3777 57.2222 46.7628 56.9111 46.4962 56.0592C46.2814 55.3703 45.9777 54.7036 45.7332 54.0148C45.6517 53.7851 45.5554 53.6962 45.2962 53.7037C44.3628 53.7259 43.4221 53.7111 42.4888 53.7111V53.7037Z" fill="#FEE712"/>
<path d="M28.2963 49.3777C28.2963 47.437 28.2963 45.4888 28.2963 43.5481C28.2963 43.2444 28.2445 43.1259 27.9037 43.1407C26.9926 43.1703 26.0815 43.1555 25.1704 43.1481C23.9778 43.1481 23.0963 42.3037 23.0889 41.1777C23.0815 40.0296 23.9556 39.1407 25.1556 39.1407C28.6148 39.1333 32.0741 39.1333 35.5408 39.1407C36.6297 39.1407 37.4889 39.9037 37.6 40.9185C37.7111 41.9185 37.0815 42.8222 36.1037 43.0888C35.9037 43.1481 35.6963 43.1481 35.4889 43.1481C34.5778 43.1481 33.6667 43.1629 32.7556 43.1481C32.4593 43.1481 32.4 43.2444 32.4 43.5185C32.4074 47.3925 32.4 51.2666 32.4 55.1407C32.4 56.1777 31.8889 56.9185 30.9926 57.1999C29.6297 57.6296 28.3037 56.6814 28.2963 55.2518C28.2815 53.2962 28.2963 51.3407 28.2963 49.3851V49.3777Z" fill="#FEE712"/>
<path d="M51.4596 48.1259C51.4596 45.8148 51.4596 43.5111 51.4596 41.2C51.4596 40.1185 52.2373 39.2888 53.341 39.1481C54.3262 39.0222 55.304 39.6963 55.5707 40.6888C55.6373 40.9407 55.6299 41.1926 55.6299 41.4444C55.6299 45.2444 55.6299 49.0444 55.6299 52.8518C55.6299 53.1777 55.7114 53.2592 56.0299 53.2518C57.3633 53.2296 58.704 53.2296 60.0373 53.2518C61.0818 53.2666 61.9114 54.0518 61.9559 55.0148C62.0003 56.037 61.2003 56.9629 60.1633 56.9777C57.8596 57.0074 55.5484 57.0074 53.2373 56.9777C52.2373 56.9629 51.4521 56.1037 51.4521 55.0888C51.4521 52.7703 51.4521 50.4518 51.4521 48.1259H51.4596Z" fill="#FEE712"/>
<path d="M42.4814 44.2592C43.1777 46.2444 43.8444 48.1407 44.5258 50.074H41.9407C41.5407 50.074 41.1407 50.0592 40.7407 50.074C40.4814 50.0888 40.4444 50.0222 40.5258 49.7777C41.0518 48.3111 41.5703 46.8296 42.0888 45.3555C42.2073 45.0222 42.3184 44.6963 42.474 44.2592H42.4814Z" fill="black"/>
</g>
<defs>
<clipPath id="clip0_332_47">
<rect width="100" height="100" fill="white"/>
</clipPath>
</defs>
</svg>
