<?xml version="1.0" ?><!DOCTYPE svg  PUBLIC '-//W3C//DTD SVG 1.1//EN'  'http://www.w3.org/Graphics/SVG/1.1/DTD/svg11.dtd'><svg height="512px" style="enable-background:new 0 0 512 512;" version="1.1" viewBox="0 0 512 512" width="512px" xml:space="preserve" xmlns="http://www.w3.org/2000/svg" xmlns:xlink="http://www.w3.org/1999/xlink"><g id="_x37_5"><g><g><path d="M271.749,328.633c-0.243,0-0.491-0.023-0.752-0.078c-1.001-0.2-1.946-0.873-2.45-1.759     c-0.74-1.279-0.601-2.862,0.321-3.99c-1.34,0.897-2.771,1.868-4.294,2.904c-3.729,2.554-4.035,2.76-5.597,2.414     c-1.319-0.297-2.353-1.322-2.666-2.638c-0.082-0.37-0.109-0.74-0.079-1.098l-3.881,2.237c-0.81,0.467-1.771,0.601-2.681,0.352     c-0.903-0.236-1.677-0.831-2.141-1.644c-0.985-1.697-1.725-2.983,5.176-10.206c-14.151,9.849-18.242,12.311-21.244,11.638     c-1.128-0.255-2.056-0.928-2.62-1.904c-0.956-1.649-0.419-3.772,1.207-4.772c0.676-0.419,1.358-0.837,2.038-1.256     c-0.995-0.321-1.819-0.976-2.335-1.874c-1.658-2.717,0.558-4.323,2.908-6.021c0.576-0.418,1.143-0.824,1.701-1.225     c-0.097-0.024-0.194-0.043-0.288-0.067c-0.916-0.236-1.704-0.849-2.177-1.661c-1.346-2.329-0.8-4.409,3.363-8.26     c-1.947,1.152-3.821,2.25-5.57,3.293c-0.815,0.473-1.786,0.612-2.695,0.376c-0.913-0.243-1.692-0.837-2.162-1.655     c-1.365-2.359-1.089-4.3,5.794-10.85c-0.079-0.019-0.161-0.036-0.243-0.055c-0.903-0.248-1.674-0.837-2.144-1.655     c-1.098-1.898-1.607-2.79,8.138-16.884c-0.482-1.54,0.152-3.269,1.613-4.111c0.249-0.146,0.515-0.261,0.785-0.333     c0.406-0.243,1.149-0.71,1.798-1.146c1.416-0.958,3.308-0.771,4.5,0.448c1.195,1.22,1.349,3.117,0.367,4.513     c-1.334,1.886-2.72,3.893-4.048,5.852l13.581-7.847c1.689-0.977,3.852-0.4,4.827,1.291c1.522,2.639-0.487,4.385-2.619,6.229     c-1.226,1.073-2.978,2.541-5,4.245c-0.164,0.14-0.336,0.285-0.512,0.442c22.365-13.099,22.845-12.966,24.318-12.584     c0.909,0.237,1.697,0.838,2.171,1.656c1.522,2.638,0.661,4.536-5.677,9.551c0.546-0.314,1.073-0.643,1.602-0.945     c0.807-0.485,1.776-0.619,2.692-0.383c0.909,0.243,1.698,0.831,2.165,1.65c0.473,0.824,0.637,1.552,0.533,2.268     c4.488-2.62,6.24-3.02,7.836-2.656c1.085,0.249,1.977,0.904,2.517,1.844c1.989,3.45-1.025,6.586-8.539,12.322     c-0.164,0.115-0.315,0.243-0.479,0.364c0.789,1.438,0.479,3.238-0.758,4.33c-3.244,2.874-6.586,5.9-9.745,8.812l14.487-8.369     c1.602-0.909,3.633-0.461,4.676,1.056c1.049,1.516,0.758,3.578-0.673,4.748l-3.481,2.839c0.353,0.278,0.644,0.63,0.874,1.03     c1.158,2.001,1.897,3.287-8.369,14.233c-0.055,1.158-0.679,2.268-1.753,2.893c-0.061,0.03-0.115,0.066-0.176,0.097     c-0.072,0.049-0.14,0.104-0.218,0.164C274.49,327.699,273.265,328.633,271.749,328.633z M242.14,268.639     c0.258,0.236,0.485,0.516,0.67,0.837C242.622,269.148,242.395,268.869,242.14,268.639z" style="fill:#E24F3F;"/></g><g><path d="M240.46,223.462c-0.288,0-0.54-0.069-0.861-0.154c-1.119-0.3-2.02-1.125-2.411-2.214     c-0.397-1.088-0.23-2.298,0.437-3.241c0.285-0.4,0.57-0.807,0.858-1.219c-3.175,1.965-4.218,2.268-5.649,1.931     c-0.946-0.227-1.813-0.873-2.299-1.716c-0.846-1.461-0.533-3.317,0.737-4.427c0.688-0.601,1.392-1.219,2.092-1.844     c-0.221-0.024-0.43-0.063-0.637-0.112c-1.061-0.239-1.943-0.885-2.477-1.81c-0.977-1.689-0.4-3.851,1.289-4.827     c0.686-0.397,1.449-0.534,2.177-0.449c1.234-0.521,4.651-2.362,14-8.76c1.713-1.174,2.501-1.713,4.021-1.362     c0.958,0.215,1.783,0.828,2.274,1.677c0.834,1.44,1.683,2.911-2.856,8.22c0.439,0.31,0.822,0.707,1.083,1.165     c0.658,1.14,1.098,1.898-0.576,5.061c0.385-0.222,0.755-0.437,1.107-0.646c1.686-0.979,3.851-0.407,4.83,1.279     s0.406,3.851-1.276,4.831l-6.999,4.06C242.889,222.634,241.463,223.462,240.46,223.462z" style="fill:#B6302D;"/></g><g><path d="M215.538,270.379c-0.352,0-0.673-0.042-0.979-0.109c-1.07-0.254-1.952-0.909-2.492-1.837     c-0.9-1.564-0.479-3.554,0.974-4.615c1.504-1.098,3.032-2.237,4.563-3.39c-1.173,0.363-2.144,0.434-3.041,0.239     c-1.192-0.258-2.18-0.968-2.778-2.001c-0.794-1.377-0.828-2.605,0.17-4.23c-2.332,1.189-3.963,1.55-5.391,1.247     c-1.188-0.258-2.171-0.967-2.762-1.995c-1.731-2.996,0.913-5.055,4.263-7.656c1.052-0.819,2.295-1.759,3.626-2.748     c-0.137-0.357-0.203-0.694-0.212-1.021c-0.133-0.024-0.276-0.055-0.427-0.094c-0.931-0.23-1.744-0.843-2.223-1.674     c-0.106-0.185-0.194-0.364-0.267-0.537c-0.855,0.3-1.495,0.307-2.234,0.13c-0.956-0.218-1.844-0.87-2.332-1.722     c-0.792-1.368-0.576-3.093,0.528-4.23c1.049-1.077,2.113-2.18,3.175-3.284c-1.159,0.124-2.329-0.331-3.105-1.276     c-0.815-0.995-1.003-2.323-0.576-3.472c-2.265,1.383-4.585,2.799-6.834,4.19c-1.656,1.031-3.833,0.516-4.861-1.14     c-1.031-1.662-0.516-3.839,1.143-4.863c24.597-15.228,25.455-15.013,27.168-14.582c0.928,0.23,1.759,0.852,2.235,1.683     c0.519,0.898,0.604,1.956,0.288,2.896c1.482-0.358,3.083,0.282,3.884,1.665c1.171,2.022,0.849,3.326-3.28,8.026     c0.928,0.261,1.719,0.876,2.201,1.707c0.333,0.582,0.488,1.228,0.473,1.865c0.837,0.27,1.571,0.858,2.014,1.623     c0.155,0.261,0.267,0.54,0.346,0.824c0.358-0.024,0.716,0.003,1.076,0.067c1.137,0.212,2.12,0.897,2.717,1.874     c3.442-2.12,5.225-2.653,6.896-2.292c1.137,0.243,2.074,0.925,2.644,1.91c0.913,1.577,0.855,2.881-0.688,4.873     c3.12-1.865,4.803-2.335,6.377-1.992c1.134,0.246,2.068,0.925,2.638,1.907c0.913,1.58,2.029,3.511-5.342,10.74     c0.625,0.309,1.149,0.797,1.504,1.407c0.63,1.101,0.627,2.45-0.012,3.544c-0.992,1.701-2.029,3.539-2.999,5.304     c0.843-0.562,1.619-1.08,2.241-1.504c5.561-3.735,6.144-4.129,7.908-3.72c0.949,0.221,1.789,0.843,2.283,1.689     c0.977,1.686,0.4,3.848-1.289,4.824c-0.257,0.151-0.527,0.267-0.8,0.343c-0.779,0.458-2.632,1.707-4.16,2.732     c-9.9,6.664-12.047,7.731-14.342,7.198c-1.046-0.236-1.916-0.873-2.444-1.789c-0.637-1.109-1.137-1.971,0.892-6.416     C221.991,268.396,217.973,270.379,215.538,270.379z M249.923,257.347c0.215,0.376,0.485,0.686,0.776,0.931     C250.396,258.02,250.129,257.707,249.923,257.347z" style="fill:#B6302D;"/></g><g><path d="M188.063,248.199c-0.197,0-0.394-0.018-0.594-0.055c-1.034-0.176-1.938-0.804-2.462-1.713     c-0.506-0.879-0.882-1.528,0-5.485c-3.603,2.235-5.006,2.617-6.525,2.266c-1.019-0.23-1.898-0.88-2.417-1.777     c-1.001-1.728-0.861-3.174,1.122-5.279c-0.891,0.331-1.307,0.228-1.931,0.082c-0.94-0.227-1.768-0.843-2.253-1.68     c-0.285-0.494-0.434-1.025-0.464-1.555c-1.277,0.833-2.544,1.67-3.809,2.504c-1.625,1.073-3.817,0.628-4.894-1.004     c-1.073-1.628-0.622-3.817,1.003-4.891c0.191-0.13,19.604-12.932,39.64-25.358c41.692-25.861,45.398-24.991,47.608-24.47     c1.167,0.273,2.125,0.974,2.699,1.965c0.736,1.286,0.837,2.444,0.115,3.772c0.4,0.324,0.743,0.722,1.003,1.173     c1.965,3.408-0.613,5.143-10.2,11.61c-5.764,3.888-13.618,8.984-21.932,14.388c-9.039,5.873-20.746,13.478-29.473,19.421     c0.137,0.588,0.115,1.204-0.058,1.789c-0.582,1.962-1.194,4.145-1.686,6.028c0.561,0.321,1.027,0.782,1.355,1.355     c0.982,1.689,0.403,3.848-1.289,4.824c-0.391,0.228-0.81,0.37-1.234,0.437c-0.309,0.222-0.709,0.531-1.031,0.804     C189.719,247.898,188.9,248.199,188.063,248.199z M187.803,244.83c0.155,0.267,0.337,0.497,0.528,0.691     C188.13,245.318,187.955,245.084,187.803,244.83z" style="fill:#B6302D;"/></g><g><path d="M279.336,272.241c-0.292,0-0.595-0.043-0.886-0.115c-0.916-0.23-1.698-0.831-2.171-1.656     c-1.11-1.922-0.952-3.401,2.462-6.877c-0.807-0.267-1.492-0.818-1.923-1.559c-0.843-1.449-0.691-2.55,0.055-3.565l-8.587,4.954     c-0.813,0.474-1.776,0.595-2.681,0.358c-0.903-0.249-1.674-0.844-2.146-1.649c-1.726-2.99-0.012-5.37,5.864-9.349     c-0.03-0.042-0.055-0.085-0.079-0.133c-0.527-0.91-1.037-2.405-0.455-4.36c0.109-0.379,0.273-0.773,0.474-1.17     c-0.831-0.252-1.571-0.804-2.038-1.616c-0.048-0.082-0.097-0.17-0.139-0.261c-3.657,0.998-5.106,0.667-6.135,0.434     c-1.974-0.449-2.996-1.598-3.508-2.483c-0.952-1.649-0.422-3.76,1.197-4.77l38.142-23.678c-3.475,1.131-6.167,1.479-8.12,1.034     c-2.201-0.5-3.348-1.786-3.924-2.783c-0.503-0.879-0.764-1.786-0.527-2.896c-20.219,10.849-22.98,10.188-24.772,9.758     c-1.207-0.294-2.195-1.016-2.784-2.032c-2.022-3.502,1.486-6.753,5.918-10.34c1.371-1.109,3.021-2.368,4.925-3.769     c-0.291-0.291-0.546-0.622-0.752-0.982c-0.485-0.837-0.606-1.832-0.34-2.753c0.14-0.458,0.352-0.874,0.648-1.234     c-2.025-0.664-3.123-1.922-3.699-2.923c-0.285-0.494-0.569-1.176-0.631-2.035c-1.625,0.273-2.428,0.085-3.074-0.066     c-1.331-0.307-2.414-1.089-3.053-2.189c-0.467-0.815-0.604-1.877-0.352-2.787c0.61-2.256,1.396-2.877,26.759-17.284     c15.75-8.938,35.338-20.063,51.541-30.385c19.14-12.183,25.301-18.102,27.278-20.71c-4.221,0.97-16.308,5.843-49.667,27.635     c-22.699,14.824-44.07,30.198-44.289,30.353c-1.582,1.14-3.79,0.779-4.93-0.801c-1.141-1.586-0.782-3.793,0.801-4.934     c0.218-0.154,21.716-15.619,44.549-30.534c47.313-30.898,54.105-29.439,57.011-28.818c2.099,0.455,3.189,1.674,3.735,2.62     c0.559,0.961,1.092,2.556,0.516,4.7c-0.2,0.707-0.521,1.462-0.982,2.253c3.954-2.234,7.229-4.093,8.642-4.939     c0.285-0.191,0.57-0.379,0.855-0.57c0.813-0.542,1.813-0.728,2.771-0.506c0.952,0.221,1.765,0.828,2.256,1.677     c0.473,0.815,0.595,1.792,0.346,2.705c-0.188,0.691-0.297,1.083-1.474,1.938l0.036,0.058     c-0.272,0.182-27.459,18.39-55.677,36.043c-27.969,17.504-43.821,26.295-53.039,30.631c-1.104,0.97-1.868,1.729-2.407,2.32     c4.597-0.297,20.042-5.088,70.358-38.115c32.299-21.201,63.063-43.645,63.367-43.87c0.818-0.591,1.837-0.818,2.813-0.604     c0.988,0.203,1.831,0.819,2.335,1.689c0.558,0.964,1.092,2.568,0.461,4.736c-0.334,1.122-0.837,2.877-4.088,6.268     c0.897,1.592,0.431,3.624-1.098,4.658c-0.225,0.154-17.763,12.031-39.909,26.374c4.287-2.647,8.793-5.409,13.529-8.317     c1.68-1.028,3.348-2.05,4.985-3.054c8.721-5.524,17.053-10.852,24.657-15.758c0.807-0.521,1.808-0.691,2.747-0.464     c0.934,0.228,1.74,0.831,2.22,1.667c1.747,3.023-1.092,4.946-3.165,6.35c-1.39,0.937-3.439,2.256-6.271,4.042     c-4.59,2.884-10.813,6.701-18.011,11.113c-12.675,8.02-28.605,18.005-44.713,27.869c-2.893,1.768-5.683,3.469-8.356,5.101     c-16.592,10.579-31.626,20.601-38.248,26.24c3.354-1.116,9.151-3.681,19.091-9.394l54.101-35.025     c2.692-1.837,5.306-3.629,7.828-5.355c28.818-19.739,30.25-20.416,32.814-19.833c0.965,0.218,1.898,0.897,2.396,1.749     c0.298,0.522,0.449,1.089,0.467,1.653c6.78-3.278,7.921-2.984,8.945-2.729c1.019,0.255,1.874,0.886,2.39,1.783     c0.952,1.649,0.424,3.76-1.201,4.767l-11.255,6.992c0.654,0.303,1.206,0.803,1.564,1.437c0.467,0.792,0.903,2.017,0.648,3.596     c1.547-0.5,3.299,0.127,4.143,1.598c0.618,1.058,1.2,2.805,0.527,5.097c-2.941,9.915-31.231,24.955-77.473,48.545     c-10.346,5.279-22.201,11.322-32.881,17.065c0.212,0.206,0.395,0.445,0.54,0.703c0.333,0.573,0.539,1.137,0.624,1.707     l0.007-0.009c1.691-0.977,3.851-0.4,4.827,1.292c1.564,2.705,0.363,5.082-6.446,10.852c0.072,0.109,0.151,0.219,0.212,0.334     c1.553,2.684-0.546,4.515-2.983,6.631c-0.752,0.655-1.662,1.434-2.687,2.289c0.728,0.297,1.34,0.828,1.734,1.507     c0.976,1.691,0.399,3.854-1.292,4.827c-0.261,0.154-0.54,0.267-0.818,0.346c-1.874,0.916-11.014,6.289-19.158,11.183     C280.603,272.071,279.973,272.241,279.336,272.241z M296.31,258.917c0.558,0.968,1.395,1.471,2.22,1.662     C297.632,260.36,296.807,259.787,296.31,258.917z M281.5,202.482c-2.541,1.716-4.881,3.323-6.979,4.797     c6.35-3.253,14.457-7.763,23.681-13.09C290.81,198.216,285.448,200.817,281.5,202.482z M367.142,179.377l-15.841,9.836     c1.122-0.582,2.263-1.17,3.391-1.758C358.809,184.811,362.957,182.112,367.142,179.377z" style="fill:#B6302D;"/></g><g><path d="M348.481,290.064c-0.612,0-1.031-0.092-1.401-0.177c-1.304-0.284-2.371-1.049-3.002-2.146     c-0.921-1.601-0.454-3.645,1.08-4.682l10.467-7.107c-0.539-0.346-0.988-0.813-1.315-1.383c-0.516-0.903-0.68-1.722-0.504-2.528     c-0.272-0.024-0.533-0.085-0.831-0.158c-0.928-0.23-1.765-0.861-2.249-1.691c-0.177-0.298-0.304-0.613-0.376-0.946     c-0.491,0.315-0.977,0.631-1.468,0.946c-0.819,0.527-1.808,0.685-2.747,0.461c-0.935-0.23-1.74-0.831-2.226-1.668     c-0.37-0.643-0.583-1.371-0.619-2.116l-11.983,6.919c-1.686,0.977-3.838,0.395-4.82-1.279c-1.262-2.178-0.146-3.669,1.315-4.791     l-0.024-0.049l0.406-0.236c0.425-0.297,0.861-0.57,1.262-0.824l4.906-3.051c9.715-6.046,18.46-11.504,26.234-16.386     c-0.03-0.052-0.055-0.109-0.085-0.164c-2.311,0.679-3.323,0.467-4.094,0.303c-1.346-0.285-2.456-1.064-3.099-2.195     c-0.764-1.307-0.795-2.577-0.115-3.981c-0.709,0.124-1.098,0.024-1.516-0.079c-0.929-0.236-1.813-0.892-2.293-1.722     c-2.037-3.539,1.353-7.062,10.261-14.121c3.166-2.514,7.107-5.488,11.79-8.89c-13.318,8.335-27.994,17.89-41.99,27.323     c-0.813,0.549-1.825,0.736-2.771,0.512c-0.958-0.218-1.771-0.825-2.268-1.674c-0.759-1.328-0.819-2.532-0.061-3.86l-4.47,2.965     c-1.613,1.074-3.79,0.646-4.876-0.958c-1.092-1.604-0.68-3.778,0.91-4.888c0.061-0.039,2.031-1.407,5.354-3.678     c-0.049-0.012-0.104-0.024-0.146-0.037c-0.946-0.224-1.747-0.828-2.232-1.667c-0.939-1.619-0.909-3.114,0.753-5.215     c-4.209,2.074-4.858,1.91-5.701,1.689c-0.909-0.237-1.734-0.858-2.213-1.68c-0.977-1.689-0.4-3.848,1.291-4.824     c0.443-0.255,0.916-0.407,1.396-0.455c6.683-2.714,65.143-37.211,101.099-58.715c1.655-0.998,3.827-0.464,4.833,1.201     c1.007,1.662,0.479,3.827-1.182,4.843c-4.621,2.826-9.291,5.703-13.961,8.599c1.171-0.225,1.753-0.082,2.286,0.045     c1.098,0.264,2.008,0.934,2.56,1.883c0.249,0.431,0.395,0.897,0.449,1.361c1.667-0.279,2.534-0.088,3.214,0.067     c1.419,0.318,2.577,1.137,3.25,2.311c0.443,0.764,0.661,1.492,0.619,2.238c0.813-0.045,1.328,0.076,1.776,0.176     c1.262,0.294,2.299,1.04,2.911,2.102c0.934,1.622,0.448,3.69-1.122,4.718c-13.711,9.024-27.944,18.736-39.637,27.075     c10.935-6.504,23.566-14.176,35.531-21.565c0.146-0.097,0.249-0.155,0.285-0.176c0.006-0.006,0.006-0.009,0.012-0.009     c0-0.003,0-0.003,0-0.003c1.662-1.025,3.839-0.509,4.864,1.152c1.019,1.659,0.515,3.833-1.146,4.858c0,0.003,0,0.003,0,0.003l0,0     c-0.006,0.003-0.006,0.003-0.019,0.003c-0.055,0.04-0.303,0.197-0.733,0.461c-4.67,2.88-9.399,5.846-14.045,8.799     c0.091,0.012,0.182,0.027,0.285,0.049c0.976,0.209,1.819,0.821,2.322,1.688c0.455,0.789,0.843,1.471,0.558,2.459     c1.165,0.37,2.11,1.122,2.705,2.147c0.922,1.604,0.843,2.811-0.497,4.309c0.31,0.258,0.582,0.573,0.788,0.931     c0.151,0.267,0.273,0.555,0.357,0.849c4.949-2.283,6.034-2.025,6.992-1.789c1.062,0.258,1.941,0.904,2.469,1.822     c0.939,1.623,0.448,3.693-1.122,4.718l-10.121,6.641c0.048,0.066,0.085,0.13,0.121,0.2c0.533,0.918,0.686,1.771,0.497,2.61     c1.844-1.225,3.669-2.453,5.482-3.675c1.613-1.092,3.809-0.673,4.9,0.946c1.091,1.61,0.673,3.806-0.94,4.903l-5.743,3.893     c0.661,0.24,1.249,0.679,1.68,1.298c1.122,1.598,0.734,3.802-0.867,4.918c-0.146,0.104-14.863,10.367-30.34,20.282     C358.821,287.784,351.453,290.064,348.481,290.064z M317.037,220.667c0.31,0.254,0.583,0.57,0.795,0.934     C317.607,221.221,317.341,220.912,317.037,220.667z M389.04,196.9c-6.55,3.787-14.094,8.378-22.172,13.484     c0.062-0.037,0.122-0.076,0.183-0.112C373.951,206.112,381.854,201.348,389.04,196.9z" style="fill:#B6302D;"/></g><g><path d="M354.994,361.133c-0.314,0-0.563-0.067-0.849-0.14c-0.916-0.237-1.723-0.843-2.189-1.668     c-1.261-2.184-0.946-4.124,2.214-7.138c-0.079-0.012-0.151-0.03-0.23-0.049c-1.286-0.279-2.329-1.037-2.96-2.11     c-0.903-1.564-0.479-3.554,0.977-4.621l10.037-7.325c-7.538,4.894-7.823,4.82-9.315,4.469c-0.946-0.23-1.776-0.843-2.262-1.686     c-0.831-1.443-0.776-2.929-0.127-4.421l-4.598,3.068c-1.606,1.067-3.771,0.655-4.869-0.928c-0.527-0.764-0.71-1.655-0.588-2.499     c-6.119,3.748-6.599,3.627-7.921,3.306c-0.939-0.23-1.771-0.849-2.243-1.686c-1.692-2.911,0.618-4.615,4.117-7.175     c1.989-1.455,4.931-3.535,8.739-6.191c3.116-2.165,6.828-4.73,11.128-7.672c-0.255-0.224-0.479-0.484-0.661-0.788     c-1.007-1.619-0.546-3.754,1.043-4.803c0.164-0.109,0.334-0.225,0.503-0.334c-0.199-0.224-0.388-0.467-0.533-0.739     c-0.686-1.177-0.934-2.256-0.388-3.591c-3.542,1.311-4.942,1.146-5.907,0.94c-30.691,18.278-35.537,17.192-37.836,16.689     c-1.51-0.334-2.74-1.201-3.456-2.438c-0.916-1.583-1.753-3.044,4.275-9.405c-7.544,4.506-7.902,4.421-9.352,4.051     c-0.916-0.236-1.722-0.843-2.201-1.668c-0.461-0.801-0.612-1.583-0.534-2.359l-5.985,3.451c-1.613,0.928-3.675,0.449-4.706-1.109     c-1.03-1.553-0.679-3.646,0.807-4.767c3.469-2.62,7.417-5.604,11.359-8.6c-0.861-1.334-0.729-3.111,0.369-4.306l1.443-1.577     c-0.752-0.272-1.425-0.807-1.867-1.559c-1.098-1.916-0.576-3.438,1.988-7.047c-0.533-0.321-1-0.782-1.304-1.298     c-0.976-1.691-0.394-3.851,1.292-4.827c0.516-0.297,1.067-0.448,1.625-0.473c1.213-0.625,3.967-2.438,6.034-3.93     c0.819-0.582,1.831-0.801,2.808-0.588c0.977,0.212,1.826,0.824,2.323,1.691c0.752,1.31,0.782,2.28-0.128,3.942l0.819-0.479     c1.516-0.867,3.433-0.503,4.523,0.855c0.673,0.83,0.91,1.897,0.716,2.893c3.451-1.747,4.215-1.559,5.027-1.358     c0.939,0.23,1.813,0.873,2.299,1.71c0.399,0.703,0.558,1.334,0.527,1.91l8.065-4.651c1.649-0.964,3.766-0.425,4.772,1.207     c0.819,1.334,0.649,3.008-0.321,4.136c0.892,0.255,1.692,0.861,2.153,1.661c0.867,1.498,0.521,3.408-0.813,4.5     c-9.249,7.587-19.443,16.465-25.18,22.038c6.106-2.474,15.913-7.811,27.823-14.948c0.977-0.855,3.068-2.093,7.975-4.84     c18.921-11.649,41.711-26.731,63.16-41.71c0.819-0.564,1.825-0.77,2.796-0.555c0.965,0.215,1.795,0.828,2.286,1.686     c0.649,1.116,0.801,2.459,0.431,3.791c-0.473,1.722-2.184,3.823-5.088,6.346c0.315,2.008-1.31,4.137-6.992,8.43     c0.019,0.006,0.03,0.006,0.055,0.013c1.328,0.278,2.432,1.067,3.087,2.207c1.013,1.747,0.558,3.026-0.559,4.166     c0.255,0.225,0.485,0.485,0.674,0.795c0.563,0.909,0.667,1.971,0.376,2.923c2.165-0.746,3.645-0.922,4.663-0.667     c1.141,0.272,2.074,0.958,2.632,1.935c0.934,1.619,0.455,3.669-1.092,4.699l-12.559,8.399c0.333,0.298,0.624,0.655,0.849,1.056     c0.31,0.527,0.461,1.109,0.474,1.691c3.862-1.759,6.233-2.256,7.786-1.892c1.183,0.285,2.153,0.988,2.735,1.995     c0.903,1.564,0.484,3.56-0.977,4.621l-8.891,6.495c0.801-0.521,1.777-0.71,2.711-0.504c0.964,0.212,1.807,0.825,2.299,1.68     c1.443,2.499,0.745,4.858-3.5,8.605c1.05,0.121,2.038,0.716,2.626,1.698c1.001,1.68,0.455,3.845-1.219,4.846     c-0.134,0.078-13.681,8.181-27.217,16.143C360.677,359.046,356.777,361.133,354.994,361.133z" style="fill:#B6302D;"/></g><g><path d="M322.726,365.371c-0.297,0-0.588-0.049-0.909-0.127c-0.928-0.23-1.746-0.837-2.231-1.668     c-0.413-0.728-0.606-1.073-0.346-2.632c-0.595,0.157-1.104,0.134-1.723-0.019c-0.928-0.23-1.753-0.849-2.237-1.68     c-0.813-1.419-1.432-2.48,2.201-7.629c-0.03-0.055-0.061-0.109-0.091-0.151c-0.971-1.692-0.389-3.851,1.298-4.833     c0.176-0.098,0.357-0.183,0.545-0.249c0.723-0.388,3.033-1.753,4.931-2.911c1.474-0.892,3.384-0.588,4.512,0.722     c1.122,1.31,1.141,3.238,0.03,4.573c-0.637,0.752-1.291,1.564-1.946,2.377c0.34,0.267,0.625,0.606,0.849,0.982     c0.461,0.801,0.595,1.746,0.37,2.638c-0.133,0.516-0.261,1.043-0.394,1.571c0.709,0.248,1.34,0.733,1.776,1.419     c1.043,1.649,0.564,3.832-1.085,4.875C325.115,364.638,323.921,365.371,322.726,365.371z M320.379,346.165     c-0.285,0.007-0.563,0.049-0.831,0.115C319.827,346.214,320.1,346.172,320.379,346.165z" style="fill:#B6302D;"/></g><g><path d="M294.902,378.549c-0.309,0-0.618-0.042-0.915-0.121c-0.91-0.248-1.681-0.837-2.147-1.644     c-0.909-1.576-0.818-2.972,1.092-6.04c-6.113,3.96-7.896,4.725-9.775,4.281c-1.007-0.236-1.874-0.873-2.384-1.758     c-0.861-1.492-1.74-3.009,3.645-9.2c-0.242,0.176-0.497,0.358-0.745,0.527c-0.813,0.576-1.819,0.776-2.79,0.559     c-0.971-0.213-1.808-0.825-2.298-1.687c-1.443-2.486-0.449-4.833,3.371-8.623l-14.232,8.211c-1.687,0.977-3.852,0.4-4.828-1.292     c-1.34-2.322-0.467-4.438,3.015-7.653c-1.522,0.752-2.22,0.746-3.142,0.534c-0.952-0.225-1.819-0.861-2.311-1.71     c-1.822-3.154,1.31-5.519,3.596-7.253c0.855-0.644,1.856-1.377,2.96-2.153c-0.14-0.157-0.261-0.34-0.37-0.521     c-0.794-1.4-0.558-3.159,0.588-4.294l3.111-3.05c-0.952-1.692-0.376-3.839,1.311-4.81c0.745-0.431,1.576-0.558,2.371-0.418     c1.134-0.68,3.068-2.208,3.978-2.936c2.311-1.825,3.354-2.668,5.149-2.328c1.006,0.2,1.916,0.837,2.432,1.728     c0.03,0.055,0.061,0.122,0.091,0.17c1.292-0.563,2.335-0.715,3.365-0.497c1.146,0.23,2.142,0.94,2.717,1.94     c0.122,0.213,0.225,0.419,0.31,0.631c4.003-2.171,6.01-2.632,7.611-2.256c1.115,0.261,2.037,0.94,2.602,1.904     c1.304,2.262,0.648,4.415-2.433,7.563l5.027-2.898c0.807-0.468,1.777-0.601,2.681-0.353c0.904,0.237,1.674,0.831,2.141,1.644     c1.407,2.432,0.4,4.651-3.11,8.096c1.007-0.206,1.521-0.091,1.892-0.006c1.122,0.249,2.044,0.916,2.596,1.874     c0.843,1.462,0.54,3.317-0.728,4.427c-2.577,2.25-5.246,4.651-7.817,7.029c2.189-1.201,3.166-1.341,4.33-1.062     c0.958,0.218,1.861,0.892,2.359,1.734c1.255,2.183,0.618,3.026-3.548,8.447c-0.837,1.092-2.025,2.626-3.202,4.196     c0.249,0.23,0.455,0.504,0.631,0.801c0.977,1.692,0.395,3.845-1.292,4.821l-5.137,2.972     C296.121,378.392,295.516,378.549,294.902,378.549z" style="fill:#B6302D;"/></g><g><path d="M265.921,409.999c-0.503,0-0.952-0.049-1.353-0.14c-1.395-0.315-2.528-1.134-3.201-2.292     c-0.801-1.383-0.57-3.142,0.563-4.27c2.929-2.929,6.07-6.144,8.8-9.018c-0.219-0.225-0.406-0.474-0.564-0.74     c-0.297-0.521-0.461-1.019-0.503-1.534l-7.32,4.227c-1.461,0.844-3.313,0.534-4.427-0.733c-1.106-1.268-1.167-3.142-0.143-4.481     c2.074-2.692,4.291-5.652,6.201-8.29c-0.431-0.285-0.807-0.673-1.092-1.146c-1.001-1.667-0.455-3.839,1.225-4.839     c7.605-4.536,7.605-4.53,9.176-4.13c0.916,0.23,1.704,0.831,2.177,1.655c0.819,1.419,1.316,2.274-2.067,7.429l1.807-1.049     c1.692-0.977,3.852-0.4,4.827,1.292c0.315,0.546,0.479,1.073,0.516,1.613c0.461-0.085,0.916-0.073,1.413,0.036     c0.988,0.2,1.916,0.867,2.426,1.746c1.522,2.639,0.467,4.336-8.66,13.937c9.612-4.961,27.375-15.847,59.553-37.842     c7.678-5.24,7.671-5.24,9.266-4.882l-0.782,3.444l-0.897,3.414c1.328,0.364,2.354-0.182,2.541-0.291     c-0.473,0.279-3.099,2.068-6.137,4.148C288.893,401.697,272.482,409.999,265.921,409.999z" style="fill:#B6302D;"/></g><g><path d="M207.494,364.468c-0.318,0-0.619-0.061-0.956-0.14c-0.946-0.219-1.807-0.861-2.298-1.698     c-1.392-2.413-0.188-4.312,3.621-7.665c-0.512-0.346-0.943-0.807-1.261-1.364c-0.485-0.837-0.585-1.789-0.358-2.656     c-0.746-0.298-1.386-0.843-1.789-1.54c-0.773-1.341-0.585-3.033,0.47-4.167l7.262-7.829c-0.176-0.146-0.336-0.315-0.488-0.503     c-1.219-1.522-0.967-3.742,0.555-4.967c9.857-7.884,12.271-7.429,13.426-7.211c1.158,0.213,2.153,0.91,2.732,1.923     c0.688,1.183,0.615,2.65-0.143,3.76c6.777-4.033,8.993-4.633,10.758-4.209c1.052,0.255,1.929,0.898,2.462,1.826     c0.995,1.722,1.025,3.201-1.316,5.749c0.073,0.103,0.143,0.206,0.206,0.321c0.416,0.715,0.573,1.358,0.54,1.946     c2.756-1.273,4.351-1.534,5.643-1.231c1.11,0.262,2.022,0.935,2.577,1.893c0.977,1.691,0.397,3.857-1.292,4.833     c-0.846,0.485-1.807,0.582-2.68,0.346c-3.797,1.286-16.692,9.807-23.782,14.488C211.181,363.109,209.056,364.468,207.494,364.468     z" style="fill:#B6302D;"/></g><g><path d="M191.887,324.57c-1.119,0-2.21-0.527-2.896-1.498c-1.052-1.498-0.779-3.56,0.622-4.736     c0.691-0.576,1.382-1.164,2.074-1.746c-1.028-0.049-2.013-0.534-2.671-1.407c-0.53-0.71-0.761-1.553-0.7-2.384l-4.215,2.438     c-1.668,0.958-3.796,0.406-4.788-1.237c-0.994-1.649-0.491-3.784,1.134-4.815c1.101-0.685,2.202-1.389,3.308-2.092     c-0.13-0.164-0.252-0.334-0.354-0.516c-0.789-1.37-0.552-2.528,0.012-3.469l-7.732,4.47c-1.692,0.977-3.854,0.388-4.827-1.292     c-0.977-1.692-0.394-3.856,1.292-4.833l41.559-23.991c1.119-0.648,2.505-0.63,3.608,0.043c1.104,0.673,1.75,1.892,1.689,3.184     c-0.027,0.606-0.182,1.092-0.409,1.492c0.743-0.383,1.601-0.498,2.426-0.304c0.955,0.213,1.777,0.818,2.268,1.674     c1.992,3.451-1.683,6.204-6.334,9.697c-1.404,1.049-3.065,2.243-4.982,3.59c0.012,0.182,0.012,0.346,0,0.516l0.852-0.485     c0.81-0.467,1.777-0.595,2.681-0.352c0.903,0.236,1.674,0.831,2.144,1.649c0.864,1.498,0.931,2.717-0.773,4.937     c0.251,0.019,0.497,0.091,0.815,0.176l-0.934,3.408l-3.081,1.729l3.081-1.729l1.616,3.135     c-0.903,0.485-15.276,8.806-24.715,14.276C193.097,324.419,192.491,324.57,191.887,324.57z" style="fill:#B6302D;"/></g><g><path d="M347.596,111.283c-0.303,0-0.594-0.036-0.885-0.097c-1.062-0.23-1.972-0.892-2.511-1.816     c-1.092-1.904-1.207-2.11,6.731-14.312c-0.606-1.371-0.37-2.693,0.594-4.303c-3.675,2.213-3.869,2.159-5.148,1.834     c-1.188-0.303-2.141-1.204-2.505-2.38c-0.363-1.17-0.091-2.453,0.722-3.375l1.298-1.486c-1.734,0.685-2.358,0.537-2.983,0.391     c-0.946-0.225-1.85-0.895-2.341-1.731c-0.771-1.331-0.588-3.008,0.442-4.145l6.21-6.84c-0.77-0.325-1.419-0.886-1.831-1.607     c-1.256-2.174-0.285-4.245,2.183-7.468c-0.406-0.288-0.752-0.664-1.006-1.104c-0.164-0.279-0.285-0.537-0.376-0.792     c-4.464,2.52-5.477,2.292-6.41,2.08c-1.013-0.23-1.898-0.873-2.408-1.765c-0.775-1.346-0.582-3.038,0.479-4.172     c0.94-1.006,1.898-2.053,2.856-3.111c-13.087,8.872-18.824,11.935-22.238,11.173c-1.098-0.246-2.02-0.858-2.645-1.74     c-11.043,6.974-16.046,9.193-19.035,8.502c-1.213-0.282-2.214-1.013-2.814-2.049c-0.352-0.613-0.503-1.313-0.467-2.008     c-5.046,3.29-10.121,6.644-15.094,9.976c-0.813,0.543-1.819,0.728-2.766,0.506c-0.952-0.221-1.777-0.828-2.256-1.674     c-1.334-2.308-0.91-2.908,6.197-12.947c0.006-0.012,0.013-0.021,0.024-0.03c-13.529,7.056-40.801,23.957-65.531,40.24     c-0.813,0.54-1.808,0.715-2.76,0.488c-0.946-0.222-1.755-0.828-2.244-1.668c-0.23-0.403-0.394-0.792-0.485-1.161     c-15.061,8.636-15.716,8.469-17.12,8.102c-0.916-0.239-1.722-0.852-2.195-1.67c-0.973-1.686-0.391-3.848,1.298-4.824     c0.367-0.212,0.761-0.352,1.155-0.418c5.119-2.229,46.235-26.453,71.478-41.517c0.813-0.482,1.789-0.622,2.705-0.385     c0.752,0.197,1.413,0.634,1.892,1.24c17.011-9.679,19.249-9.145,20.855-8.766c1.141,0.27,2.074,0.955,2.639,1.925     c1,1.741,1.085,2.375-2.032,6.947c6.18-4.026,13.682-8.857,21.305-13.629c38.169-23.881,41.911-23.008,44.136-22.49     c1.201,0.282,2.184,0.998,2.778,2.01c0.127,0.236,0.242,0.479,0.333,0.728c0.527-0.054,0.977-0.006,1.419,0.091     c1.062,0.249,1.947,0.895,2.48,1.825c1.364,2.362,0.146,4.224-2.729,6.646c0.121,0.151,0.23,0.303,0.321,0.47     c0.885,1.522,1.637,2.829-3.712,9.691c0.085,0.009,0.158,0.024,0.237,0.039c0.964,0.222,1.795,0.828,2.286,1.677     c0.569,0.989,0.697,1.816,0.321,2.95c0.752,0.313,1.443,0.889,1.837,1.577c0.722,1.243,0.71,2.404,0.085,3.787     c1.443-0.967,3.408-0.734,4.585,0.582c1.207,1.343,1.207,3.39-0.006,4.733l-3.529,3.881l0,0c1.474-0.97,3.444-0.697,4.603,0.64     c1.164,1.334,1.152,3.317-0.012,4.648l-1.747,1.983c1.268-0.519,1.734-0.397,2.48-0.206c0.928,0.233,1.74,0.846,2.207,1.667     c1.832,3.168-0.752,5.949-6.422,12.041c-0.631,0.685-1.383,1.489-2.104,2.286c0.34,1,0.23,2.135-0.382,3.081     c-0.588,0.892-1.177,1.801-1.765,2.708c1.37-0.719,2.316-0.879,3.402-0.646c1.03,0.221,1.922,0.87,2.443,1.777     c0.977,1.689,0.395,3.848-1.291,4.824c-0.51,0.288-1.05,0.443-1.596,0.47c-1.037,0.604-3.099,2.08-4.536,3.108     C351.793,109.792,349.591,111.283,347.596,111.283z M194.022,104.255c0.552,0.3,1.034,0.746,1.371,1.328     C195.032,104.961,194.543,104.531,194.022,104.255z M335.559,42.862c-4.585,2.638-9.807,5.758-15.428,9.211     C326.141,48.611,331.283,45.537,335.559,42.862z" style="fill:#B6302D;"/></g><g><path d="M220.529,491.098c-0.801,0-1.528-0.066-2.192-0.225c-2.614-0.582-3.972-2.104-4.648-3.28     c-1.222-2.123-0.364-3.493,1.255-4.706c-9.606,5.452-13.438,6.743-15.516,6.246c-1.091-0.267-1.995-0.934-2.538-1.88     c-0.585-1.007-0.731-2.231-0.41-3.438c-10.425,5.331-11.659,5.01-12.869,4.693c-0.998-0.26-1.822-0.885-2.326-1.752     c-0.582-1.007-0.725-2.226-0.397-3.427c0.254-0.928,0.585-2.135,3.45-4.894c-2.535,1.559-5.033,3.104-7.483,4.621     c-0.813,0.51-1.795,0.654-2.723,0.424c-0.2-0.054-0.391-0.115-0.576-0.199c-5.361,2.067-9.521,2.844-12.459,2.213     c-2.653-0.57-4.103-2.062-4.873-3.299c-3.099,0.776-5.594,0.977-7.444,0.546c-2.483-0.57-3.763-2.008-4.403-3.117     c-0.521-0.903-0.652-1.977-0.37-3.014c0.237-0.855,0.737-1.698,1.904-2.784l-21.028,12.142c-0.813,0.473-1.773,0.594-2.68,0.357     c-0.904-0.249-1.677-0.837-2.147-1.649c-0.33-0.576-0.509-1.104-0.561-1.595c-5.652,2.644-6.668,2.389-7.623,2.141     c-1.01-0.249-1.847-0.874-2.356-1.759c-0.2-0.346-0.394-0.765-0.549-1.237c-6.625,2.535-8.605,2.08-9.891,1.789     c-1.479-0.34-2.684-1.188-3.378-2.407c-0.958-1.65-0.424-3.767,1.204-4.767l0.661-0.413c-0.482-0.272-0.9-0.66-1.216-1.164     c-0.746-1.177-0.715-2.62-0.033-3.735c-0.122-0.024-0.237-0.049-0.352-0.073c-2.022-0.461-3.078-1.655-3.614-2.583     c-1.737-3.015-0.601-5.562,9.894-12.724c-0.203-0.212-0.379-0.442-0.531-0.697c-0.994-1.729-1.134-3.426,1.056-6.058     c-2.563,1.782-4.027,2.813-4.088,2.862c-0.813,0.569-1.828,0.77-2.795,0.563c-0.97-0.218-1.804-0.824-2.301-1.686     c-0.588-1.019-0.731-2.244-0.403-3.457c0.267-0.982,0.63-2.341,4.206-5.634c-0.819-0.418-1.492-1.037-1.941-1.813     c-0.934-1.619-0.445-3.681,1.101-4.706c-1.271-0.643-2.02-1.546-2.453-2.304c-0.567-0.982-0.712-2.159-0.4-3.306     c0.604-2.231,3.229-4.784,9.988-9.229c-0.052-0.006-0.106-0.024-0.161-0.03c-1.25-0.297-2.277-1.043-2.887-2.104     c-1.756-3.032,1.061-5.131,4.036-7.344c0.403-0.304,0.843-0.625,1.319-0.971c-0.955,0.17-1.752,0.17-2.44,0.006     c-1.234-0.284-2.25-1.024-2.856-2.073c-0.47-0.819-0.598-1.783-0.352-2.693c0.042-0.163,0.1-0.314,0.167-0.467     c-0.843,0.559-1.686,1.122-2.532,1.692c-0.955,0.637-1.865,1.243-3.323,0.928c-0.979-0.206-1.819-0.825-2.32-1.692     c-1.747-3.02,0.215-4.875,7.041-9.636c-0.81-1.492-0.439-3.378,0.931-4.451l9.794-7.666c-1.84,1.165-3.669,2.335-5.482,3.493     c-0.813,0.527-1.807,0.697-2.744,0.474c-0.937-0.23-1.74-0.831-2.226-1.668c-0.467-0.807-0.916-2.135-0.424-3.888     c0.1-0.352,0.264-0.739,0.473-1.134c-0.309-0.242-0.591-0.533-0.818-0.879c-0.367-0.564-0.558-1.183-0.576-1.813     c-0.333-0.019-0.646-0.055-0.937-0.127c-1.368-0.315-2.486-1.122-3.147-2.274c-1.762-3.045,0.485-5.076,5.892-8.515     c-0.785-1.534-0.339-3.45,1.107-4.481c0.012-0.006,0.188-0.134,0.509-0.364c-0.613-0.327-1.119-0.818-1.474-1.431     c-0.892-1.54-0.749-2.966,0.406-4.621c-0.718,0.31-1.525,0.37-2.289,0.163c-0.91-0.248-1.683-0.836-2.15-1.643     c-0.494-0.855-0.97-2.274-0.439-4.154c0.203-0.734,0.476-1.692,1.646-3.269c-0.806-0.521-1.319-1.177-1.637-1.723     c-0.473-0.818-0.597-1.783-0.352-2.692c0.246-0.916,0.846-1.686,1.665-2.146c1.989-1.129,3.981-2.269,5.977-3.415     c-1.977,0.819-2.487,0.686-3.108,0.522c-0.913-0.237-1.729-0.85-2.208-1.668c-0.879-1.528-0.498-3.481,0.897-4.561l13.739-10.649     l-7.854,4.536c-0.81,0.467-1.773,0.595-2.677,0.352c-0.91-0.242-1.677-0.836-2.147-1.643c-1.101-1.91-0.676-3.463,1.431-5.525     c-0.121-0.146-0.227-0.303-0.324-0.473c-0.952-1.649-0.428-3.754,1.186-4.761c10.516-6.586,21.298-13.523,31.247-20.104     c4.145-2.868,7.802-5.33,11.025-7.393c3.354-2.273,6.537-4.469,9.502-6.543c-14.151,8.345-32.35,19.594-49.236,30.353     c-1.616,1.03-3.754,0.594-4.828-1.001c-1.073-1.583-0.688-3.729,0.867-4.84l4.321-3.099c-7.287,4.863-7.638,4.779-9.218,4.421     c-0.958-0.218-1.811-0.849-2.302-1.704c-1.489-2.571-1.722-5.598,6.914-13.202c-0.367-0.291-0.679-0.643-0.901-1.03     c-1.419-2.45-0.154-4.252,3.757-7.581c-3.099,1.813-6.091,3.572-8.887,5.222c-1.655,0.97-3.784,0.442-4.791-1.183     c-1.01-1.632-0.534-3.772,1.07-4.827c1.449-0.946,2.953-1.929,4.503-2.936c-0.834-0.248-1.58-0.794-2.059-1.601     c-0.789-1.347-0.591-2.996,0.382-4.112c-0.555-0.309-1.019-0.764-1.343-1.321c-0.488-0.85-0.604-1.868-0.318-2.808     c0.197-0.631,0.315-1.025,1.392-1.747l-0.061-0.091c0.085-0.061,1.395-0.994,3.76-2.662c-0.094-0.134-0.176-0.268-0.249-0.4     c-0.473-0.813-0.931-2.159-0.44-3.941c0.37-1.325,1.431-2.899,3.208-4.752c-0.297-0.003-0.558-0.036-0.794-0.094     c-1.049-0.258-1.913-0.897-2.441-1.813c-1.264-2.183-1.307-4.339,6.119-10.249c-0.852-0.257-1.574-0.833-2.022-1.61     c-0.631-1.091-1.231-2.923-0.5-5.424c0.049-0.167,0.103-0.349,0.164-0.546c-1.801,0.625-3.072,0.77-4.015,0.552     c-1.137-0.264-2.074-0.949-2.641-1.926c-0.485-0.84-0.604-1.843-0.328-2.768c0.273-0.931,0.922-1.704,1.783-2.147     c0.2-0.103,9.069-4.642,22.802-11.877c4.036-3.096,9.024-6.686,15.182-10.867c-25.78,14.479-27.326,14.078-28.833,13.69     c-0.918-0.237-1.807-0.901-2.286-1.723c-0.94-1.634-0.434-3.72,1.152-4.739l30.034-19.303l-32.436,18.727     c-0.81,0.464-1.777,0.591-2.68,0.349c-0.904-0.242-1.674-0.833-2.144-1.643c-0.604-1.052-0.755-2.317-0.415-3.563     c0.391-1.456,1.734-3.232,4.208-5.479c-0.54-0.306-1.003-0.761-1.319-1.307c-0.215-0.37-0.364-0.73-0.452-1.079     c-1.828-0.555-2.813-1.692-3.326-2.581c-0.482-0.828-0.604-1.816-0.34-2.735c0.264-0.919,0.886-1.695,1.729-2.144     c55.716-29.855,114.529-64.931,124.311-76.208c-1.847,0.41-5.03,1.474-10.437,4.054l-101.857,64.646     c-2.596,1.746-4.2,2.768-5.276,3.35l-0.167,0.106l-0.006-0.015c-1.45,0.758-1.892,0.658-2.659,0.485     c-0.961-0.218-1.795-0.833-2.287-1.689c-0.946-1.637-0.43-3.732,1.165-4.748l2.192-1.389c-0.591-0.307-1.092-0.779-1.431-1.368     c-0.964-1.668-0.889-3.281,0.746-5.488c-3.442,1.662-5.643,2.138-7.274,1.774c-1.255-0.282-2.29-1.028-2.908-2.102     c-0.47-0.813-0.594-1.783-0.349-2.689c0.249-0.913,0.849-1.686,1.668-2.147c1.792-1.019,3.593-2.041,5.391-3.071     c-1.003-0.382-1.822-1.071-2.353-1.983c-1.719-3.008,1.059-4.694,2.714-5.701l4.224-2.556c0.567-0.346,1.125-0.686,1.692-1.028     c-0.264-0.003-0.467-0.058-0.683-0.109c-0.91-0.243-1.713-0.852-2.186-1.67c-1.243-2.153-1.01-4.272,2.128-7.514     c-0.7,0.279-1.474,0.328-2.207,0.137c-0.91-0.24-1.692-0.837-2.159-1.65c-1.188-2.059-1.143-3.669,3.636-8.884     c-1.395,0.224-2.854-0.422-3.603-1.723c-0.533-0.928-0.807-1.395-0.13-8.969c-0.606-0.324-1.14-0.815-1.477-1.401     c-0.976-1.688-0.397-3.848,1.292-4.827c0.34-0.194,0.695-0.324,1.062-0.403c0.261-0.185,0.601-0.437,0.87-0.658     c1.107-0.904,2.644-1.052,3.906-0.376c1.258,0.676,1.989,2.043,1.846,3.465c-0.167,1.662-0.336,3.457-0.473,5.106l16.671-9.624     c0.813-0.47,1.774-0.598,2.681-0.355c0.903,0.243,1.677,0.834,2.146,1.646c1.431,2.48-0.418,4.272-2.053,5.852     c-0.955,0.922-2.311,2.198-3.881,3.675c-0.155,0.146-0.315,0.297-0.479,0.452c5.686-3.338,12.041-7.065,18.387-10.767     c40.534-23.672,40.741-23.627,42.706-23.105c0.909,0.237,1.698,0.84,2.171,1.656c2.138,3.702-1.707,7.08-8.681,11.853     c17.517-10.267,35.622-20.934,51.043-30.064c0.813-0.479,1.783-0.616,2.693-0.376c0.916,0.24,1.692,0.834,2.165,1.649     c1.877,3.25-1.486,5.779-4.733,8.229c-2.574,1.935-6.437,4.618-11.486,7.978c-6.792,4.515-15.892,10.364-27.144,17.441     c0.306,0.858,0.339,1.813,0.082,2.76c-0.143,0.521-0.312,1.137-0.943,2.059c0.516,0.395,0.949,0.879,1.277,1.443     c0.946,1.641,0.43,3.742-1.174,4.751c-14.23,8.997-28.891,18.548-41.744,27.211l28.779-16.617     c11.674-7.298,21.701-13.138,29.831-17.223l7.292-4.208c0.876-0.506,1.883-0.594,2.787-0.325     c4.845-1.837,8.496-2.556,10.843-2.025c2.165,0.494,3.293,1.756,3.854,2.729c0.434,0.755,0.858,1.947,0.591,3.511     c1.374-0.506,2.15-0.488,2.923-0.313c0.279,0.067,0.552,0.161,0.807,0.285c7.975-3.763,12.793-5.124,15.261-4.527     c1.334,0.324,2.42,1.113,3.06,2.219c0.534,0.925,0.667,2.022,0.379,3.087c-0.188,0.7-0.661,1.483-1.516,2.414l8.499-4.909     c1.655-0.961,3.778-0.418,4.778,1.219c1.001,1.64,0.51,3.778-1.104,4.812l-53.142,34.158     c24.821-14.719,50.403-30.043,72.184-43.188c0.813-0.488,1.796-0.634,2.705-0.395c0.916,0.233,1.704,0.831,2.177,1.65     c6.186-2.411,10.855-3.378,13.846-2.681c2.443,0.567,3.705,1.983,4.336,3.075c0.484,0.834,0.6,1.832,0.333,2.759     c-0.272,0.922-0.909,1.698-1.765,2.144c-0.236,0.125-11.929,6.192-29.442,15.588c-2.11,1.72-4.561,3.63-7.417,5.74     c50.717-29.161,53.494-28.454,55.489-27.951c1.019,0.264,1.874,0.9,2.39,1.792c0.315,0.558,0.497,1.083,0.552,1.589     c3.826-1.325,6.556-1.765,8.271-1.349c1.243,0.309,2.28,1,2.966,1.968c8.496-4.006,14.633-5.737,18.345-4.897     c2.474,0.558,3.766,2.001,4.402,3.117c0.661,1.134,1.286,2.875,1.031,5.176c0.552,1.492,0.036,3.196-1.286,4.126     c-9.466,19.024-72.257,57.093-195.709,118.516c-1.219,1.953-4.612,4.345-10.985,8.839c-0.016,0.012-0.034,0.024-0.049,0.034     c0.23,0.224,0.431,0.479,0.594,0.761c0.898,1.562,0.482,3.545-0.961,4.612c-4.084,3.005-8.266,6.112-12.356,9.169     c0.255-0.151,0.506-0.303,0.761-0.461c10.061-6.389,17.923-11.088,18.039-11.155c1.665-0.988,3.812-0.458,4.821,1.191     c1.013,1.653,0.504,3.806-1.137,4.837c-0.03,0.018-0.861,0.539-2.292,1.431c2.608-0.916,4.469-1.14,5.864-0.824     c1.34,0.313,2.438,1.101,3.087,2.229c0.461,0.794,0.576,1.704,0.388,2.541c9.169-4.827,10.521-4.5,11.774-4.19     c1.052,0.258,1.917,0.897,2.438,1.807c1.992,3.451-0.449,6.677-11.35,15.01c-1.377,1.055-2.89,2.177-4.527,3.378     c0.225,0.242,0.419,0.516,0.588,0.813c0.958,1.655,0.424,3.778-1.209,4.778c-2.25,1.377-4.518,2.777-6.795,4.19     c0.146,0.146,0.285,0.315,0.403,0.498c1.04,1.54,0.704,3.626-0.764,4.76l-17.866,13.846c19.1-11.152,41.605-24.488,59.519-35.174     c0.815-0.485,1.789-0.625,2.705-0.395c0.916,0.237,1.695,0.837,2.168,1.656c0.597,1.024,0.74,2.28,0.403,3.511     c-0.03,0.115-0.061,0.23-0.1,0.353c3.335-1.844,5.279-2.911,5.355-2.954c1.64-0.897,3.702-0.352,4.694,1.243     c0.988,1.589,0.561,3.676-0.971,4.749c-0.245,0.176-24.888,17.478-50.862,34.185c-0.236,0.157-0.467,0.303-0.7,0.455     c0.07,0.097,0.136,0.212,0.206,0.321c0.946,1.631,0.455,3.718-1.119,4.736c-5.737,3.754-11.592,7.646-17.241,11.455     c7.684-4.742,15.746-9.806,23.533-14.797c0.81-0.521,1.804-0.686,2.741-0.455c0.937,0.225,1.737,0.831,2.223,1.662     c1.701,2.947-0.885,4.845-3.618,6.858c-0.006,0-0.009,0.006-0.012,0.006c0.36,0.315,0.67,0.691,0.916,1.116     c0.03,0.055,0.061,0.109,0.091,0.17c9.448-6.083,11.759-6.92,13.742-6.459c1.046,0.237,1.914,0.874,2.444,1.789     c0.934,1.626,0.446,3.688-1.116,4.719l-25.055,16.525c0.091,0.121,0.176,0.255,0.258,0.394c0.473,0.819,0.594,1.795,0.343,2.711     c-0.258,0.916-0.874,1.692-1.707,2.146c-2.502,1.371-5.034,2.784-7.572,4.221c0.773,0.315,1.41,0.861,1.829,1.596     c0.882,1.521,0.503,3.456-0.879,4.542l-2.29,1.801c4.712-2.268,5.713-2.025,6.698-1.782c0.215,0.055,0.425,0.121,0.625,0.199     c32.541-19.545,36.471-18.617,38.696-18.102c1.286,0.297,2.338,1.049,2.957,2.129c0.573,0.988,0.715,2.188,0.397,3.359     c-0.3,1.092-0.715,2.632-5.916,6.901c1.798,3.129-1.219,5.409-4.715,8.047c-0.221,0.17-0.445,0.34-0.682,0.516     c4.615-2.62,5.931-2.783,7.284-2.462c1.019,0.242,1.868,0.873,2.383,1.765c0.521,0.897,1.028,2.384,0.498,4.354     c-0.797,2.935-4.203,6.525-9.942,10.892l56.453-35.567c1.619-1.014,3.754-0.559,4.818,1.03c1.064,1.589,0.67,3.742-0.891,4.846     c-0.055,0.03-0.946,0.673-2.55,1.795c0.185,0.024,0.361,0.061,0.561,0.104c0.94,0.23,1.755,0.843,2.238,1.674     c0.428,0.764,1.458,3.25-1.932,5.196c-0.524,0.298-1.043,0.601-1.562,0.898c-2.975,1.855-8.972,5.736-15.667,10.066     c-2.999,1.935-5.94,3.833-8.815,5.683c1.616,0.563,2.504,1.601,2.984,2.426c1.564,2.704,0.367,4.814-5.4,8.89     c1,0.625,1.628,1.407,2.01,2.074c0.2,0.346,0.343,0.686,0.437,1.02c17.756-11.377,26.547-15.768,30.61-14.828     c1.301,0.298,2.365,1.067,3.005,2.165c0.946,1.638,0.431,3.742-1.17,4.755l-2.675,1.691c0.434,0.024,0.752,0.098,1.043,0.17     c1.167,0.285,2.123,0.982,2.693,1.978c0.955,1.649,0.424,3.766-1.204,4.772l-7.032,4.348c0.418,0.285,0.788,0.661,1.061,1.128     c0.946,1.607,0.479,3.669-1.061,4.719c-0.203,0.133-13.051,8.842-30.958,20.582c11.061-6.701,21.701-13.202,31.146-19.012     c0.813-0.497,1.792-0.643,2.714-0.412c0.928,0.236,1.719,0.831,2.195,1.661c1.649,2.862-0.304,4.81-5.043,8.12     c0.367,0.206,0.698,0.479,0.971,0.801c2.938-1.631,5.973-3.305,9.103-5.027c29.982-16.452,59.807-31.681,77.345-40.491     c8.751-5.458,13.105-7.678,15.688-8.242c31.547-20.928,53.258-32.475,63.324-30.304c2.571,0.552,4.561,1.953,5.773,4.045     c0.473,0.825,0.594,1.796,0.346,2.699c-0.249,0.909-0.85,1.686-1.674,2.146c-3.578,2.014-7.247,4.081-10.982,6.198     c1.916-0.498,2.638-0.322,3.238-0.17c1.092,0.278,1.989,0.945,2.535,1.886c0.473,0.813,0.594,1.783,0.346,2.692     c-0.243,0.904-0.844,1.674-1.668,2.146c-66.175,37.526-164.514,95.169-204.821,122.749c6.829-3.771,14.955-8.387,23.948-13.554     c16.186-10.546,40.41-25.513,76.748-46.975c41.413-24.457,82.948-48.078,98.782-57.041c3.104-1.832,4.997-2.911,6.234-3.529     c0.278-0.152,0.425-0.237,0.454-0.255l0.019,0.03c1.449-0.667,1.862-0.564,2.59-0.376c0.922,0.242,1.71,0.843,2.177,1.661     c0.479,0.819,0.601,1.783,0.352,2.699c-0.242,0.909-0.849,1.686-1.674,2.146c-1.977,1.109-3.984,2.238-6.016,3.39     c-1.322,0.771-2.838,1.674-4.536,2.681c0.74-0.042,1.377,0.013,1.923,0.146c1.406,0.34,2.553,1.171,3.232,2.335     c0.497,0.879,0.8,1.716,0.618,2.717c2.741-0.971,4.803-1.262,6.282-0.934c1.432,0.327,2.602,1.164,3.293,2.365     c0.965,1.667,0.419,3.796-1.236,4.79c-1.273,0.771-2.571,1.547-3.869,2.329c0.83,0.249,1.576,0.807,2.043,1.613     c0.553,0.958,0.686,2.104,0.383,3.208c-0.285,1.007-0.655,2.341-5.507,6.222c1.674,0.576,2.596,1.649,3.081,2.493     c0.509,0.867,0.637,1.897,0.363,2.893c-0.357,1.291-1.352,2.577-5.961,5.628c0.771,1.601,0.236,3.535-1.268,4.506l-0.903,0.575     c5.664-3.214,9.078-5.136,9.175-5.19c1.638-0.922,3.699-0.406,4.706,1.17c1.019,1.577,0.619,3.669-0.897,4.767     c-0.066,0.049-1.71,1.237-4.584,3.293c0.346,0.285,0.654,0.625,0.867,1.001c0.594,1.031,0.739,2.273,0.399,3.505     c-0.267,1.019-0.661,2.462-4.56,5.979c0.339,0.267,0.63,0.606,0.854,0.988c0.304,0.51,0.461,1.11,0.479,1.711     c0.036,0.006,0.072,0.018,0.103,0.03c1.019,0.242,1.862,0.873,2.371,1.765c0.576,0.994,0.722,2.195,0.4,3.378     c-0.097,0.394-0.224,0.83-0.563,1.431c0.746,0.31,1.413,0.867,1.801,1.553c0.946,1.631,0.449,3.705-1.128,4.73     c-1.438,0.939-2.941,1.916-4.47,2.917c1.195-0.085,2.401,0.437,3.136,1.479c0.685,0.964,0.818,2.141,0.473,3.178     c1.419-0.34,2.966,0.255,3.79,1.57c0.922,1.468,0.625,3.359-0.624,4.488c0.418,0.297,0.77,0.679,1.024,1.127     c1.698,2.93-0.679,4.937-4.615,8.26c-1.291,1.092-2.844,2.359-4.554,3.736c0.679-0.091,1.055-0.006,1.389,0.066     c1.037,0.249,1.886,0.879,2.413,1.783c0.691,1.194,0.619,2.681-0.169,3.802l-2.348,3.33c6.277-3.597,7.017-3.421,8.12-3.147     c0.935,0.23,1.771,0.854,2.25,1.686c0.977,1.692,0.395,3.851-1.298,4.827c-0.399,0.236-0.824,0.382-1.267,0.442     c-2.22,1.007-10.965,6.259-18.6,11.025c-1.426,0.892-3.287,0.655-4.439-0.558c-1.152-1.226-1.292-3.093-0.321-4.47l4.057-5.761     c-5.045,3.068-11.055,6.907-16.501,10.516c-0.807,0.533-1.807,0.722-2.759,0.491c-0.946-0.225-1.765-0.825-2.25-1.668     c-1.432-2.475-0.971-4.281,6.167-10.57c-10.072,5.9-20.746,12.189-29.321,17.266c-0.807,0.479-1.776,0.618-2.692,0.376     c-0.916-0.237-1.691-0.837-2.159-1.649c-0.776-1.341-0.818-2.493-0.024-3.797c-0.467-0.315-0.867-0.728-1.164-1.237     c-0.03-0.061-0.066-0.121-0.097-0.182c-2.978,0.903-4.221,0.643-5.101,0.461c-1.437-0.31-2.607-1.14-3.299-2.329     c-0.854-1.485-0.854-2.692,0.34-4.238c-7.629,4.469-12.723,7.38-12.82,7.435c-1.674,0.964-3.814,0.395-4.797-1.268     c-0.17-0.285-0.297-0.594-0.37-0.897c-9.775,5.519-13.771,6.901-15.979,6.35c-1.104-0.267-2.007-0.94-2.553-1.886     c-0.073-0.115-0.134-0.237-0.194-0.364c-4.385,2.104-5.112,1.91-5.961,1.698c-0.916-0.243-1.771-0.88-2.238-1.698     c-0.406-0.709-0.558-1.54-0.431-2.341c-5.488,2.692-8.296,3.433-9.872,3.038c-1.067-0.267-1.953-0.922-2.493-1.838     c-0.352-0.054-0.654-0.115-0.915-0.169c-2.469-0.534-3.736-1.94-4.366-3.021c-0.94-1.631-0.431-3.724,1.151-4.742l30.28-19.509     c-14.307,8.812-28.261,17.52-40.237,25.094c-0.819,0.516-1.808,0.667-2.741,0.449c-0.928-0.23-1.729-0.831-2.214-1.674     c-0.024-0.043-0.055-0.091-0.079-0.146c-8.02,4.924-9.778,5.318-11.397,4.93c-1.025-0.236-1.874-0.86-2.393-1.758     c-0.191-0.34-0.327-0.691-0.4-1.056c-6.068,3.39-9.664,5.386-9.782,5.452c-1.662,0.922-3.748,0.37-4.733-1.256     c-0.067-0.103-0.125-0.212-0.176-0.321C229.456,489.509,224.253,491.098,220.529,491.098z M235.869,478.69     c-0.385,0.218-0.761,0.442-1.134,0.667c0.352-0.176,0.716-0.346,1.089-0.534C235.839,478.781,235.854,478.732,235.869,478.69z      M173.315,475.385c-1.832,0.904-3.584,1.729-5.251,2.475c1.276-0.412,2.826-0.988,4.694-1.795     C172.918,475.858,173.103,475.628,173.315,475.385z M396.166,371.745c-6.435,2.935-17.266,8.653-35.495,19.588     c-23.342,14.003-51.438,32.05-78.606,49.516c-24.464,15.719-41.571,26.61-53.64,34.015     C339.209,409.914,381.198,382.837,396.166,371.745z M173.891,464.869c-2.362,1.91-4.403,3.712-6.095,5.379     c7.465-3.565,18.042-9.271,32.997-18.338c24.06-14.579,52.199-33.324,77.967-50.613c-11.214,5.997-22.317,12.074-32.954,18.06     c-7.198,8.872-30.331,22.231-63.1,40.564C179.801,461.546,176.817,463.214,173.891,464.869z M233.073,463.529     c-1.692,1.098-3.323,2.159-4.897,3.202c2.581-1.595,5.276-3.281,8.057-5.027C235.156,462.328,234.107,462.935,233.073,463.529z      M151.083,434.56c-16.019,9.412-33.221,19.643-43.454,26.465c4.442-2.195,10.776-5.688,19.785-11.243     C134.685,445.306,142.711,440.103,151.083,434.56z M395.674,446.573c-7.113,4.712-14.36,9.558-21.019,14.063     c3.984-2.523,8.187-5.264,12.475-8.127L395.674,446.573z M152.496,424.523c-3.83,2.559-7.593,5.124-11.219,7.604     c5.864-3.45,11.893-6.98,17.845-10.467c17.583-10.285,38.402-22.469,48.776-29.389c-0.892,0.334-1.896,0.734-3.021,1.22     c-8.426,5.154-19.054,11.4-30.216,17.95C167.891,415.421,160.195,419.938,152.496,424.523z M153.439,399.678     c-4.584,2.662-9.488,5.476-14.682,8.441c-12.295,7.028-26.88,15.367-34.082,20.395c1.853-0.559,4.348-1.479,7.708-2.978     L153.439,399.678z M181.996,354.413c-14.87,7.805-41.05,23.882-72.545,44.664c14.079-8.103,28.224-16.483,40.759-24.167     c14.172-9.581,23.339-15.555,29.5-18.908C180.504,355.456,181.266,354.929,181.996,354.413z M194.744,390.217     c-0.861,0.552-1.722,1.098-2.568,1.638c3.56-1.886,6.58-3.335,9.139-4.47c1.858-1.128,3.608-2.213,5.23-3.227     C203.449,385.602,199.577,387.573,194.744,390.217z M350.234,364.644c-2.438,1.632-4.919,3.299-7.417,5.003     c27.447-15.834,50.819-29.115,62.597-35.785c-10.51,2.638-29.455,13.766-51.463,28.314c-0.346,0.594-0.867,1.079-1.491,1.389     C351.726,363.922,350.979,364.286,350.234,364.644z M207.394,197.734c-20.151,13.111-40.686,26.859-60.376,40.325     C164.701,226.916,185.908,212.507,207.394,197.734z M119.749,224.523c-2.02,1.58-3.736,2.986-5.191,4.248     c6.328-3.848,14.642-8.891,24.285-14.718c-5.825,3.117-11.255,6.003-16.125,8.578     C121.689,223.289,120.698,223.92,119.749,224.523z M280.281,156.436c-16.319,10.892-33.945,23.042-51.247,34.97l116.972-70.222     c-4.639,0.758-11.109,3.035-19.029,6.543C318.523,134.07,303.43,143.221,280.281,156.436z M332.957,137.257l-89.871,53.955     C289.548,166.235,317.207,149.049,332.957,137.257z M204.432,139.119c-0.212,0.137-0.425,0.279-0.631,0.421     c6.134-3.535,12.038-6.962,17.344-10.112C216.026,132.293,210.375,135.577,204.432,139.119z M101.286,119.012     c0.303,0.258,0.567,0.564,0.776,0.931C101.844,119.561,101.58,119.255,101.286,119.012z" style="fill:#B6302D;"/></g></g></g><g id="Layer_1"/></svg>